<?xml version="1.0" encoding="utf-8"?>
<!-- Generator: Adobe Illustrator 23.0.4, SVG Export Plug-In . SVG Version: 6.00 Build 0)  -->
<svg version="1.1" id="Calque_1" xmlns="http://www.w3.org/2000/svg" xmlns:xlink="http://www.w3.org/1999/xlink" x="0px" y="0px"
	 viewBox="0 0 80 80" style="enable-background:new 0 0 80 80;" xml:space="preserve">
<style type="text/css">
	.st0{fill:#FFFFFF;}
	.st1{opacity:0.3;fill:none;stroke:#231F20;stroke-miterlimit:10;}
</style>
<g>
	<path class="st0" d="M55.714,39.5H40.5V24.286c0-0.276-0.224-0.5-0.5-0.5s-0.5,0.224-0.5,0.5V39.5H24.286
		c-0.276,0-0.5,0.224-0.5,0.5s0.224,0.5,0.5,0.5H39.5v15.215c0,0.276,0.224,0.5,0.5,0.5s0.5-0.224,0.5-0.5V40.5h15.214
		c0.276,0,0.5-0.224,0.5-0.5S55.991,39.5,55.714,39.5z"/>
	<path class="st0" d="M67.5,39.5h-3.441C63.794,26.624,53.375,16.206,40.5,15.941V12.5c0-0.276-0.224-0.5-0.5-0.5
		s-0.5,0.224-0.5,0.5v3.441C26.625,16.206,16.206,26.624,15.941,39.5H12.5c-0.276,0-0.5,0.224-0.5,0.5s0.224,0.5,0.5,0.5h3.441
		C16.206,53.376,26.625,63.794,39.5,64.058V67.5c0,0.276,0.224,0.5,0.5,0.5s0.5-0.224,0.5-0.5v-3.441
		C53.375,63.794,63.794,53.376,64.059,40.5H67.5c0.276,0,0.5-0.224,0.5-0.5S67.776,39.5,67.5,39.5z M40.5,63.058v-3.415
		c0-0.276-0.224-0.5-0.5-0.5s-0.5,0.224-0.5,0.5v3.415C27.176,62.794,17.206,52.824,16.941,40.5h3.416c0.276,0,0.5-0.224,0.5-0.5
		s-0.224-0.5-0.5-0.5h-3.416C17.206,27.176,27.176,17.205,39.5,16.941v3.416c0,0.276,0.224,0.5,0.5,0.5s0.5-0.224,0.5-0.5v-3.416
		C52.824,17.205,62.794,27.176,63.059,39.5h-3.416c-0.276,0-0.5,0.224-0.5,0.5s0.224,0.5,0.5,0.5h3.416
		C62.794,52.824,52.824,62.794,40.5,63.058z"/>
	<path class="st0" d="M45.893,36.572c0.658,0,1.277-0.257,1.743-0.723c0.465-0.465,0.722-1.084,0.722-1.742
		s-0.256-1.277-0.722-1.742c-0.93-0.932-2.553-0.932-3.485,0c-0.465,0.465-0.722,1.084-0.722,1.742s0.256,1.277,0.722,1.742
		C44.616,36.315,45.234,36.572,45.893,36.572z"/>
</g>
</svg>
