<?xml version="1.0" encoding="utf-8"?>
<!-- Generator: Adobe Illustrator 23.0.4, SVG Export Plug-In . SVG Version: 6.00 Build 0)  -->
<svg version="1.1" id="Calque_1" xmlns="http://www.w3.org/2000/svg" xmlns:xlink="http://www.w3.org/1999/xlink" x="0px" y="0px"
	 viewBox="0 0 80 80" style="enable-background:new 0 0 80 80;" xml:space="preserve">
<style type="text/css">
	.st0{fill:#FFFFFF;}
	.st1{opacity:0.3;fill:none;stroke:#231F20;stroke-miterlimit:10;}
</style>
<g>
	<path class="st0" d="M37.636,36.858h4.729c0.276,0,0.5-0.224,0.5-0.5s-0.224-0.5-0.5-0.5h-4.729c-0.276,0-0.5,0.224-0.5,0.5
		S37.359,36.858,37.636,36.858z"/>
	<circle class="st0" cx="40" cy="66.103" r="1.089"/>
	<path class="st0" d="M33.239,13.055C35.106,11.407,37.507,10.5,40,10.5s4.894,0.907,6.761,2.556
		c0.095,0.084,0.213,0.125,0.331,0.125c0.138,0,0.276-0.058,0.375-0.169c0.183-0.207,0.163-0.523-0.044-0.706
		C45.373,10.496,42.736,9.5,40,9.5s-5.373,0.996-7.423,2.806c-0.207,0.183-0.227,0.499-0.044,0.706
		C32.716,13.217,33.032,13.239,33.239,13.055z"/>
	<path class="st0" d="M45.361,15.534c0.138,0,0.276-0.058,0.375-0.169c0.183-0.207,0.163-0.523-0.044-0.706
		c-1.572-1.388-3.594-2.151-5.692-2.151s-4.12,0.764-5.692,2.151c-0.207,0.183-0.227,0.499-0.044,0.706
		c0.184,0.207,0.5,0.227,0.706,0.044c1.389-1.227,3.176-1.901,5.03-1.901s3.641,0.675,5.03,1.901
		C45.125,15.493,45.244,15.534,45.361,15.534z"/>
	<path class="st0" d="M36.988,16.834c-0.207,0.183-0.227,0.499-0.044,0.706c0.184,0.208,0.5,0.228,0.706,0.044
		c1.297-1.146,3.402-1.146,4.699,0c0.095,0.084,0.213,0.125,0.331,0.125c0.138,0,0.276-0.058,0.375-0.169
		c0.183-0.207,0.163-0.523-0.044-0.706C41.349,15.365,38.651,15.365,36.988,16.834z"/>
	<path class="st0" d="M54.185,22.217H42.823c-0.199-1.387-1.382-2.459-2.823-2.459s-2.625,1.072-2.823,2.459H25.815
		c-5.168,0-5.228,5.175-5.228,5.228v18.914c0,5.168,5.176,5.228,5.228,5.228h4.229v15.579c0,1.838,1.496,3.334,3.334,3.334h13.244
		c1.839,0,3.334-1.496,3.334-3.334V51.587h4.229c0.052,0,5.228-0.06,5.228-5.228V27.445C59.413,27.392,59.354,22.217,54.185,22.217z
		 M48.957,67.166c0,1.287-1.047,2.334-2.334,2.334H33.378c-1.287,0-2.334-1.047-2.334-2.334V35.008c0-1.287,1.047-2.335,2.334-2.335
		h13.244c1.287,0,2.334,1.048,2.334,2.335V67.166z M58.413,46.359c0,4.16-4.057,4.227-4.228,4.228h-4.229V35.008
		c0-1.839-1.496-3.335-3.334-3.335H33.378c-1.839,0-3.334,1.496-3.334,3.335v15.578h-4.228c-0.172-0.001-4.229-0.067-4.229-4.228
		V27.446c0.001-0.173,0.067-4.229,4.228-4.229H37.2c0.275,1.294,1.425,2.269,2.8,2.269s2.525-0.975,2.8-2.269h11.385
		c4.161,0,4.227,4.056,4.228,4.228V46.359z"/>
	<path class="st0" d="M44.848,46.733L40.5,44.457c-0.155-0.078-0.325-0.116-0.496-0.116c-0.002,0-0.003-0.002-0.004-0.002
		c-0.001,0-0.002,0.002-0.004,0.002c-0.171,0.001-0.343,0.04-0.5,0.119l-4.34,2.272c-0.551,0.276-0.775,0.949-0.5,1.499l0.504,1.008
		v0.859c0,2.596,0,6.941,4.84,6.941s4.84-4.346,4.84-6.941v-0.859l0.504-1.008C45.62,47.68,45.396,47.007,44.848,46.733z
		 M44.34,49.847H35.66v-0.418h8.681V49.847z M44.309,50.347c-0.163,1.295-1.494,1.336-1.554,1.336h-5.509
		c-1.194,0-1.487-0.889-1.56-1.336H44.309z M40,56.539c-3.59,0-4.209-2.65-4.316-5.019c0.321,0.376,0.811,0.663,1.562,0.663h5.509
		c0.435,0,1.099-0.164,1.562-0.651C44.207,53.898,43.583,56.539,40,56.539z M44.897,48.007l-0.461,0.922h-8.872l-0.461-0.922
		c-0.152-0.305-0.028-0.677,0.28-0.831l4.34-2.272c0.008-0.004,0.018-0.003,0.026-0.006v1.327c-0.52,0.118-0.918,0.562-0.918,1.118
		c0,0.644,0.524,1.168,1.168,1.168s1.168-0.524,1.168-1.168c0-0.556-0.398-1-0.918-1.118v-1.328
		c0.007,0.003,0.016,0.002,0.022,0.005l4.348,2.276C44.925,47.331,45.049,47.703,44.897,48.007z"/>
</g>
</svg>
