<?xml version="1.0" encoding="utf-8"?>
<!-- Generator: Adobe Illustrator 23.0.4, SVG Export Plug-In . SVG Version: 6.00 Build 0)  -->
<svg version="1.1" id="Calque_1" xmlns="http://www.w3.org/2000/svg" xmlns:xlink="http://www.w3.org/1999/xlink" x="0px" y="0px"
	 viewBox="0 0 80 80" style="enable-background:new 0 0 80 80;" xml:space="preserve">
<style type="text/css">
	.st0{fill:#FFFFFF;}
	.st1{opacity:0.3;fill:none;stroke:#231F20;stroke-miterlimit:10;}
</style>
<g>
	<path class="st0" d="M15,25.857h3.071v3.786c0,0.276,0.224,0.5,0.5,0.5s0.5-0.224,0.5-0.5v-3.786h3.786h4.286h4.286h4.286H40h4.286
		h4.286h8.572h3.786v3.786c0,0.276,0.224,0.5,0.5,0.5s0.5-0.224,0.5-0.5v-3.786H65c0.276,0,0.5-0.224,0.5-0.5s-0.224-0.5-0.5-0.5
		h-7.357v-3.286h3.786c0.276,0,0.5-0.224,0.5-0.5v-4.286c0-0.276-0.224-0.5-0.5-0.5h-8.572c-0.276,0-0.5,0.224-0.5,0.5v3.786h-3.786
		c-0.276,0-0.5,0.224-0.5,0.5v3.786h-3.286V12.5c0-0.276-0.224-0.5-0.5-0.5H40c-0.276,0-0.5,0.224-0.5,0.5v3.786h-3.286V12.5
		c0-0.276-0.224-0.5-0.5-0.5h-4.286h-4.286c-0.276,0-0.5,0.224-0.5,0.5v3.786h-3.786c-0.276,0-0.5,0.224-0.5,0.5v8.071H15
		c-0.276,0-0.5,0.224-0.5,0.5S14.724,25.857,15,25.857z M53.357,17.286h7.572v3.286h-3.786h-3.786V17.286z M40.5,13h3.286v11.857
		H40.5v-8.071V13z M35.214,16.786v8.071h-3.286V13h3.286V16.786z M23.357,17.286h3.286v7.571h-3.286V17.286z"/>
	<path class="st0" d="M64.071,47.623v-3.406c0-2.481-2.019-4.5-4.5-4.5H40H20.429c-2.481,0-4.5,2.019-4.5,4.5v3.406
		C13.756,47.87,12,49.665,12,51.786v11.785c0,0.276,0.224,0.5,0.5,0.5h3.929h3.428V67.5c0,0.276,0.224,0.5,0.5,0.5h3.929
		c0.276,0,0.5-0.224,0.5-0.5v-3.429h30.429V67.5c0,0.276,0.224,0.5,0.5,0.5h3.929c0.276,0,0.5-0.224,0.5-0.5v-3.429h3.428H67.5
		c0.276,0,0.5-0.224,0.5-0.5V51.786C68,49.665,66.244,47.87,64.071,47.623z M63.071,59.139H40.5v-2.925h22.571V59.139z
		 M16.929,56.214H39.5v2.929H16.929V56.214z M63.071,44.217v3.856v7.137H40.5V40.716h19.071
		C61.501,40.716,63.071,42.287,63.071,44.217z M16.929,44.217c0-1.93,1.57-3.5,3.5-3.5H39.5V55.21H16.929v-7.137V44.217z M13,51.786
		c0-1.554,1.319-2.934,2.929-3.176v7.1v0.004v3.929v3.429H13V51.786z M16.929,60.143H40h23.071v2.929H16.929V60.143z M23.786,67
		h-2.929v-2.929h2.929V67z M59.143,67h-2.929v-2.929h2.929V67z M67,63.071h-2.929v-3.429v-0.004v-3.925V55.71v-7.1
		C65.681,48.853,67,50.232,67,51.786V63.071z"/>
	<path class="st0" d="M24.286,48.881c0.506,0,0.915-0.41,0.915-0.915s-0.41-0.915-0.915-0.915s-0.915,0.41-0.915,0.915
		S23.78,48.881,24.286,48.881z"/>
	<path class="st0" d="M32.143,48.881c0.506,0,0.915-0.41,0.915-0.915s-0.41-0.915-0.915-0.915s-0.915,0.41-0.915,0.915
		S31.637,48.881,32.143,48.881z"/>
	<path class="st0" d="M47.857,48.881c0.506,0,0.915-0.41,0.915-0.915s-0.41-0.915-0.915-0.915s-0.915,0.41-0.915,0.915
		S47.352,48.881,47.857,48.881z"/>
	<path class="st0" d="M55.714,48.881c0.506,0,0.915-0.41,0.915-0.915s-0.41-0.915-0.915-0.915s-0.915,0.41-0.915,0.915
		S55.209,48.881,55.714,48.881z"/>
</g>
</svg>
