<?xml version="1.0" encoding="utf-8"?>
<!-- Generator: Adobe Illustrator 23.0.4, SVG Export Plug-In . SVG Version: 6.00 Build 0)  -->
<svg version="1.1" id="Calque_1" xmlns="http://www.w3.org/2000/svg" xmlns:xlink="http://www.w3.org/1999/xlink" x="0px" y="0px"
	 viewBox="0 0 80 80" style="enable-background:new 0 0 80 80;" xml:space="preserve">
<style type="text/css">
	.st0{fill:#FFFFFF;}
	.st1{opacity:0.3;fill:none;stroke:#231F20;stroke-miterlimit:10;}
</style>
<path class="st0" d="M63.5,12h-47c-2.481,0-4.5,2.019-4.5,4.5v47c0,2.481,2.019,4.5,4.5,4.5h42.496C63.961,68,68,63.961,68,58.996
	V16.5C68,14.018,65.981,12,63.5,12z M67,45.395l-18.04,18.04H20.167c-1.93,0-3.5-1.57-3.5-3.5V20.268c0-1.93,1.57-3.5,3.5-3.5
	h39.666c1.93,0,3.5,1.57,3.5,3.5v25.127L48.96,59.768H23.833c-1.93,0-3.5-1.57-3.5-3.5V23.935c0-1.93,1.57-3.5,3.5-3.5h32.334
	c1.93,0,3.5,1.57,3.5,3.5v21.46L48.96,56.102H27.5c-1.93,0-3.5-1.57-3.5-3.5v-25c0-1.93,1.57-3.5,3.5-3.5h25
	c1.93,0,3.5,1.57,3.5,3.5v17.793l-7.04,7.04H31.167c-1.93,0-3.5-1.57-3.5-3.5V31.268c0-1.93,1.57-3.5,3.5-3.5h17.666
	c1.93,0,3.5,1.57,3.5,3.5v10.167H46V35.5c0-0.827-0.673-1.5-1.5-1.5h-9c-0.827,0-1.5,0.673-1.5,1.5v9c0,0.827,0.673,1.5,1.5,1.5h9
	c0.827,0,1.5-0.673,1.5-1.5v-2.064h6.833c0.276,0,0.5-0.224,0.5-0.5V31.268c0-2.481-2.019-4.5-4.5-4.5H31.167
	c-2.481,0-4.5,2.019-4.5,4.5v17.667c0,2.481,2.019,4.5,4.5,4.5h18c0.133,0,0.26-0.053,0.354-0.146l7.333-7.333
	C56.947,45.862,57,45.735,57,45.602v-18c0-2.481-2.019-4.5-4.5-4.5h-25c-2.481,0-4.5,2.019-4.5,4.5v25c0,2.481,2.019,4.5,4.5,4.5
	h21.667c0.133,0,0.26-0.053,0.354-0.146l11-11c0.094-0.094,0.146-0.221,0.146-0.354V23.935c0-2.481-2.019-4.5-4.5-4.5H23.833
	c-2.481,0-4.5,2.019-4.5,4.5v32.333c0,2.481,2.019,4.5,4.5,4.5h25.334c0.133,0,0.26-0.053,0.354-0.146l14.666-14.666
	c0.094-0.094,0.146-0.221,0.146-0.354V20.268c0-2.481-2.019-4.5-4.5-4.5H20.167c-2.481,0-4.5,2.019-4.5,4.5v39.667
	c0,2.481,2.019,4.5,4.5,4.5h29c0.133,0,0.26-0.053,0.354-0.146L67,46.809v12.187C67,63.409,63.409,67,58.996,67H16.5
	c-1.93,0-3.5-1.57-3.5-3.5v-47c0-1.93,1.57-3.5,3.5-3.5h47c1.93,0,3.5,1.57,3.5,3.5V45.395z M40.882,39.161
	c-0.05,0.057-0.119,0.086-0.188,0.086c-0.059,0-0.117-0.021-0.164-0.062c-0.297-0.258-0.762-0.258-1.059,0
	c-0.103,0.09-0.261,0.08-0.353-0.024c-0.091-0.104-0.08-0.262,0.024-0.353c0.477-0.416,1.238-0.416,1.715,0
	C40.962,38.899,40.973,39.057,40.882,39.161z M40.857,41.191c-0.477,0.416-1.238,0.416-1.715,0
	c-0.104-0.091-0.115-0.249-0.024-0.353c0.05-0.057,0.119-0.086,0.188-0.086c0.059,0,0.117,0.021,0.164,0.062
	c0.297,0.258,0.762,0.258,1.059,0c0.103-0.09,0.261-0.08,0.353,0.024C40.973,40.942,40.962,41.1,40.857,41.191z M38.78,38.527
	c-0.104,0.092-0.262,0.082-0.354-0.021c-0.091-0.104-0.081-0.262,0.021-0.354c0.855-0.756,2.248-0.756,3.104,0
	c0.103,0.092,0.112,0.25,0.021,0.354c-0.05,0.056-0.118,0.084-0.188,0.084c-0.059,0-0.118-0.021-0.166-0.062
	C40.548,37.933,39.452,37.933,38.78,38.527z M38.427,41.494c0.05-0.056,0.118-0.084,0.188-0.084c0.059,0,0.118,0.021,0.166,0.062
	c0.672,0.594,1.768,0.594,2.439,0c0.104-0.092,0.262-0.082,0.354,0.021c0.091,0.104,0.081,0.262-0.021,0.354
	c-0.855,0.756-2.248,0.756-3.104,0C38.346,41.755,38.336,41.597,38.427,41.494z M41.667,42.174c0.104-0.092,0.262-0.081,0.354,0.021
	c0.091,0.104,0.081,0.262-0.021,0.354c-1.104,0.975-2.895,0.975-3.998,0c-0.103-0.092-0.112-0.25-0.021-0.354
	c0.05-0.056,0.118-0.084,0.188-0.084c0.059,0,0.118,0.021,0.166,0.062C39.253,42.989,40.747,42.989,41.667,42.174z M42.021,37.803
	c-0.05,0.056-0.118,0.084-0.188,0.084c-0.059,0-0.118-0.021-0.166-0.062c-0.92-0.814-2.414-0.814-3.334,0
	c-0.104,0.092-0.262,0.081-0.354-0.021c-0.091-0.104-0.081-0.262,0.021-0.354c1.104-0.975,2.895-0.975,3.998,0
	C42.102,37.542,42.111,37.7,42.021,37.803z"/>
</svg>
