<?xml version="1.0" encoding="utf-8"?>
<!-- Generator: Adobe Illustrator 23.0.4, SVG Export Plug-In . SVG Version: 6.00 Build 0)  -->
<svg version="1.1" id="Calque_1" xmlns="http://www.w3.org/2000/svg" xmlns:xlink="http://www.w3.org/1999/xlink" x="0px" y="0px"
	 viewBox="0 0 80 80" style="enable-background:new 0 0 80 80;" xml:space="preserve">
<style type="text/css">
	.st0{fill:#FFFFFF;}
	.st1{opacity:0.3;fill:none;stroke:#231F20;stroke-miterlimit:10;}
</style>
<g>
	<path class="st0" d="M44.566,38.379c0-4.565-3.714-8.28-8.28-8.28s-8.28,3.715-8.28,8.28s3.714,8.28,8.28,8.28
		S44.566,42.944,44.566,38.379z M29.005,38.379c0-4.015,3.266-7.28,7.28-7.28s7.28,3.266,7.28,7.28s-3.266,7.28-7.28,7.28
		S29.005,42.394,29.005,38.379z"/>
	<path class="st0" d="M39.379,38.379c0-1.705-1.388-3.093-3.093-3.093s-3.093,1.388-3.093,3.093c0,1.706,1.388,3.094,3.093,3.094
		S39.379,40.085,39.379,38.379z"/>
	<path class="st0" d="M70.5,38.379c0-1.705-1.388-3.093-3.093-3.093c-1.706,0-3.094,1.388-3.094,3.093
		c0,1.535,1.126,2.802,2.594,3.043V57.83c0,4.614-4.497,4.686-4.687,4.687H47.159v-5.917c6.201-3.715,10.374-10.481,10.374-18.22
		c0-11.716-9.531-21.247-21.247-21.247s-21.247,9.531-21.247,21.247c0,7.739,4.173,14.505,10.374,18.22v8.77
		c0,1.838,1.496,3.334,3.334,3.334h15.078c1.839,0,3.334-1.496,3.334-3.334v-1.853H62.22c0.057,0,5.687-0.065,5.687-5.687V41.422
		C69.374,41.181,70.5,39.914,70.5,38.379z M16.039,38.379c0-11.164,9.083-20.247,20.247-20.247s20.247,9.083,20.247,20.247
		S47.45,58.626,36.286,58.626S16.039,49.543,16.039,38.379z M46.159,65.369c0,1.287-1.047,2.334-2.334,2.334H28.747
		c-1.287,0-2.334-1.047-2.334-2.334v-8.193c2.953,1.557,6.309,2.45,9.874,2.45s6.921-0.892,9.874-2.45V65.369z"/>
	<path class="st0" d="M26.122,16.479c0.25-0.116,0.359-0.413,0.243-0.664c-0.117-0.25-0.414-0.36-0.665-0.242
		c-5.007,2.328-9.17,6.31-11.723,11.211c-0.127,0.244-0.033,0.546,0.212,0.674c0.074,0.038,0.153,0.057,0.23,0.057
		c0.181,0,0.355-0.098,0.444-0.269C17.315,22.539,21.313,18.716,26.122,16.479z"/>
	<path class="st0" d="M26.093,12.263c0.257-0.101,0.385-0.391,0.284-0.647c-0.101-0.258-0.393-0.386-0.647-0.284
		c-7.254,2.832-13.155,8.573-16.19,15.75c-0.107,0.254,0.011,0.547,0.266,0.655c0.063,0.026,0.13,0.039,0.195,0.039
		c0.195,0,0.38-0.114,0.46-0.306C13.391,20.54,19.089,14.997,26.093,12.263z"/>
</g>
</svg>
