<?xml version="1.0" encoding="utf-8"?>
<!-- Generator: Adobe Illustrator 23.0.4, SVG Export Plug-In . SVG Version: 6.00 Build 0)  -->
<svg version="1.1" id="Calque_1" xmlns="http://www.w3.org/2000/svg" xmlns:xlink="http://www.w3.org/1999/xlink" x="0px" y="0px"
	 viewBox="0 0 80 80" style="enable-background:new 0 0 80 80;" xml:space="preserve">
<style type="text/css">
	.st0{fill:#FFFFFF;}
	.st1{opacity:0.3;fill:none;stroke:#231F20;stroke-miterlimit:10;}
</style>
<g>
	<path class="st0" d="M68,55.143c0-3.797-1.661-7.204-4.282-9.56c-0.008-0.011-0.011-0.025-0.021-0.036
		c-0.033-0.037-0.073-0.061-0.113-0.086c-2.255-1.971-5.195-3.175-8.415-3.175c-3.221,0-6.161,1.205-8.417,3.176
		c-0.039,0.025-0.079,0.048-0.112,0.084c-0.01,0.011-0.013,0.025-0.021,0.036c-0.05,0.045-0.1,0.09-0.149,0.136l-3.173-3.163v-6.802
		c0-0.276-0.224-0.5-0.5-0.5h-6.826l-3.019-3.01l2.211-2.207c0.094-0.094,0.147-0.222,0.147-0.354c0-0.134-0.054-0.261-0.148-0.354
		c-1.503-1.487-3.851-1.594-5.496-0.36l-0.153-0.152l2.273-2.27l0,0l0,0l0.001-0.001c0.031-0.031,0.05-0.07,0.071-0.107
		c0.011-0.019,0.028-0.035,0.037-0.055c0.015-0.036,0.017-0.077,0.023-0.116c0.004-0.026,0.015-0.05,0.015-0.076c0,0,0,0,0,0
		s0,0,0,0c0-0.029-0.012-0.055-0.017-0.083c-0.006-0.037-0.008-0.075-0.022-0.109c-0.006-0.014-0.018-0.024-0.025-0.038
		c-0.023-0.044-0.048-0.089-0.084-0.125l-1.417-1.405c-0.004-0.004-0.009-0.005-0.012-0.008l-3.392-3.355l1.01-1.009l1.373,1.359
		c0.097,0.097,0.225,0.145,0.352,0.145c0.128,0,0.256-0.049,0.354-0.146l5.155-5.147c0.094-0.094,0.147-0.222,0.146-0.354
		c0-0.134-0.054-0.261-0.148-0.354l-3.452-3.415c-0.195-0.193-0.511-0.191-0.705,0.002l-5.155,5.146
		c-0.094,0.094-0.147,0.222-0.147,0.354s0.054,0.261,0.148,0.354l1.368,1.354l-1.01,1.009l-3.1-3.066
		c-0.194-0.193-0.51-0.191-0.705,0.002l-1.366,1.364l-0.684-0.678c-0.195-0.193-0.51-0.191-0.705,0.001l-1.719,1.715
		c-0.094,0.095-0.147,0.223-0.147,0.355s0.054,0.261,0.148,0.354l0.681,0.675l-1.363,1.361c-0.094,0.094-0.147,0.222-0.146,0.354
		c0,0.134,0.054,0.261,0.148,0.354l3.095,3.062l-1.011,1.009l-1.373-1.358c-0.195-0.193-0.511-0.192-0.705,0.002l-5.155,5.146
		C12.053,31.111,12,31.239,12,31.372c0,0.134,0.054,0.261,0.148,0.354l3.453,3.415c0.097,0.097,0.225,0.145,0.352,0.145
		c0.128,0,0.256-0.049,0.353-0.146l5.155-5.146c0.094-0.094,0.147-0.222,0.147-0.354c0-0.134-0.054-0.261-0.148-0.354L20.09,27.93
		l1.011-1.009l4.67,4.62l0.145,0.144c0,0,0.001,0,0.001,0.001l0.01,0.01c0.097,0.097,0.225,0.145,0.352,0.145
		c0.128,0,0.256-0.049,0.354-0.146l2.172-2.169l0.139,0.139c-0.616,0.748-0.966,1.667-0.964,2.647
		c0.002,1.118,0.443,2.169,1.241,2.958c0.098,0.097,0.225,0.145,0.352,0.145c0.128,0,0.256-0.049,0.353-0.146l2.318-2.314
		l3.036,3.026v6.809c0,0.276,0.224,0.5,0.5,0.5h6.832l3.151,3.141c-2.119,2.294-3.426,5.351-3.426,8.715
		c0,3.793,1.658,7.198,4.275,9.553c0.01,0.014,0.014,0.031,0.026,0.044c0.041,0.046,0.089,0.08,0.14,0.107
		C49.031,66.805,51.96,68,55.168,68c0,0,0,0,0,0s0,0,0,0c0,0,0,0,0,0c3.221,0,6.16-1.204,8.416-3.175
		c0.04-0.025,0.082-0.047,0.114-0.084c0.011-0.013,0.015-0.029,0.025-0.043C66.341,62.343,68,58.938,68,55.143z M20.048,19.048
		l0.327,0.323l-1.011,1.009l-0.327-0.323L20.048,19.048z M30.724,26.193l-4.456,4.431l-0.707-0.7l4.456-4.43L30.724,26.193z
		 M31.404,13.205l2.741,2.712l-4.447,4.44l-2.741-2.713L31.404,13.205z M20.949,20.211l0.488-0.487c0.001,0,0.001-0.001,0.001-0.002
		l1.365-1.363l3.096,3.062c0.001,0,0.001,0.001,0.001,0.002s0.002,0.001,0.002,0.001l3.402,3.365l-4.457,4.431l-3.394-3.357
		c0,0,0,0-0.001-0.001s-0.001,0-0.001,0L18.357,22.8L20.949,20.211z M15.951,34.081l-2.742-2.712l4.447-4.439l2.742,2.712
		L15.951,34.081z M29.599,34.18c-0.4-0.541-0.617-1.19-0.619-1.874c-0.002-0.852,0.33-1.652,0.934-2.257
		c0.627-0.625,1.452-0.938,2.277-0.938c0.661,0,1.322,0.201,1.881,0.603L29.599,34.18z M63.291,63.741
		c-0.965-0.792-2.03-1.432-3.165-1.909c1.105-2.061,1.731-4.128,1.876-6.189h4.973C66.841,58.828,65.456,61.687,63.291,63.741z
		 M47.046,46.546c0.878,0.721,1.839,1.317,2.86,1.778c-0.787,1.527-1.402,3.311-1.566,5.333c-0.027,0.329-0.038,0.658-0.04,0.987
		h-4.938C43.496,51.459,44.881,48.6,47.046,46.546z M61.037,54.643h-5.368v-5.2c1.313-0.051,2.599-0.298,3.819-0.735
		c0.762,1.448,1.361,3.138,1.513,5.038C61.025,54.045,61.036,54.344,61.037,54.643z M55.669,61.845
		c1.025,0.043,2.03,0.217,2.997,0.517c-0.799,1.299-1.796,2.598-2.997,3.895V61.845z M55.669,60.845v-5.201h5.329
		c-0.148,1.936-0.756,3.885-1.819,5.835C58.051,61.107,56.872,60.892,55.669,60.845z M54.669,43.853v4.59
		c-1.138-0.048-2.253-0.258-3.317-0.622C52.493,45.96,53.835,44.599,54.669,43.853z M55.669,48.443v-4.589
		c0.834,0.746,2.176,2.107,3.316,3.968C57.922,48.184,56.807,48.395,55.669,48.443z M56.658,43.391
		c2.202,0.279,4.216,1.163,5.871,2.485c-0.797,0.636-1.664,1.161-2.585,1.569C58.857,45.62,57.576,44.244,56.658,43.391z
		 M50.393,47.445c-0.92-0.407-1.788-0.933-2.584-1.569c1.655-1.323,3.669-2.206,5.871-2.485
		C52.761,44.244,51.481,45.62,50.393,47.445z M49.336,53.746c0.152-1.9,0.75-3.59,1.513-5.038c1.22,0.437,2.507,0.684,3.82,0.735
		v5.2H49.3C49.302,54.344,49.313,54.045,49.336,53.746z M54.669,55.643v5.201c-1.203,0.047-2.383,0.262-3.511,0.634
		c-1.063-1.951-1.671-3.899-1.819-5.835H54.669z M54.669,61.845v4.412c-1.201-1.297-2.198-2.596-2.998-3.895
		C52.638,62.062,53.644,61.888,54.669,61.845z M53.932,66.934c-2.302-0.241-4.405-1.15-6.123-2.524
		c0.887-0.708,1.862-1.281,2.899-1.704C51.559,64.12,52.632,65.531,53.932,66.934z M59.63,62.706
		c1.037,0.423,2.012,0.996,2.899,1.704c-1.719,1.374-3.822,2.283-6.123,2.524C57.705,65.531,58.778,64.12,59.63,62.706z
		 M66.975,54.643h-4.938c-0.002-0.329-0.013-0.658-0.04-0.987c-0.163-2.022-0.779-3.806-1.566-5.333
		c1.022-0.461,1.982-1.057,2.86-1.778C65.456,48.6,66.841,51.459,66.975,54.643z M36.28,36.255h6.018v6.032H36.28V36.255z
		 M43.363,55.643h4.973c0.145,2.062,0.771,4.129,1.876,6.189c-1.135,0.477-2.2,1.117-3.165,1.909
		C44.882,61.687,43.496,58.828,43.363,55.643z"/>
	<polygon class="st0" points="38.352,40.462 40.329,39.294 38.352,38.126 	"/>
</g>
</svg>
