<?xml version="1.0" encoding="utf-8"?>
<!-- Generator: Adobe Illustrator 23.0.4, SVG Export Plug-In . SVG Version: 6.00 Build 0)  -->
<svg version="1.1" id="Calque_1" xmlns="http://www.w3.org/2000/svg" xmlns:xlink="http://www.w3.org/1999/xlink" x="0px" y="0px"
	 viewBox="0 0 80 80" style="enable-background:new 0 0 80 80;" xml:space="preserve">
<style type="text/css">
	.st0{fill:#FFFFFF;}
	.st1{opacity:0.3;fill:none;stroke:#231F20;stroke-miterlimit:10;}
</style>
<path class="st0" d="M70.461,54.557c0.025-0.06,0.039-0.126,0.039-0.192s-0.014-0.132-0.039-0.192
	c-0.025-0.061-0.062-0.116-0.108-0.162l-2.539-2.538c-0.195-0.195-0.512-0.195-0.707,0s-0.195,0.512,0,0.707l1.686,1.686H63.32
	V43.592c0-0.276-0.224-0.5-0.5-0.5h-3.591c-0.276,0-0.5,0.224-0.5,0.5v10.273h-2.591V32.817c0-0.276-0.224-0.5-0.5-0.5h-3.591
	c-0.276,0-0.5,0.224-0.5,0.5v21.048h-2.591V40c0-0.276-0.224-0.5-0.5-0.5h-3.591c-0.276,0-0.5,0.224-0.5,0.5v13.865h-2.591v-6.683
	c0-0.276-0.224-0.5-0.5-0.5h-3.591c-0.276,0-0.5,0.224-0.5,0.5v6.683h-2.591V29.226c0-0.276-0.224-0.5-0.5-0.5h-3.591
	c-0.276,0-0.5,0.224-0.5,0.5v24.639h-2.591V36.409c0-0.276-0.224-0.5-0.5-0.5h-3.591c-0.276,0-0.5,0.224-0.5,0.5v17.456h-2.591
	V43.592c0-0.276-0.224-0.5-0.5-0.5h-3.591c-0.276,0-0.5,0.224-0.5,0.5v10.273H13.04V24.302l1.686,1.686
	c0.098,0.098,0.226,0.146,0.354,0.146s0.256-0.049,0.354-0.146c0.195-0.195,0.195-0.512,0-0.707l-2.538-2.538
	c-0.046-0.046-0.102-0.083-0.163-0.109c-0.122-0.051-0.26-0.051-0.382,0c-0.062,0.025-0.117,0.062-0.163,0.109l-2.539,2.538
	c-0.195,0.195-0.195,0.512,0,0.707s0.512,0.195,0.707,0l1.686-1.686v30.063c0,0.276,0.224,0.5,0.5,0.5h3.593h3.591h3.591h3.591
	h3.591h3.591h3.591h3.591h3.591h3.591h3.591h3.591h3.591h3.591h5.973l-1.686,1.687c-0.195,0.195-0.195,0.512,0,0.707
	c0.098,0.098,0.226,0.146,0.354,0.146s0.256-0.049,0.354-0.146l2.539-2.539C70.399,54.673,70.436,54.618,70.461,54.557z
	 M16.633,53.865v-9.773h2.591v9.773H16.633z M23.815,53.865V36.909h2.591v16.956H23.815z M38.181,53.865v-6.183h2.591v6.183H38.181z
	 M45.363,53.865V40.5h2.591v13.365H45.363z M52.546,53.865V33.317h2.591v20.548H52.546z M59.729,53.865v-9.773h2.591v9.773H59.729z"
	/>
</svg>
