<?xml version="1.0" encoding="utf-8"?>
<!-- Generator: Adobe Illustrator 23.0.4, SVG Export Plug-In . SVG Version: 6.00 Build 0)  -->
<svg version="1.1" id="Calque_1" xmlns="http://www.w3.org/2000/svg" xmlns:xlink="http://www.w3.org/1999/xlink" x="0px" y="0px"
	 viewBox="0 0 80 80" style="enable-background:new 0 0 80 80;" xml:space="preserve">
<style type="text/css">
	.st0{fill:#FFFFFF;}
	.st1{opacity:0.3;fill:none;stroke:#231F20;stroke-miterlimit:10;}
</style>
<g>
	<path class="st0" d="M37.674,36.91h4.651c0.272,0,0.492-0.22,0.492-0.492c0-0.272-0.22-0.492-0.492-0.492h-4.651
		c-0.272,0-0.492,0.22-0.492,0.492C37.183,36.69,37.403,36.91,37.674,36.91z"/>
	<circle class="st0" cx="40" cy="65.675" r="1.071"/>
	<path class="st0" d="M33.349,13.497c1.838-1.621,4.2-2.514,6.651-2.514s4.813,0.892,6.651,2.514
		c0.094,0.083,0.209,0.123,0.326,0.123c0.136,0,0.272-0.057,0.369-0.166c0.18-0.204,0.16-0.515-0.043-0.694
		C45.285,10.98,42.691,10,40,10s-5.285,0.98-7.302,2.76c-0.204,0.18-0.223,0.491-0.043,0.694
		C32.834,13.657,33.145,13.677,33.349,13.497z"/>
	<path class="st0" d="M45.273,15.935c0.136,0,0.272-0.057,0.369-0.166c0.18-0.204,0.16-0.515-0.043-0.694
		c-1.546-1.365-3.535-2.116-5.599-2.116s-4.053,0.751-5.599,2.116c-0.204,0.18-0.223,0.491-0.043,0.694
		c0.18,0.203,0.49,0.223,0.694,0.043c1.367-1.206,3.124-1.87,4.948-1.87s3.581,0.664,4.948,1.87
		C45.042,15.895,45.157,15.935,45.273,15.935z"/>
	<path class="st0" d="M37.039,17.213c-0.205,0.18-0.224,0.49-0.044,0.694c0.179,0.204,0.49,0.225,0.694,0.044
		c1.279-1.126,3.345-1.126,4.624,0c0.093,0.083,0.209,0.123,0.325,0.123c0.136,0,0.272-0.057,0.369-0.167
		c0.18-0.204,0.16-0.514-0.044-0.694C41.325,15.77,38.675,15.77,37.039,17.213z"/>
	<path class="st0" d="M43.271,47.288c-0.007-0.01-0.003-0.023-0.011-0.032c-0.019-0.021-0.047-0.021-0.07-0.034
		c-0.85-0.737-1.943-1.199-3.151-1.208c0,0-0.001,0-0.001,0c-0.013,0-0.025-0.004-0.038-0.004c-0.013,0-0.026,0.004-0.039,0.004
		c-0.001,0-0.001,0-0.002,0c-1.208,0.01-2.3,0.472-3.15,1.208c-0.023,0.013-0.052,0.013-0.07,0.035
		c-0.008,0.009-0.005,0.022-0.011,0.032c-0.991,0.897-1.626,2.179-1.626,3.618c0,1.438,0.635,2.721,1.626,3.618
		c0.006,0.01,0.003,0.023,0.011,0.032c0.018,0.021,0.046,0.021,0.069,0.034c0.859,0.745,1.966,1.213,3.191,1.213
		c1.227,0,2.337-0.47,3.198-1.218c0.02-0.012,0.046-0.009,0.063-0.028c0.008-0.009,0.005-0.022,0.011-0.032
		c0.991-0.897,1.626-2.179,1.626-3.618C44.897,49.467,44.262,48.184,43.271,47.288z M42.637,50.659
		c-0.002-0.106,0.004-0.212-0.004-0.318c-0.061-0.754-0.293-1.412-0.584-1.985c0.356-0.165,0.692-0.368,1.002-0.616
		c0.776,0.747,1.265,1.776,1.33,2.92H42.637z M40.246,46.787c0.302,0.28,0.726,0.725,1.103,1.321
		c-0.356,0.115-0.725,0.183-1.103,0.204V46.787z M40.737,46.575c0.717,0.122,1.369,0.419,1.924,0.843
		c-0.264,0.201-0.546,0.37-0.845,0.506C41.458,47.34,41.061,46.891,40.737,46.575z M39.754,46.788v1.523
		c-0.377-0.021-0.746-0.089-1.102-0.204C39.028,47.513,39.453,47.068,39.754,46.788z M38.184,47.924
		c-0.299-0.136-0.581-0.305-0.845-0.506c0.555-0.425,1.207-0.721,1.924-0.843C38.939,46.891,38.542,47.34,38.184,47.924z
		 M39.754,48.803v1.856h-1.9c0.002-0.091-0.004-0.183,0.003-0.274c0.056-0.694,0.277-1.304,0.554-1.836
		C38.842,48.697,39.293,48.78,39.754,48.803z M39.754,51.151v1.856c-0.42,0.021-0.83,0.096-1.226,0.221
		c-0.374-0.695-0.596-1.389-0.659-2.077H39.754z M39.754,53.499v1.433c-0.381-0.422-0.705-0.844-0.972-1.266
		C39.098,53.575,39.422,53.518,39.754,53.499z M39.377,55.247c-0.761-0.109-1.454-0.408-2.038-0.855
		c0.299-0.228,0.619-0.42,0.963-0.563C38.593,54.303,38.953,54.776,39.377,55.247z M40.246,54.932v-1.433
		c0.332,0.019,0.656,0.076,0.972,0.167C40.951,54.088,40.627,54.51,40.246,54.932z M41.698,53.829
		c0.343,0.144,0.664,0.335,0.963,0.563c-0.584,0.447-1.277,0.746-2.038,0.855C41.047,54.776,41.408,54.303,41.698,53.829z
		 M40.246,53.007v-1.856h1.885c-0.062,0.689-0.284,1.382-0.658,2.077C41.076,53.103,40.666,53.028,40.246,53.007z M40.246,50.659
		v-1.856c0.461-0.023,0.913-0.106,1.345-0.254c0.275,0.531,0.495,1.139,0.551,1.832c0.008,0.093,0.002,0.186,0.003,0.279H40.246z
		 M36.95,47.739c0.31,0.248,0.646,0.452,1.002,0.616c-0.291,0.573-0.523,1.231-0.584,1.985c-0.009,0.106-0.002,0.212-0.004,0.318
		H35.62C35.684,49.515,36.174,48.487,36.95,47.739z M35.62,51.151h1.755c0.061,0.75,0.293,1.501,0.688,2.249
		c-0.398,0.172-0.771,0.396-1.113,0.671C36.174,53.323,35.684,52.295,35.62,51.151z M43.05,54.071
		c-0.342-0.274-0.715-0.499-1.113-0.671c0.395-0.749,0.627-1.499,0.688-2.249h1.755C44.316,52.295,43.826,53.323,43.05,54.071z"/>
	<path class="st0" d="M53.952,22.508H42.777c-0.196-1.364-1.36-2.419-2.777-2.419s-2.581,1.055-2.777,2.419H26.048
		c-5.084,0-5.143,5.091-5.143,5.143v18.603c0,5.084,5.091,5.143,5.143,5.143h4.158v16.144c0,1.356,1.103,2.459,2.459,2.459h14.67
		c1.356,0,2.459-1.103,2.459-2.459V51.397h4.158c0.052,0,5.143-0.059,5.143-5.143V27.651C59.095,27.599,59.036,22.508,53.952,22.508
		z M48.81,67.541c0,0.814-0.662,1.475-1.475,1.475h-14.67c-0.814,0-1.475-0.662-1.475-1.475V34.269c0-0.814,0.662-1.475,1.475-1.475
		h14.67c0.814,0,1.475,0.662,1.475,1.475V67.541z M58.111,46.254c0,4.093-3.99,4.158-4.159,4.159h-4.158V34.269
		c0-1.356-1.103-2.459-2.459-2.459h-14.67c-1.356,0-2.459,1.103-2.459,2.459v16.144h-4.158c-0.17,0-4.159-0.047-4.159-4.159V27.651
		c0-0.17,0.047-4.159,4.159-4.159h11.198c0.27,1.273,1.402,2.232,2.754,2.232s2.484-0.959,2.754-2.232h11.198
		c4.093,0,4.158,3.99,4.159,4.159V46.254z"/>
</g>
</svg>
