<?xml version="1.0" encoding="utf-8"?>
<!-- Generator: Adobe Illustrator 23.0.4, SVG Export Plug-In . SVG Version: 6.00 Build 0)  -->
<svg version="1.1" id="Calque_1" xmlns="http://www.w3.org/2000/svg" xmlns:xlink="http://www.w3.org/1999/xlink" x="0px" y="0px"
	 viewBox="0 0 80 80" style="enable-background:new 0 0 80 80;" xml:space="preserve">
<style type="text/css">
	.st0{fill:#FFFFFF;}
	.st1{opacity:0.3;fill:none;stroke:#231F20;stroke-miterlimit:10;}
</style>
<g>
	<path class="st0" d="M67.962,24.494c-0.051-0.122-0.148-0.22-0.271-0.271c-0.061-0.025-0.126-0.038-0.191-0.038h-2.944
		c-0.276,0-0.5,0.224-0.5,0.5s0.224,0.5,0.5,0.5h1.737L25.186,66.293v-1.736c0-0.276-0.224-0.5-0.5-0.5s-0.5,0.224-0.5,0.5V67.5
		c0,0.065,0.013,0.13,0.038,0.191c0.051,0.122,0.148,0.22,0.271,0.271C24.556,67.987,24.62,68,24.686,68h2.944
		c0.276,0,0.5-0.224,0.5-0.5s-0.224-0.5-0.5-0.5h-1.737L67,25.892v1.737c0,0.276,0.224,0.5,0.5,0.5s0.5-0.224,0.5-0.5v-2.944
		C68,24.62,67.987,24.555,67.962,24.494z"/>
	<path class="st0" d="M63.995,20.473l-8.327-8.327c-0.195-0.195-0.512-0.195-0.707,0L43.374,23.733c0,0-0.001,0.001-0.001,0.001
		s-0.001,0.001-0.001,0.001l-14.57,14.57c0,0-0.001,0.001-0.001,0.001s-0.001,0.001-0.001,0.001l-14.57,14.57
		c0,0-0.001,0.001-0.001,0.001s-0.001,0.001-0.001,0.001l-2.081,2.081c-0.195,0.195-0.195,0.512,0,0.707l8.327,8.327
		c0.098,0.098,0.226,0.146,0.354,0.146s0.256-0.049,0.354-0.146L63.995,21.18C64.19,20.985,64.19,20.669,63.995,20.473z
		 M20.827,62.934l-7.62-7.62l1.375-1.375l3.81,3.81c0.098,0.098,0.226,0.146,0.354,0.146s0.256-0.049,0.354-0.146
		c0.195-0.195,0.195-0.512,0-0.707l-3.81-3.81l1.375-1.375l1.728,1.728c0.098,0.098,0.226,0.146,0.354,0.146
		s0.256-0.049,0.354-0.146c0.195-0.195,0.195-0.512,0-0.707l-1.728-1.728l1.375-1.375l1.729,1.729
		c0.098,0.098,0.226,0.146,0.354,0.146s0.256-0.049,0.354-0.146c0.195-0.195,0.195-0.512,0-0.707l-1.729-1.729l1.375-1.375
		l1.728,1.728c0.098,0.098,0.226,0.146,0.354,0.146s0.256-0.049,0.354-0.146c0.195-0.195,0.195-0.512,0-0.707l-1.728-1.728
		l1.374-1.374l3.81,3.81c0.098,0.098,0.226,0.146,0.354,0.146s0.256-0.049,0.354-0.146c0.195-0.195,0.195-0.512,0-0.707l-3.81-3.81
		l1.375-1.375l1.728,1.729c0.098,0.098,0.226,0.146,0.354,0.146s0.256-0.049,0.354-0.146c0.195-0.195,0.195-0.512,0-0.707
		l-1.728-1.729l1.375-1.375l1.728,1.728c0.098,0.098,0.226,0.146,0.354,0.146s0.256-0.049,0.354-0.146
		c0.195-0.195,0.195-0.512,0-0.707l-1.728-1.728l1.375-1.375l1.728,1.728c0.098,0.098,0.226,0.146,0.354,0.146
		s0.256-0.049,0.354-0.146c0.195-0.195,0.195-0.512,0-0.707l-1.728-1.728l1.375-1.375l3.81,3.81
		c0.098,0.098,0.226,0.146,0.354,0.146s0.256-0.049,0.354-0.146c0.195-0.195,0.195-0.512,0-0.707l-3.81-3.81l1.375-1.375
		l1.729,1.729c0.098,0.098,0.226,0.146,0.354,0.146s0.256-0.049,0.354-0.146c0.195-0.195,0.195-0.512,0-0.707l-1.729-1.729
		l1.375-1.375l1.728,1.728c0.098,0.098,0.226,0.146,0.354,0.146s0.256-0.049,0.354-0.146c0.195-0.195,0.195-0.512,0-0.707
		l-1.728-1.728l1.374-1.374l1.729,1.728c0.098,0.098,0.226,0.146,0.354,0.146s0.256-0.049,0.354-0.146
		c0.195-0.195,0.195-0.512,0-0.707l-1.729-1.728l1.375-1.375l3.81,3.81c0.098,0.098,0.226,0.146,0.354,0.146
		s0.256-0.049,0.354-0.146c0.195-0.195,0.195-0.512,0-0.707l-3.81-3.81l1.375-1.375l1.728,1.728
		c0.098,0.098,0.226,0.146,0.354,0.146s0.256-0.049,0.354-0.146c0.195-0.195,0.195-0.512,0-0.707l-1.728-1.728l1.375-1.375
		l1.728,1.728c0.098,0.098,0.226,0.146,0.354,0.146s0.256-0.049,0.354-0.146c0.195-0.195,0.195-0.512,0-0.707l-1.728-1.728
		l1.375-1.375l1.728,1.728c0.098,0.098,0.226,0.146,0.354,0.146s0.256-0.049,0.354-0.146c0.195-0.195,0.195-0.512,0-0.707
		l-1.728-1.728l1.375-1.375l3.81,3.81c0.098,0.098,0.226,0.146,0.354,0.146s0.256-0.049,0.354-0.146
		c0.195-0.195,0.195-0.512,0-0.707l-3.81-3.81l6.718-6.718l7.62,7.62L20.827,62.934z"/>
	<path class="st0" d="M54.961,21.18c0.372,0.373,0.868,0.578,1.395,0.578c0.526,0,1.022-0.205,1.394-0.578
		c0.769-0.769,0.769-2.021,0-2.789c-0.769-0.768-2.02-0.768-2.789,0C54.192,19.16,54.192,20.412,54.961,21.18z"/>
</g>
</svg>
