<?xml version="1.0" encoding="utf-8"?>
<!-- Generator: Adobe Illustrator 23.0.4, SVG Export Plug-In . SVG Version: 6.00 Build 0)  -->
<svg version="1.1" id="Calque_1" xmlns="http://www.w3.org/2000/svg" xmlns:xlink="http://www.w3.org/1999/xlink" x="0px" y="0px"
	 viewBox="0 0 80 80" style="enable-background:new 0 0 80 80;" xml:space="preserve">
<style type="text/css">
	.st0{fill:#FFFFFF;}
	.st1{opacity:0.3;fill:none;stroke:#231F20;stroke-miterlimit:10;}
</style>
<g>
	<path class="st0" d="M37.674,36.909h4.651c0.272,0,0.492-0.22,0.492-0.492c0-0.272-0.22-0.492-0.492-0.492h-4.651
		c-0.272,0-0.492,0.22-0.492,0.492C37.183,36.689,37.403,36.909,37.674,36.909z"/>
	<circle class="st0" cx="40" cy="65.675" r="1.071"/>
	<path class="st0" d="M33.349,13.497c1.837-1.621,4.199-2.514,6.651-2.514s4.814,0.893,6.651,2.514
		c0.094,0.083,0.209,0.123,0.326,0.123c0.136,0,0.272-0.056,0.369-0.166c0.18-0.204,0.16-0.515-0.043-0.694
		C45.285,10.98,42.692,10,40,10s-5.285,0.98-7.302,2.76c-0.204,0.18-0.223,0.491-0.043,0.694
		C32.834,13.658,33.145,13.677,33.349,13.497z"/>
	<path class="st0" d="M45.273,15.935c0.136,0,0.272-0.056,0.369-0.166c0.18-0.204,0.16-0.514-0.043-0.694
		c-1.546-1.364-3.535-2.116-5.599-2.116s-4.053,0.752-5.599,2.116c-0.204,0.18-0.223,0.491-0.043,0.694
		c0.18,0.204,0.49,0.222,0.694,0.043c1.366-1.206,3.123-1.87,4.948-1.87s3.582,0.664,4.948,1.87
		C45.042,15.895,45.157,15.935,45.273,15.935z"/>
	<path class="st0" d="M37.038,17.213c-0.204,0.18-0.223,0.491-0.043,0.694c0.18,0.204,0.491,0.223,0.694,0.043
		c1.276-1.127,3.347-1.127,4.622,0c0.094,0.083,0.209,0.123,0.326,0.123c0.136,0,0.272-0.056,0.369-0.166
		c0.18-0.204,0.16-0.515-0.043-0.694C41.326,15.77,38.674,15.77,37.038,17.213z"/>
	<path class="st0" d="M53.952,22.508H42.777c-0.196-1.364-1.36-2.419-2.777-2.419s-2.581,1.055-2.777,2.419H26.048
		c-5.084,0-5.143,5.091-5.143,5.143v18.603c0,5.084,5.091,5.143,5.143,5.143h4.158V66.72c0,1.809,1.472,3.28,3.28,3.28h13.027
		c1.809,0,3.28-1.472,3.28-3.28V51.397h4.158c0.052,0,5.143-0.059,5.143-5.143V27.651C59.095,27.6,59.036,22.508,53.952,22.508z
		 M48.81,66.72c0,1.266-1.031,2.297-2.297,2.297H33.486c-1.266,0-2.297-1.031-2.297-2.297V35.09c0-1.266,1.031-2.296,2.297-2.296
		h13.027c1.266,0,2.297,1.03,2.297,2.296V66.72z M58.111,46.254c0,4.093-3.99,4.158-4.159,4.159h-4.158V35.09
		c0-1.809-1.472-3.28-3.28-3.28H33.486c-1.809,0-3.28,1.471-3.28,3.28v15.323h-4.158c-0.17,0-4.159-0.047-4.159-4.159V27.651
		c0-0.17,0.047-4.159,4.159-4.159h11.198c0.27,1.273,1.402,2.232,2.754,2.232s2.484-0.959,2.754-2.232h11.198
		c4.093,0,4.158,3.991,4.159,4.159V46.254z"/>
	<path class="st0" d="M43.497,44.559h-1.443c-0.131,0-0.256,0.052-0.348,0.144l-1.717,1.717l-1.718-1.717
		c-0.092-0.092-0.217-0.144-0.348-0.144h-1.421c-0.272,0-0.492,0.22-0.492,0.492v8.263c0,0.272,0.22,0.492,0.492,0.492h0.929v7.772
		c0,0.272,0.22,0.492,0.492,0.492h4.131c0.272,0,0.492-0.22,0.492-0.492v-7.772h0.951c0.272,0,0.492-0.22,0.492-0.492v-8.263
		C43.989,44.779,43.769,44.559,43.497,44.559z M43.006,52.821h-0.951c-0.272,0-0.492,0.22-0.492,0.492v7.772h-1.082v-7.772
		c0-0.272-0.22-0.492-0.492-0.492s-0.492,0.22-0.492,0.492v7.772h-1.083v-7.772c0-0.272-0.22-0.492-0.492-0.492h-0.929v-7.279h0.725
		l1.922,1.921c0.192,0.192,0.503,0.192,0.695,0l1.921-1.921h0.747V52.821z"/>
	<path class="st0" d="M39.989,39.37c-1.41,0-2.558,1.147-2.558,2.558c0,1.41,1.148,2.557,2.558,2.557s2.557-1.147,2.557-2.557
		C42.546,40.517,41.4,39.37,39.989,39.37z M39.989,43.501c-0.868,0-1.574-0.706-1.574-1.573c0-0.868,0.706-1.574,1.574-1.574
		c0.867,0,1.573,0.706,1.573,1.574C41.563,42.795,40.857,43.501,39.989,43.501z"/>
</g>
</svg>
