<?xml version="1.0" encoding="utf-8"?>
<!-- Generator: Adobe Illustrator 23.0.4, SVG Export Plug-In . SVG Version: 6.00 Build 0)  -->
<svg version="1.1" id="Calque_1" xmlns="http://www.w3.org/2000/svg" xmlns:xlink="http://www.w3.org/1999/xlink" x="0px" y="0px"
	 viewBox="0 0 80 80" style="enable-background:new 0 0 80 80;" xml:space="preserve">
<style type="text/css">
	.st0{fill:#FFFFFF;}
	.st1{opacity:0.3;fill:none;stroke:#231F20;stroke-miterlimit:10;}
</style>
<g>
	<path class="st0" d="M48.089,39.523c0-0.276-0.224-0.5-0.5-0.5H32.411c-0.276,0-0.5,0.224-0.5,0.5s0.224,0.5,0.5,0.5h15.179
		C47.866,40.023,48.089,39.8,48.089,39.523z"/>
	<path class="st0" d="M13.437,65.637c0.903,0,1.327,0.409,1.863,0.929c0.586,0.566,1.251,1.209,2.559,1.209
		c1.308,0,1.973-0.643,2.56-1.209c0.537-0.519,0.961-0.929,1.866-0.929c0.903,0,1.327,0.41,1.864,0.929
		c0.586,0.566,1.251,1.209,2.559,1.209c1.309,0,1.974-0.643,2.561-1.209c0.537-0.519,0.96-0.929,1.865-0.929
		c0.905,0,1.329,0.41,1.866,0.929c0.587,0.566,1.252,1.209,2.561,1.209c1.309,0,1.974-0.643,2.561-1.209
		c0.537-0.519,0.961-0.929,1.866-0.929s1.329,0.41,1.866,0.929c0.587,0.566,1.252,1.209,2.561,1.209c1.309,0,1.974-0.643,2.56-1.209
		c0.537-0.519,0.961-0.929,1.866-0.929c0.905,0,1.329,0.41,1.866,0.929c0.586,0.566,1.251,1.209,2.56,1.209
		c1.31,0,1.975-0.643,2.562-1.209c0.538-0.519,0.962-0.929,1.868-0.929c0.906,0,1.331,0.41,1.869,0.929
		c0.588,0.566,1.254,1.209,2.564,1.209s1.976-0.643,2.564-1.209c0.538-0.519,0.963-0.929,1.87-0.929c0.276,0,0.5-0.224,0.5-0.5
		s-0.224-0.5-0.5-0.5c-1.31,0-1.976,0.643-2.564,1.209c-0.538,0.519-0.963,0.929-1.87,0.929s-1.332-0.41-1.87-0.929
		c-0.587-0.566-1.253-1.209-2.563-1.209c-0.799,0-1.357,0.24-1.805,0.556l3.573-17.862c0.026-0.13,0-0.265-0.074-0.375
		s-0.188-0.187-0.318-0.213l-6.719-1.344v-9.551c0-0.276-0.224-0.5-0.5-0.5h-3.764v-3.294c0-0.276-0.224-0.5-0.5-0.5H40
		c-0.276,0-0.5,0.224-0.5,0.5v3.294h-2.616v-3.294c0-0.008-0.004-0.015-0.005-0.023c-0.001-0.033-0.011-0.065-0.02-0.098
		c-0.008-0.033-0.015-0.065-0.029-0.095c-0.003-0.007-0.003-0.015-0.007-0.022l-1.883-3.466c0.764-1.309,1.181-2.797,1.184-4.353
		c0.006-2.327-0.896-4.518-2.537-6.166c-0.195-0.197-0.513-0.196-0.707-0.002l-2.72,2.708l-4.668-0.945
		c-0.019-0.588-0.246-1.171-0.694-1.619c-0.905-0.906-2.484-0.906-3.39,0c-0.935,0.935-0.935,2.456,0,3.391
		c0.451,0.451,1.04,0.679,1.633,0.694l0.919,4.651l-2.72,2.708c-0.094,0.094-0.147,0.221-0.147,0.354s0.052,0.26,0.146,0.354
		c1.642,1.649,3.828,2.561,6.155,2.565c0.007,0.001,0.014,0.001,0.021,0.001c1.49,0,2.92-0.376,4.19-1.076l0.485,0.615v3.12h-3.942
		c-0.276,0-0.5,0.224-0.5,0.5v9.551l-6.719,1.344c-0.13,0.026-0.244,0.103-0.318,0.213s-0.1,0.245-0.074,0.375l3.576,17.879
		c-0.451-0.324-1.015-0.572-1.828-0.572c-1.309,0-1.974,0.643-2.561,1.209c-0.537,0.519-0.96,0.929-1.865,0.929
		c-0.903,0-1.327-0.409-1.863-0.929c-0.586-0.566-1.251-1.209-2.559-1.209c-0.276,0-0.5,0.224-0.5,0.5S13.161,65.637,13.437,65.637z
		 M40.5,32.554h6.589v2.676H40.5V32.554z M54.688,66.107c-0.01,0.048-0.004,0.095,0,0.141c-0.374,0.31-0.774,0.526-1.423,0.526
		c-0.904,0-1.329-0.41-1.866-0.929c-0.586-0.566-1.252-1.209-2.561-1.209s-1.974,0.643-2.56,1.209
		c-0.537,0.519-0.961,0.929-1.866,0.929c-0.905,0-1.329-0.41-1.867-0.929c-0.504-0.487-1.069-1.027-2.047-1.17V44.08
		c0-0.012-0.006-0.022-0.007-0.034l17.892,3.579L54.688,66.107z M27.415,23.269l-2.296-2.307c0.079-0.123,0.148-0.252,0.202-0.385
		l3.988,0.807L27.415,23.269z M24.026,21.877c0.135-0.056,0.265-0.123,0.39-0.205l2.291,2.302l-1.894,1.885L24.026,21.877z
		 M27.413,31.688c-0.006,0-0.012,0-0.018,0c-1.893-0.005-3.679-0.686-5.084-1.929L33.221,18.9c1.236,1.411,1.909,3.201,1.904,5.093
		c-0.005,2.061-0.812,3.995-2.271,5.448C31.398,30.89,29.467,31.688,27.413,31.688z M33.559,30.15
		c0.274-0.273,0.52-0.565,0.752-0.866l1.233,2.269h-2.712l-0.379-0.48C32.841,30.796,33.214,30.493,33.559,30.15z M33.089,32.554
		h2.795v2.794h-2.795V32.554z M28.647,36.347h3.942h3.795h14.969v8.851l-11.255-2.251c-0.064-0.014-0.132-0.014-0.196,0
		l-11.255,2.251V36.347z M39.507,44.046c-0.001,0.012-0.007,0.022-0.007,0.034v20.59c-0.996,0.137-1.566,0.684-2.074,1.175
		c-0.537,0.519-0.961,0.929-1.866,0.929s-1.329-0.41-1.867-0.929c-0.587-0.566-1.252-1.209-2.561-1.209
		c-1.308,0-1.973,0.643-2.56,1.209c-0.537,0.519-0.961,0.929-1.866,0.929c-0.634,0-1.029-0.208-1.396-0.508
		c0.006-0.052,0.011-0.105,0-0.159l-3.697-18.482L39.507,44.046z"/>
	<path class="st0" d="M66.563,68.43c-1.31,0-1.976,0.643-2.564,1.21c-0.538,0.519-0.963,0.929-1.87,0.929s-1.332-0.41-1.87-0.93
		c-0.587-0.566-1.253-1.209-2.563-1.209c-1.31,0-1.975,0.643-2.562,1.21c-0.538,0.519-0.962,0.929-1.868,0.929
		c-0.904,0-1.329-0.41-1.865-0.929c-0.587-0.567-1.252-1.21-2.561-1.21c-1.309,0-1.974,0.643-2.561,1.21
		c-0.537,0.519-0.961,0.929-1.865,0.929c-0.905,0-1.329-0.41-1.867-0.929c-0.586-0.567-1.252-1.21-2.561-1.21
		s-1.974,0.643-2.561,1.21c-0.537,0.519-0.961,0.929-1.866,0.929s-1.329-0.41-1.867-0.929c-0.586-0.567-1.252-1.21-2.561-1.21
		c-1.308,0-1.973,0.643-2.56,1.21c-0.537,0.519-0.961,0.929-1.865,0.929c-0.903,0-1.327-0.41-1.864-0.929
		c-0.586-0.567-1.251-1.21-2.559-1.21c-1.309,0-1.974,0.643-2.561,1.21c-0.537,0.519-0.961,0.929-1.865,0.929
		c-0.903,0-1.327-0.41-1.863-0.929c-0.586-0.567-1.251-1.21-2.559-1.21c-0.276,0-0.5,0.224-0.5,0.5s0.224,0.5,0.5,0.5
		c0.903,0,1.327,0.41,1.863,0.929c0.586,0.567,1.251,1.21,2.559,1.21c1.308,0,1.973-0.643,2.56-1.21
		c0.537-0.519,0.961-0.929,1.865-0.929c0.903,0,1.327,0.41,1.864,0.929c0.586,0.567,1.251,1.21,2.559,1.21
		c1.309,0,1.974-0.643,2.561-1.21c0.537-0.519,0.961-0.929,1.865-0.929c0.905,0,1.329,0.41,1.866,0.929
		c0.587,0.567,1.252,1.21,2.562,1.21c1.309,0,1.974-0.643,2.561-1.21c0.537-0.519,0.961-0.929,1.866-0.929s1.329,0.41,1.866,0.929
		c0.587,0.567,1.252,1.21,2.562,1.21c1.309,0,1.974-0.643,2.561-1.21c0.537-0.519,0.961-0.929,1.865-0.929
		c0.905,0,1.329,0.41,1.866,0.929c0.587,0.567,1.252,1.21,2.561,1.21c1.31,0,1.975-0.643,2.562-1.21
		c0.538-0.519,0.962-0.929,1.868-0.929c0.906,0,1.331,0.41,1.869,0.929c0.587,0.567,1.253,1.21,2.564,1.21
		c1.31,0,1.976-0.643,2.564-1.21c0.538-0.519,0.963-0.929,1.87-0.929c0.276,0,0.5-0.224,0.5-0.5S66.839,68.43,66.563,68.43z"/>
	<path class="st0" d="M13.406,18.549c0.011,0.001,0.021,0.001,0.032,0.001c0.262,0,0.482-0.204,0.499-0.469
		c0.123-1.971,0.96-3.825,2.358-5.224c1.398-1.397,3.253-2.235,5.224-2.358c0.275-0.018,0.485-0.255,0.468-0.53
		s-0.25-0.494-0.53-0.468c-2.214,0.138-4.298,1.079-5.868,2.649s-2.511,3.654-2.649,5.868C12.921,18.294,13.13,18.531,13.406,18.549
		z"/>
	<path class="st0" d="M17.294,13.857c-1.208,1.207-1.932,2.811-2.038,4.515c-0.017,0.275,0.192,0.513,0.468,0.53
		c0.011,0.001,0.021,0.001,0.032,0.001c0.262,0,0.482-0.204,0.499-0.469c0.091-1.461,0.711-2.835,1.747-3.87
		c1.036-1.036,2.41-1.656,3.87-1.747c0.276-0.017,0.485-0.254,0.468-0.53c-0.017-0.274-0.257-0.479-0.53-0.468
		C20.106,11.925,18.502,12.648,17.294,13.857z"/>
	<path class="st0" d="M19.103,15.666c-0.647,0.646-1.035,1.506-1.092,2.418c-0.017,0.275,0.192,0.513,0.468,0.53
		c0.011,0.001,0.021,0.001,0.032,0.001c0.262,0,0.482-0.204,0.499-0.469c0.042-0.669,0.326-1.299,0.801-1.773
		c0.475-0.475,1.105-0.759,1.774-0.801c0.276-0.018,0.485-0.255,0.468-0.53s-0.263-0.492-0.53-0.468
		C20.609,14.632,19.75,15.019,19.103,15.666z"/>
</g>
</svg>
