<?xml version="1.0" encoding="utf-8"?>
<!-- Generator: Adobe Illustrator 23.0.4, SVG Export Plug-In . SVG Version: 6.00 Build 0)  -->
<svg version="1.1" id="Calque_1" xmlns="http://www.w3.org/2000/svg" xmlns:xlink="http://www.w3.org/1999/xlink" x="0px" y="0px"
	 viewBox="0 0 80 80" style="enable-background:new 0 0 80 80;" xml:space="preserve">
<style type="text/css">
	.st0{fill:#FFFFFF;}
	.st1{opacity:0.3;fill:none;stroke:#231F20;stroke-miterlimit:10;}
</style>
<g>
	<path class="st0" d="M59.172,55.945c-1.3,0-2.357,1.058-2.357,2.357s1.058,2.357,2.357,2.357s2.357-1.058,2.357-2.357
		S60.472,55.945,59.172,55.945z M59.172,59.66c-0.749,0-1.357-0.609-1.357-1.357s0.609-1.357,1.357-1.357s1.357,0.609,1.357,1.357
		S59.921,59.66,59.172,59.66z"/>
	<path class="st0" d="M44.254,22.685c0.011,0.001,0.021,0.001,0.032,0.001c0.262,0,0.482-0.204,0.499-0.469
		c0.091-1.454,0.708-2.823,1.74-3.854c1.031-1.031,2.4-1.649,3.854-1.74c0.275-0.018,0.485-0.255,0.468-0.53
		c-0.018-0.274-0.243-0.503-0.53-0.468c-1.697,0.105-3.294,0.827-4.498,2.031c-1.204,1.203-1.925,2.8-2.031,4.498
		C43.77,22.43,43.979,22.668,44.254,22.685z"/>
	<path class="st0" d="M47.103,18.942c-0.931,0.931-1.489,2.166-1.571,3.479c-0.017,0.275,0.192,0.513,0.468,0.53
		c0.011,0.001,0.021,0.001,0.032,0.001c0.262,0,0.482-0.204,0.499-0.469c0.067-1.069,0.521-2.076,1.28-2.834
		c0.758-0.759,1.765-1.213,2.834-1.28c0.276-0.018,0.485-0.255,0.468-0.53c-0.018-0.276-0.257-0.488-0.53-0.468
		C49.268,17.454,48.033,18.012,47.103,18.942z"/>
	<path class="st0" d="M48.464,20.304c-0.509,0.51-0.813,1.185-0.858,1.9c-0.017,0.276,0.192,0.513,0.468,0.53
		c0.01,0.001,0.021,0.001,0.031,0.001c0.262,0,0.482-0.204,0.499-0.469c0.029-0.474,0.231-0.919,0.567-1.256
		c0.337-0.336,0.783-0.537,1.255-0.566c0.275-0.017,0.485-0.254,0.468-0.529c-0.017-0.275-0.244-0.492-0.53-0.469
		C49.649,19.49,48.974,19.795,48.464,20.304z"/>
	<path class="st0" d="M67.3,35.087h-5.237v-2.357c0-0.008-0.004-0.015-0.005-0.023c-0.001-0.033-0.011-0.065-0.02-0.098
		c-0.008-0.033-0.015-0.065-0.029-0.095c-0.003-0.007-0.003-0.015-0.007-0.022l-1.384-2.547c0.564-0.99,0.871-2.111,0.873-3.281
		c0.004-1.785-0.687-3.465-1.946-4.729c-0.195-0.197-0.512-0.197-0.707-0.002l-2.001,1.992l-3.361-0.68
		c-0.036-0.439-0.213-0.869-0.548-1.203c-0.752-0.752-1.976-0.753-2.728,0c-0.751,0.751-0.751,1.975,0,2.728
		c0.338,0.338,0.771,0.515,1.213,0.549l0.661,3.347l-2.001,1.992c-0.196,0.195-0.197,0.512-0.002,0.707
		c1.259,1.266,2.936,1.965,4.722,1.969c0.005,0,0.01,0,0.016,0c1.107,0,2.173-0.268,3.125-0.772l0.273,0.345v2.183H31.118
		c-0.854,0-1.657,0.333-2.262,0.937l-10.555,10.55l-6.613,2.205C10.379,49.215,9.5,50.434,9.5,51.813v3.931
		c0,1.765,1.436,3.2,3.2,3.2h2.833c0.322,3.048,2.906,5.431,6.038,5.431s5.716-2.383,6.038-5.431h25.526
		c0.322,3.048,2.906,5.431,6.038,5.431c3.131,0,5.716-2.383,6.038-5.431H70c0.276,0,0.5-0.224,0.5-0.5v-5.715v-5.714v-8.729
		C70.5,36.522,69.064,35.087,67.3,35.087z M54.81,25.941l-1.578-1.585c0.024-0.042,0.046-0.084,0.067-0.127l2.686,0.543
		L54.81,25.941z M52.397,25.134c0.044-0.021,0.088-0.044,0.131-0.069l1.574,1.581l-1.174,1.169L52.397,25.134z M54.795,32.331
		c-1.35-0.003-2.627-0.474-3.647-1.335l4.011-3.992c0.001-0.001,0.002-0.001,0.002-0.001s0.001-0.001,0.001-0.002l4.011-3.992
		c0.856,1.022,1.321,2.302,1.318,3.652c-0.003,1.518-0.598,2.943-1.674,4.015c-1.073,1.068-2.496,1.655-4.009,1.655
		C54.804,32.331,54.799,32.331,54.795,32.331z M59.523,31.385c0.164-0.163,0.318-0.334,0.463-0.511l0.737,1.356h-1.774l-0.169-0.214
		C59.039,31.823,59.29,31.617,59.523,31.385z M59.206,33.229h1.857v1.857h-1.857V33.229z M12.004,49.727l0.353-0.118v2.62H10.5
		v-0.416C10.5,50.865,11.104,50.027,12.004,49.727z M10.5,55.744v-2.515h2.357c0.276,0,0.5-0.224,0.5-0.5v-3.453l5.373-1.791
		c0.074-0.024,0.141-0.066,0.195-0.121L29.563,36.73c0.416-0.415,0.968-0.644,1.555-0.644h6.971v21.857H27.625
		c-0.187-3.182-2.827-5.715-6.055-5.715s-5.867,2.533-6.055,5.715H12.7C11.487,57.944,10.5,56.957,10.5,55.744z M21.57,63.375
		c-2.797,0-5.073-2.275-5.073-5.072c0-2.798,2.275-5.073,5.073-5.073s5.073,2.275,5.073,5.073
		C26.643,61.099,24.368,63.375,21.57,63.375z M59.172,63.375c-2.797,0-5.073-2.275-5.073-5.072c0-2.798,2.275-5.073,5.073-5.073
		c2.797,0,5.072,2.275,5.072,5.073C64.245,61.099,61.969,63.375,59.172,63.375z M65.226,57.944
		c-0.187-3.182-2.827-5.715-6.054-5.715c-3.228,0-5.867,2.533-6.055,5.715H39.089V36.087h19.617h2.857H67.3
		c1.213,0,2.2,0.987,2.2,2.2v8.229h-2.357c-0.276,0-0.5,0.224-0.5,0.5v5.714c0,0.276,0.224,0.5,0.5,0.5H69.5v4.715H65.226z
		 M69.5,52.229h-1.857v-4.714H69.5V52.229z"/>
	<path class="st0" d="M21.57,55.945c-1.3,0-2.357,1.058-2.357,2.357s1.058,2.357,2.357,2.357s2.357-1.058,2.357-2.357
		S22.87,55.945,21.57,55.945z M21.57,59.66c-0.749,0-1.357-0.609-1.357-1.357s0.609-1.357,1.357-1.357s1.357,0.609,1.357,1.357
		S22.319,59.66,21.57,59.66z"/>
	<path class="st0" d="M23.167,47.515c0,0,0.001,0,0.002,0l12.545-0.005c0.276,0,0.5-0.224,0.5-0.5v-8.571c0-0.276-0.224-0.5-0.5-0.5
		h-2.857c-0.855,0-1.659,0.333-2.263,0.938l-7.781,7.785c-0.144,0.144-0.186,0.359-0.108,0.546
		C22.783,47.394,22.965,47.515,23.167,47.515z M31.301,39.584c0.416-0.416,0.968-0.645,1.556-0.645h2.357v7.571H24.378
		L31.301,39.584z"/>
	<path class="st0" d="M35.714,49.373h-2.857c-0.276,0-0.5,0.224-0.5,0.5s0.224,0.5,0.5,0.5h2.857c0.276,0,0.5-0.224,0.5-0.5
		S35.991,49.373,35.714,49.373z"/>
</g>
</svg>
