<?xml version="1.0" encoding="utf-8"?>
<!-- Generator: Adobe Illustrator 23.0.4, SVG Export Plug-In . SVG Version: 6.00 Build 0)  -->
<svg version="1.1" id="Calque_1" xmlns="http://www.w3.org/2000/svg" xmlns:xlink="http://www.w3.org/1999/xlink" x="0px" y="0px"
	 viewBox="0 0 80 80" style="enable-background:new 0 0 80 80;" xml:space="preserve">
<style type="text/css">
	.st0{fill:#FFFFFF;}
	.st1{opacity:0.3;fill:none;stroke:#231F20;stroke-miterlimit:10;}
</style>
<g>
	<path class="st0" d="M34.968,40l8.156-8.156c0.094-0.094,0.146-0.221,0.146-0.354s-0.053-0.26-0.146-0.354l-8.51-8.51
		c-0.143-0.143-0.358-0.184-0.545-0.108c-0.187,0.077-0.309,0.26-0.309,0.462v15.812l-7.656-7.656c-0.195-0.195-0.512-0.195-0.707,0
		s-0.195,0.512,0,0.707L33.553,40l-8.156,8.157c-0.195,0.195-0.195,0.512,0,0.707s0.512,0.195,0.707,0l7.656-7.656V57.02
		c0,0.202,0.122,0.385,0.309,0.462c0.062,0.025,0.127,0.038,0.191,0.038c0.13,0,0.258-0.051,0.354-0.146l8.51-8.51
		c0.094-0.094,0.146-0.221,0.146-0.354s-0.053-0.26-0.146-0.354L34.968,40z M34.76,24.187l7.303,7.303l-7.303,7.304V24.187z
		 M34.76,55.813V41.207l7.303,7.304L34.76,55.813z"/>
	<path class="st0" d="M43.526,38.308c-0.933,0-1.692,0.759-1.692,1.691c0,0.934,0.759,1.692,1.692,1.692s1.692-0.759,1.692-1.692
		C45.219,39.067,44.459,38.308,43.526,38.308z"/>
	<path class="st0" d="M51.104,32.177c-0.207,0.183-0.227,0.499-0.044,0.706c1.735,1.966,2.69,4.493,2.69,7.116
		c0,2.624-0.955,5.151-2.69,7.117c-0.183,0.207-0.163,0.523,0.044,0.706c0.095,0.084,0.213,0.125,0.331,0.125
		c0.138,0,0.276-0.058,0.375-0.169c1.896-2.148,2.94-4.911,2.94-7.779c0-2.867-1.044-5.63-2.94-7.778
		C51.626,32.016,51.311,31.996,51.104,32.177z"/>
	<path class="st0" d="M49.338,34.039c-0.183-0.205-0.499-0.227-0.706-0.044c-0.208,0.183-0.227,0.499-0.044,0.706
		c1.292,1.464,2.003,3.346,2.003,5.299c0,1.954-0.711,3.836-2.003,5.299c-0.183,0.207-0.163,0.523,0.044,0.706
		c0.095,0.084,0.213,0.125,0.331,0.125c0.138,0,0.276-0.058,0.375-0.169c1.453-1.646,2.253-3.763,2.253-5.961
		C51.591,37.802,50.791,35.686,49.338,34.039z"/>
	<path class="st0" d="M46.349,36.81c-0.207,0.183-0.227,0.499-0.044,0.706c0.605,0.686,0.939,1.567,0.939,2.483
		s-0.333,1.799-0.939,2.484c-0.183,0.207-0.163,0.523,0.044,0.706c0.095,0.084,0.213,0.125,0.331,0.125
		c0.138,0,0.276-0.058,0.375-0.169c0.767-0.869,1.189-1.986,1.189-3.146s-0.422-2.276-1.189-3.146
		C46.873,36.649,46.557,36.627,46.349,36.81z"/>
	<path class="st0" d="M57,12H23c-4.687,0-8.5,3.813-8.5,8.5v39c0,4.687,3.813,8.5,8.5,8.5h34c4.687,0,8.5-3.813,8.5-8.5v-39
		C65.5,15.813,61.687,12,57,12z M64.5,59.5c0,4.136-3.364,7.5-7.5,7.5H23c-4.136,0-7.5-3.364-7.5-7.5v-39c0-4.136,3.364-7.5,7.5-7.5
		h34c4.136,0,7.5,3.364,7.5,7.5V59.5z"/>
</g>
</svg>
