<?xml version="1.0" encoding="utf-8"?>
<!-- Generator: Adobe Illustrator 23.0.4, SVG Export Plug-In . SVG Version: 6.00 Build 0)  -->
<svg version="1.1" id="Calque_1" xmlns="http://www.w3.org/2000/svg" xmlns:xlink="http://www.w3.org/1999/xlink" x="0px" y="0px"
	 viewBox="0 0 80 80" style="enable-background:new 0 0 80 80;" xml:space="preserve">
<style type="text/css">
	.st0{fill:#FFFFFF;}
	.st1{opacity:0.3;fill:none;stroke:#231F20;stroke-miterlimit:10;}
</style>
<g>
	<path class="st0" d="M54.736,40.872c-7.314,0-13.264,5.877-13.264,13.101c0,0.276,0.224,0.5,0.5,0.5s0.5-0.224,0.5-0.5
		c0-6.672,5.501-12.101,12.264-12.101C61.499,41.872,67,47.3,67,53.972s-5.501,12.101-12.264,12.101
		c-2.324,0-4.539-0.633-6.479-1.83l2.374-0.429c0.272-0.05,0.452-0.31,0.403-0.581c-0.049-0.272-0.312-0.447-0.581-0.403
		l-3.578,0.647c-0.029,0.005-0.053,0.022-0.08,0.032c-0.031,0.011-0.062,0.018-0.09,0.035c-0.028,0.017-0.049,0.042-0.073,0.064
		c-0.022,0.02-0.048,0.034-0.067,0.058c-0.003,0.004-0.003,0.008-0.006,0.012c-0.002,0.003-0.005,0.004-0.007,0.007
		c-0.016,0.022-0.02,0.049-0.032,0.074c-0.016,0.033-0.035,0.064-0.042,0.099c-0.005,0.024-0.002,0.048-0.004,0.073
		c-0.003,0.041-0.008,0.08-0.002,0.12c0.001,0.004-0.001,0.007,0,0.011l0.656,3.531C47.174,67.832,47.384,68,47.621,68
		c0.03,0,0.061-0.003,0.092-0.009c0.271-0.05,0.451-0.312,0.4-0.583l-0.436-2.347c2.11,1.317,4.526,2.012,7.06,2.012
		C62.05,67.073,68,61.196,68,53.972S62.05,40.872,54.736,40.872z"/>
	<path class="st0" d="M36.873,35.07c0-0.466-0.183-0.903-0.516-1.231c-0.56-0.552-1.404-0.644-2.067-0.291l-0.818-0.807l2.34-2.31
		c0.095-0.094,0.149-0.222,0.149-0.355s-0.054-0.262-0.149-0.355c-1.562-1.543-4.024-1.635-5.717-0.312l-0.168-0.166l2.272-2.242
		l0.147-0.144c0.048-0.047,0.086-0.103,0.111-0.164c0.005-0.011,0.003-0.024,0.007-0.036c0.017-0.05,0.031-0.101,0.032-0.155
		c0,0,0-0.001,0-0.001c0,0,0-0.001,0-0.001c0-0.031-0.012-0.059-0.018-0.088c-0.006-0.035-0.007-0.072-0.021-0.104
		c-0.005-0.011-0.014-0.019-0.02-0.029c-0.024-0.048-0.051-0.094-0.089-0.132l-0.001-0.001l0,0l-0.002-0.002l-1.349-1.338
		c-0.006-0.006-0.014-0.008-0.02-0.013l-3.587-3.541l1.061-1.048l1.421,1.403c0.097,0.097,0.224,0.145,0.351,0.145
		s0.254-0.048,0.351-0.145l5.317-5.249c0.095-0.094,0.149-0.222,0.149-0.355c0-0.134-0.054-0.262-0.149-0.355l-3.544-3.5
		c-0.195-0.193-0.508-0.193-0.703,0l-5.317,5.249c-0.095,0.094-0.149,0.222-0.149,0.355s0.054,0.262,0.149,0.355l1.412,1.395
		l-1.061,1.048l-3.194-3.153c-0.194-0.193-0.508-0.193-0.702,0l-1.421,1.403l-0.738-0.73c-0.194-0.193-0.508-0.192-0.702-0.001
		l-1.775,1.747c-0.096,0.094-0.149,0.222-0.149,0.355s0.053,0.263,0.148,0.356l0.732,0.724l-1.412,1.394
		c-0.095,0.094-0.149,0.222-0.149,0.355s0.054,0.262,0.149,0.355l3.185,3.144l-1.062,1.047l-1.421-1.403
		c-0.194-0.193-0.508-0.193-0.702,0l-5.317,5.249C12.054,31.485,12,31.613,12,31.747s0.054,0.262,0.149,0.355l3.545,3.499
		c0.097,0.097,0.224,0.145,0.351,0.145s0.254-0.048,0.351-0.145l5.317-5.249c0.095-0.094,0.149-0.222,0.149-0.355
		s-0.054-0.262-0.149-0.355L20.3,28.247l1.061-1.047l4.966,4.903c0.097,0.097,0.224,0.145,0.351,0.145s0.254-0.048,0.351-0.145
		l2.187-2.158l0.168,0.166c-0.6,0.75-0.942,1.661-0.942,2.631c0,1.142,0.45,2.215,1.267,3.021c0.098,0.097,0.225,0.145,0.352,0.145
		s0.254-0.048,0.351-0.145l2.35-2.32l0.819,0.809c-0.135,0.25-0.215,0.527-0.215,0.819c0,0.465,0.183,0.901,0.516,1.229
		c0.341,0.337,0.79,0.505,1.238,0.505c0.448,0,0.896-0.169,1.237-0.505C36.689,35.971,36.873,35.535,36.873,35.07z M20.272,19.124
		l0.378,0.374l-1.062,1.046L19.21,20.17L20.272,19.124z M31.283,26.497l-4.62,4.529l-0.641-0.636l4.618-4.529L31.283,26.497z
		 M31.996,13.202L34.829,16l-4.605,4.547l-1.416-1.398c0,0,0-0.001-0.001-0.001c0,0-0.001-0.001-0.002-0.001l-1.415-1.397
		L31.996,13.202z M21.539,20.025l0.173-0.17c0,0,0.001-0.001,0.001-0.002l1.421-1.403l3.186,3.146
		c0.001,0.001,0.001,0.003,0.002,0.004c0.001,0.001,0.003,0.001,0.004,0.003l3.601,3.556l-4.621,4.531l-3.589-3.543c0,0,0,0,0-0.001
		s0,0-0.001,0l-3.188-3.148L21.539,20.025z M16.045,34.544l-2.833-2.797l4.605-4.547l2.833,2.797L16.045,34.544z M30.086,34.678
		c-0.418-0.559-0.645-1.23-0.645-1.938c0-0.872,0.345-1.692,0.97-2.311c0.001-0.001,0.003-0.002,0.005-0.004c0,0,0,0,0,0l0,0
		c0.647-0.636,1.496-0.955,2.345-0.955c0.69,0,1.38,0.21,1.961,0.631L30.086,34.678z"/>
	<path class="st0" d="M41.536,35.624c-0.277-0.039-0.513,0.192-0.53,0.468c-0.078,1.241-0.613,2.41-1.506,3.292
		c-0.894,0.883-2.081,1.412-3.343,1.489c-0.275,0.017-0.485,0.254-0.468,0.529c0.016,0.266,0.236,0.47,0.499,0.47
		c0.01,0,0.021,0,0.031-0.001c1.503-0.093,2.918-0.724,3.984-1.776c1.068-1.054,1.708-2.453,1.802-3.94
		C42.021,35.879,41.812,35.641,41.536,35.624z"/>
	<path class="st0" d="M35.984,40.359c1.166-0.071,2.263-0.56,3.09-1.377c0.829-0.817,1.325-1.903,1.398-3.059
		c0.018-0.275-0.192-0.513-0.467-0.53c-0.27-0.031-0.514,0.191-0.531,0.468c-0.058,0.909-0.449,1.765-1.102,2.41
		c-0.655,0.646-1.524,1.033-2.448,1.09c-0.276,0.017-0.486,0.254-0.469,0.529c0.016,0.266,0.236,0.47,0.499,0.47
		C35.964,40.36,35.974,40.36,35.984,40.359z"/>
	<path class="st0" d="M35.645,38.095c0.017,0.265,0.236,0.469,0.499,0.469c0.01,0,0.021,0,0.031-0.001
		c0.643-0.04,1.249-0.31,1.705-0.76c0.458-0.452,0.733-1.054,0.773-1.692c0.017-0.275-0.192-0.513-0.468-0.53
		c-0.27-0.021-0.513,0.191-0.53,0.468c-0.025,0.394-0.194,0.764-0.477,1.042c-0.285,0.281-0.663,0.449-1.064,0.475
		C35.837,37.582,35.627,37.819,35.645,38.095z"/>
	<path class="st0" d="M48.236,60.446c0.049,0.05,0.113,0.074,0.178,0.074c0.063,0,0.127-0.024,0.176-0.072l5.461-5.391
		c0.203,0.127,0.429,0.219,0.685,0.219c0.531,0,0.985-0.318,1.192-0.77h4.666c0.276,0,0.5-0.224,0.5-0.5s-0.224-0.5-0.5-0.5h-4.639
		c-0.13-0.333-0.387-0.601-0.718-0.737v-7.667c0-0.276-0.224-0.5-0.5-0.5s-0.5,0.224-0.5,0.5v7.667
		c-0.477,0.196-0.814,0.66-0.814,1.203c0,0.282,0.11,0.529,0.263,0.742l-5.447,5.378C48.14,60.189,48.139,60.347,48.236,60.446z
		 M54.736,54.276c-0.173,0-0.314-0.137-0.314-0.304s0.141-0.304,0.314-0.304c0.173,0,0.313,0.137,0.313,0.304
		S54.909,54.276,54.736,54.276z"/>
</g>
</svg>
