<?xml version="1.0" encoding="utf-8"?>
<!-- Generator: Adobe Illustrator 23.0.4, SVG Export Plug-In . SVG Version: 6.00 Build 0)  -->
<svg version="1.1" id="Calque_1" xmlns="http://www.w3.org/2000/svg" xmlns:xlink="http://www.w3.org/1999/xlink" x="0px" y="0px"
	 viewBox="0 0 80 80" style="enable-background:new 0 0 80 80;" xml:space="preserve">
<style type="text/css">
	.st0{fill:#FFFFFF;}
	.st1{opacity:0.3;fill:none;stroke:#231F20;stroke-miterlimit:10;}
</style>
<g>
	<path class="st0" d="M68.335,62.013c-0.094-0.093-0.22-0.145-0.352-0.145c-0.001,0-0.003,0-0.005,0l-4.474,0.042v-4.604
		c0-0.067-0.014-0.132-0.039-0.192c-0.025-0.061-0.062-0.116-0.108-0.162l-4.831-4.831V47.35c0-0.008-0.004-0.015-0.005-0.023
		c-0.001-0.033-0.011-0.065-0.02-0.098c-0.008-0.033-0.015-0.065-0.029-0.095c-0.003-0.007-0.003-0.015-0.007-0.022l-2.853-5.251
		c0.111-0.185,0.228-0.364,0.334-0.554c2.651-4.765,3.289-10.277,1.794-15.521c-1.494-5.244-4.941-9.592-9.706-12.243
		c-0.243-0.136-0.546-0.047-0.68,0.193l-4.712,8.467l-14.697,1.181c-0.196-0.77-0.688-1.462-1.435-1.878
		c-0.698-0.389-1.505-0.481-2.273-0.264c-0.768,0.219-1.405,0.724-1.793,1.422c-0.388,0.697-0.481,1.505-0.263,2.272
		s0.723,1.404,1.421,1.792c0.451,0.251,0.948,0.379,1.45,0.379c0.274,0,0.551-0.038,0.823-0.115
		c0.028-0.008,0.053-0.023,0.081-0.032l6.742,13.111l-4.712,8.466c-0.134,0.241-0.047,0.546,0.194,0.68
		c3.136,1.745,6.536,2.573,9.893,2.573c5.011,0,9.919-1.852,13.696-5.249l0.778,0.983v4.597l-4.831,4.831
		c-0.046,0.046-0.083,0.101-0.108,0.162c-0.025,0.06-0.039,0.126-0.039,0.192v4.754l-4.484,0.042
		c-0.274,0.003-0.495,0.226-0.495,0.5V67.5c0,0.134,0.053,0.262,0.148,0.355C42.832,67.948,42.958,68,43.09,68
		c0.001,0,0.003,0,0.005,0l24.893-0.235c0.274-0.003,0.495-0.226,0.495-0.5v-4.896C68.483,62.235,68.43,62.107,68.335,62.013z
		 M57.526,51.829h-3.979V47.85h3.979V51.829z M53.254,52.829h4.564l3.979,3.979H49.276L53.254,52.829z M62.504,57.807v3.979H48.569
		v-3.979H62.504z M37.914,30.699l-10.046-5.591c0.085-0.24,0.14-0.484,0.161-0.73l14.03-1.127L37.914,30.699z M26.847,26.503
		c0.2-0.15,0.379-0.324,0.536-0.521l10.044,5.59l-4.145,7.448L26.847,26.503z M29.107,48.581l18.876-33.917
		c4.306,2.54,7.421,6.568,8.796,11.396c1.421,4.987,0.815,10.229-1.707,14.761C49.947,50.028,38.388,53.443,29.107,48.581z
		 M55,42.828l2.185,4.023H53.29l-0.788-0.997C53.418,44.942,54.254,43.93,55,42.828z M67.483,66.769L43.59,66.995v-3.896
		l23.893-0.226V66.769z"/>
	<path class="st0" d="M19.708,12.971c0.26-0.093,0.396-0.378,0.304-0.639c-0.091-0.26-0.375-0.396-0.638-0.305
		c-2.708,0.959-4.97,2.87-6.368,5.382c-1.398,2.513-1.831,5.441-1.217,8.248c0.051,0.234,0.258,0.394,0.488,0.394
		c0.035,0,0.071-0.004,0.107-0.012c0.27-0.059,0.44-0.325,0.381-0.595c-0.561-2.569-0.166-5.25,1.114-7.549
		C15.16,15.597,17.229,13.848,19.708,12.971z"/>
	<path class="st0" d="M21.292,15.13c-0.092-0.26-0.376-0.396-0.638-0.305c-2.076,0.734-3.809,2.198-4.88,4.124
		c-1.071,1.925-1.402,4.17-0.932,6.32c0.051,0.234,0.258,0.394,0.488,0.394c0.035,0,0.071-0.004,0.107-0.012
		c0.27-0.059,0.441-0.325,0.382-0.595c-0.417-1.913-0.123-3.909,0.83-5.621c0.953-1.713,2.494-3.015,4.339-3.667
		C21.248,15.676,21.384,15.391,21.292,15.13z"/>
	<path class="st0" d="M21.282,18.406c-1.095,0.387-2.009,1.159-2.575,2.176c-0.565,1.017-0.74,2.201-0.492,3.335
		c0.051,0.234,0.258,0.394,0.488,0.394c0.035,0,0.071-0.004,0.107-0.012c0.27-0.059,0.44-0.325,0.381-0.595
		c-0.196-0.896-0.058-1.833,0.389-2.636c0.447-0.803,1.169-1.414,2.034-1.719c0.26-0.092,0.397-0.378,0.305-0.638
		C21.828,18.45,21.544,18.315,21.282,18.406z"/>
</g>
</svg>
