<?xml version="1.0" encoding="utf-8"?>
<!-- Generator: Adobe Illustrator 23.0.4, SVG Export Plug-In . SVG Version: 6.00 Build 0)  -->
<svg version="1.1" id="Calque_1" xmlns="http://www.w3.org/2000/svg" xmlns:xlink="http://www.w3.org/1999/xlink" x="0px" y="0px"
	 viewBox="0 0 80 80" style="enable-background:new 0 0 80 80;" xml:space="preserve">
<style type="text/css">
	.st0{fill:#FFFFFF;}
	.st1{opacity:0.3;fill:none;stroke:#231F20;stroke-miterlimit:10;}
</style>
<g>
	<path class="st0" d="M42.295,15.102C43.831,13.747,45.806,13,47.857,13c2.052,0,4.027,0.747,5.562,2.103
		c0.095,0.084,0.213,0.125,0.331,0.125c0.138,0,0.276-0.058,0.375-0.169c0.183-0.207,0.163-0.523-0.044-0.706
		C52.363,12.836,50.152,12,47.857,12s-4.505,0.836-6.224,2.353c-0.207,0.183-0.227,0.499-0.044,0.706
		C41.773,15.267,42.089,15.285,42.295,15.102z"/>
	<path class="st0" d="M52.312,17.182c0.138,0,0.276-0.058,0.375-0.169c0.183-0.207,0.163-0.523-0.044-0.706
		c-1.321-1.166-3.021-1.809-4.786-1.809c-1.764,0-3.464,0.643-4.785,1.809c-0.207,0.183-0.227,0.499-0.044,0.706
		c0.184,0.207,0.5,0.228,0.706,0.044c1.138-1.005,2.603-1.559,4.123-1.559c1.521,0,2.985,0.554,4.124,1.559
		C52.076,17.141,52.194,17.182,52.312,17.182z"/>
	<path class="st0" d="M45.299,18.114c-0.207,0.183-0.227,0.498-0.044,0.706c0.183,0.206,0.5,0.228,0.706,0.044
		c1.049-0.924,2.745-0.924,3.793,0c0.095,0.084,0.213,0.125,0.331,0.125c0.138,0,0.276-0.058,0.375-0.169
		c0.183-0.208,0.163-0.523-0.044-0.706C49.001,16.868,46.713,16.868,45.299,18.114z"/>
	<path class="st0" d="M48.357,35.948c0-0.276-0.224-0.5-0.5-0.5H32.143c-0.276,0-0.5,0.224-0.5,0.5s0.224,0.5,0.5,0.5h15.714
		C48.133,36.448,48.357,36.224,48.357,35.948z"/>
	<path class="st0" d="M12.5,62.965c0.942,0,1.383,0.427,1.941,0.966c0.604,0.585,1.29,1.248,2.637,1.248
		c1.347,0,2.033-0.663,2.638-1.247c0.559-0.54,1-0.967,1.943-0.967c0.942,0,1.384,0.427,1.942,0.967
		c0.605,0.584,1.29,1.247,2.637,1.247s2.033-0.663,2.638-1.247c0.559-0.54,1-0.967,1.943-0.967c0.944,0,1.385,0.427,1.944,0.967
		c0.605,0.584,1.292,1.247,2.64,1.247c1.348,0,2.034-0.663,2.639-1.247c0.559-0.54,1-0.967,1.944-0.967s1.385,0.427,1.944,0.967
		c0.605,0.584,1.292,1.247,2.64,1.247c1.348,0,2.033-0.663,2.639-1.247c0.559-0.54,1-0.967,1.943-0.967s1.385,0.427,1.943,0.967
		c0.605,0.584,1.291,1.247,2.639,1.247c1.349,0,2.035-0.663,2.641-1.247c0.56-0.54,1.001-0.967,1.946-0.967
		c0.946,0,1.388,0.427,1.948,0.967c0.606,0.585,1.293,1.247,2.642,1.247s2.036-0.662,2.642-1.247c0.56-0.54,1.002-0.967,1.948-0.967
		c0.276,0,0.5-0.224,0.5-0.5s-0.224-0.5-0.5-0.5c-1.349,0-2.036,0.662-2.642,1.247c-0.56,0.54-1.002,0.967-1.948,0.967
		s-1.388-0.427-1.948-0.967c-0.606-0.585-1.293-1.247-2.642-1.247c-0.843,0-1.427,0.258-1.894,0.595l3.707-18.534
		c0.026-0.13,0-0.265-0.074-0.375s-0.188-0.187-0.318-0.213l-6.97-1.394v-9.902c0-0.276-0.224-0.5-0.5-0.5h-3.914v-6.242
		c1.12-0.232,1.964-1.225,1.964-2.413c0-1.358-1.105-2.464-2.464-2.464c-1.358,0-2.464,1.105-2.464,2.464
		c0,1.188,0.844,2.182,1.964,2.413v6.242h-2.928v-3.428c0-0.276-0.224-0.5-0.5-0.5h-7.857c-0.276,0-0.5,0.224-0.5,0.5v3.428h-7.842
		c-0.276,0-0.5,0.224-0.5,0.5v9.902l-6.97,1.394c-0.13,0.026-0.244,0.103-0.318,0.213s-0.1,0.245-0.074,0.375l3.711,18.555
		c-0.471-0.347-1.06-0.617-1.919-0.617c-1.348,0-2.034,0.663-2.639,1.247c-0.559,0.54-1,0.967-1.943,0.967
		c-0.942,0-1.383-0.427-1.941-0.967c-0.604-0.584-1.29-1.247-2.636-1.247c-0.276,0-0.5,0.224-0.5,0.5S12.224,62.965,12.5,62.965z
		 M55.224,63.473c-0.01,0.052-0.005,0.102,0,0.153c-0.391,0.326-0.809,0.553-1.491,0.553c-0.944,0-1.385-0.427-1.944-0.967
		c-0.605-0.584-1.291-1.247-2.638-1.247s-2.033,0.663-2.639,1.247c-0.559,0.54-1,0.967-1.943,0.967
		c-0.944,0-1.386-0.427-1.945-0.967c-0.522-0.504-1.107-1.065-2.125-1.21V40.666c0-0.021-0.009-0.038-0.012-0.059l18.567,3.714
		L55.224,63.473z M36.571,28.715h6.857v2.928h-6.857V28.715z M28.229,32.642h7.842h7.857h7.842v9.202L40.098,39.51
		c-0.064-0.014-0.132-0.014-0.196,0l-11.673,2.335V32.642z M39.512,40.607c-0.002,0.02-0.012,0.038-0.012,0.059v21.331
		c-1.036,0.138-1.625,0.706-2.153,1.215c-0.559,0.54-1,0.967-1.944,0.967s-1.386-0.427-1.945-0.967
		c-0.605-0.584-1.291-1.247-2.639-1.247c-1.347,0-2.033,0.663-2.638,1.247c-0.559,0.54-1,0.967-1.943,0.967
		c-0.666,0-1.079-0.219-1.463-0.535c0.008-0.055,0.012-0.112,0-0.17l-3.831-19.152L39.512,40.607z"/>
	<path class="st0" d="M67.5,65.893c-1.349,0-2.036,0.662-2.642,1.247c-0.56,0.54-1.002,0.967-1.948,0.967s-1.388-0.427-1.948-0.967
		c-0.606-0.585-1.293-1.247-2.642-1.247c-1.349,0-2.035,0.662-2.64,1.247c-0.56,0.54-1.001,0.967-1.946,0.967
		c-0.944,0-1.385-0.427-1.944-0.967c-0.605-0.584-1.291-1.247-2.638-1.247s-2.033,0.663-2.639,1.247
		c-0.559,0.54-1,0.967-1.943,0.967c-0.944,0-1.386-0.427-1.945-0.967c-0.605-0.584-1.291-1.247-2.639-1.247
		s-2.034,0.663-2.639,1.247c-0.559,0.54-1,0.967-1.944,0.967s-1.386-0.427-1.945-0.967c-0.605-0.584-1.291-1.247-2.639-1.247
		c-1.347,0-2.033,0.663-2.638,1.247c-0.559,0.54-1,0.967-1.943,0.967c-0.942,0-1.384-0.427-1.942-0.967
		c-0.605-0.584-1.29-1.247-2.637-1.247c-1.348,0-2.034,0.663-2.639,1.247c-0.559,0.54-1,0.967-1.943,0.967
		c-0.942,0-1.383-0.427-1.941-0.967c-0.604-0.584-1.29-1.247-2.636-1.247c-0.276,0-0.5,0.224-0.5,0.5s0.224,0.5,0.5,0.5
		c0.942,0,1.383,0.427,1.941,0.966c0.604,0.585,1.29,1.248,2.637,1.248c1.347,0,2.033-0.663,2.638-1.247
		c0.559-0.54,1-0.967,1.943-0.967c0.942,0,1.384,0.427,1.942,0.967c0.605,0.584,1.29,1.247,2.637,1.247s2.033-0.663,2.638-1.247
		c0.559-0.54,1-0.967,1.943-0.967c0.944,0,1.385,0.427,1.944,0.967c0.605,0.584,1.292,1.247,2.64,1.247
		c1.348,0,2.034-0.663,2.639-1.247c0.559-0.54,1-0.967,1.944-0.967s1.385,0.427,1.944,0.967c0.605,0.584,1.292,1.247,2.64,1.247
		c1.348,0,2.033-0.663,2.639-1.247c0.559-0.54,1-0.967,1.943-0.967s1.385,0.427,1.943,0.967c0.605,0.584,1.291,1.247,2.639,1.247
		c1.349,0,2.035-0.663,2.641-1.247c0.56-0.54,1.001-0.967,1.946-0.967c0.946,0,1.388,0.427,1.948,0.967
		c0.606,0.585,1.293,1.247,2.642,1.247s2.036-0.662,2.642-1.247c0.56-0.54,1.002-0.967,1.948-0.967c0.276,0,0.5-0.224,0.5-0.5
		S67.776,65.893,67.5,65.893z"/>
</g>
</svg>
