<?xml version="1.0" encoding="utf-8"?>
<!-- Generator: Adobe Illustrator 23.0.4, SVG Export Plug-In . SVG Version: 6.00 Build 0)  -->
<svg version="1.1" id="Calque_1" xmlns="http://www.w3.org/2000/svg" xmlns:xlink="http://www.w3.org/1999/xlink" x="0px" y="0px"
	 viewBox="0 0 80 80" style="enable-background:new 0 0 80 80;" xml:space="preserve">
<style type="text/css">
	.st0{fill:#FFFFFF;}
	.st1{opacity:0.3;fill:none;stroke:#231F20;stroke-miterlimit:10;}
</style>
<g>
	<path class="st0" d="M44.862,9.52c-5.651-0.24-11.018,1.763-15.097,5.666c-4.082,3.905-6.33,9.166-6.33,14.813v6.867
		c0,1.648,1.105,3.028,2.608,3.48c-1.563,0.971-2.608,2.699-2.608,4.67c0,3.032,2.467,5.5,5.5,5.5c0.048,0,0.094-0.006,0.142-0.007
		c0.012,0.001,0.023,0.007,0.036,0.007c0.021,0,0.039-0.009,0.06-0.012c2.922-0.125,5.263-2.536,5.263-5.488
		s-2.341-5.363-5.263-5.488c-0.02-0.003-0.038-0.012-0.06-0.012h-2.028c-1.461,0-2.649-1.188-2.649-2.649V30
		c0-5.372,2.138-10.376,6.021-14.092c3.88-3.711,8.98-5.633,14.362-5.388c10.439,0.459,18.617,9.147,18.617,19.778
		c0,3.999-1.322,7.963-3.721,11.162L42.198,64.699c-0.007,0.009-0.008,0.019-0.014,0.028c-0.006,0.009-0.014,0.013-0.02,0.022
		c-1.695,2.93-4.848,4.75-8.229,4.75c-5.238,0-9.5-4.262-9.5-9.5c0-0.276-0.224-0.5-0.5-0.5s-0.5,0.224-0.5,0.5
		c0,5.79,4.71,10.5,10.5,10.5c3.716,0,7.18-1.992,9.06-5.198c0.001-0.001,0.001-0.001,0.002-0.002l17.517-23.239
		c2.529-3.372,3.921-7.55,3.921-11.764C64.436,19.131,55.838,10.004,44.862,9.52z"/>
	<path class="st0" d="M28.936,52.834c-0.276,0-0.5,0.224-0.5,0.5s0.224,0.5,0.5,0.5c4.167,0,7.805-2.958,8.649-7.032
		c0.122-0.59,0.184-1.196,0.184-1.802c0-4.047-2.78-7.584-6.667-8.564v-6.931c0-3.459,1.356-6.703,3.818-9.134
		c2.461-2.431,5.688-3.765,9.186-3.698c6.982,0.09,12.663,5.937,12.663,13.031c0,2.631-0.869,5.238-2.447,7.341L42.645,52.537
		c-0.166,0.221-0.122,0.534,0.099,0.7c0.09,0.067,0.196,0.101,0.3,0.101c0.152,0,0.301-0.068,0.4-0.199l11.678-15.493
		c1.707-2.275,2.647-5.096,2.647-7.941c0-7.64-6.123-13.934-13.65-14.031c-3.748-0.042-7.248,1.368-9.901,3.986
		c-2.654,2.62-4.116,6.116-4.116,9.846v7.329c0,0.237,0.167,0.442,0.4,0.49c3.631,0.737,6.266,3.966,6.266,7.676
		c0,0.538-0.055,1.075-0.164,1.599C35.856,50.212,32.631,52.834,28.936,52.834z"/>
	<path class="st0" d="M16.568,44.977c0.048-1.721,0.721-3.36,1.895-4.618c0.188-0.201,0.178-0.518-0.024-0.706
		c-0.202-0.188-0.519-0.178-0.707,0.024c-1.34,1.435-2.109,3.308-2.164,5.272c-0.055,1.964,0.606,3.876,1.864,5.385
		c0.099,0.118,0.241,0.18,0.385,0.18c0.113,0,0.226-0.038,0.32-0.116c0.212-0.177,0.241-0.492,0.064-0.704
		C17.099,48.373,16.519,46.698,16.568,44.977z"/>
	<path class="st0" d="M18.687,45.037c0.036-1.271,0.533-2.482,1.4-3.411c0.188-0.201,0.178-0.518-0.024-0.706
		c-0.203-0.188-0.519-0.178-0.707,0.024c-1.034,1.106-1.626,2.55-1.669,4.065c-0.042,1.515,0.468,2.989,1.438,4.152
		c0.099,0.118,0.241,0.18,0.385,0.18c0.113,0,0.226-0.038,0.32-0.116c0.212-0.177,0.241-0.492,0.064-0.704
		C19.08,47.546,18.651,46.308,18.687,45.037z"/>
	<path class="st0" d="M21.542,42.852c-0.202-0.188-0.519-0.18-0.707,0.023c-0.559,0.597-0.879,1.377-0.902,2.196
		c-0.022,0.818,0.253,1.615,0.777,2.243c0.099,0.118,0.241,0.18,0.384,0.18c0.113,0,0.226-0.038,0.32-0.116
		c0.212-0.177,0.241-0.492,0.063-0.704c-0.367-0.44-0.561-1-0.545-1.574c0.016-0.575,0.241-1.123,0.633-1.541
		C21.754,43.358,21.744,43.042,21.542,42.852z"/>
</g>
</svg>
