<?xml version="1.0" encoding="utf-8"?>
<!-- Generator: Adobe Illustrator 23.0.4, SVG Export Plug-In . SVG Version: 6.00 Build 0)  -->
<svg version="1.1" id="Calque_1" xmlns="http://www.w3.org/2000/svg" xmlns:xlink="http://www.w3.org/1999/xlink" x="0px" y="0px"
	 viewBox="0 0 80 80" style="enable-background:new 0 0 80 80;" xml:space="preserve">
<style type="text/css">
	.st0{fill:#FFFFFF;}
	.st1{opacity:0.3;fill:none;stroke:#231F20;stroke-miterlimit:10;}
</style>
<g>
	<path class="st0" d="M69.305,39.605c-0.02-0.03-0.038-0.061-0.064-0.086c-1.333-1.647-3.504-2.514-5.408-2.969v-5.428
		c0.953-0.227,1.667-1.081,1.667-2.103c0-1.194-0.972-2.166-2.167-2.166s-2.167,0.972-2.167,2.166c0,1.022,0.714,1.876,1.667,2.103
		v5.22c-1.587-0.286-2.798-0.296-2.833-0.296H26.976l-6.528-13.057c-0.085-0.169-0.258-0.276-0.447-0.276h-3.333
		c-0.276,0-0.5,0.224-0.5,0.5V39.38H10c-0.276,0-0.5,0.224-0.5,0.5v3.333c0,0.189,0.107,0.362,0.276,0.447l13.333,6.667
		c0.069,0.034,0.146,0.053,0.224,0.053h7.524l-4.638,9.276c-0.078,0.155-0.069,0.339,0.022,0.486s0.252,0.237,0.425,0.237h6.667
		c0.114,0,0.224-0.039,0.312-0.109l12.363-9.891H60c0.105,0,10.5-0.082,10.5-7.167C70.5,41.72,70.035,40.54,69.305,39.605z
		 M68.632,40.38c0.341,0.481,0.59,1.037,0.733,1.666h-5.421V40.38H68.632z M60,49.38H47.258l3.054-2.443
		c0.215-0.173,0.25-0.487,0.078-0.703c-0.173-0.215-0.487-0.25-0.703-0.078L33.158,59.38h-5.683l6.305-12.61
		c0.124-0.247,0.023-0.547-0.224-0.671c-0.247-0.123-0.547-0.023-0.671,0.224l-1.529,3.058h-7.906L10.5,42.904V40.38h6.167
		c0.276,0,0.5-0.224,0.5-0.5V23.713h2.524l6.528,13.057c0.085,0.169,0.258,0.276,0.447,0.276H60c0.068,0,4.935,0.049,7.673,2.334
		h-4.229c-0.276,0-0.5,0.224-0.5,0.5v2.666c0,0.276,0.224,0.5,0.5,0.5h6.039c0.002,0.058,0.016,0.108,0.016,0.167
		C69.5,49.301,60.095,49.38,60,49.38z"/>
	<path class="st0" d="M55,39.38c-1.195,0-2.167,0.972-2.167,2.166c0,1.195,0.972,2.167,2.167,2.167s2.167-0.972,2.167-2.167
		C57.167,40.351,56.195,39.38,55,39.38z M55,42.713c-0.643,0-1.167-0.523-1.167-1.167c0-0.643,0.523-1.166,1.167-1.166
		s1.167,0.523,1.167,1.166C56.167,42.189,55.643,42.713,55,42.713z"/>
	<path class="st0" d="M48.333,39.38c-1.195,0-2.167,0.972-2.167,2.166c0,1.195,0.972,2.167,2.167,2.167s2.167-0.972,2.167-2.167
		C50.5,40.351,49.528,39.38,48.333,39.38z M48.333,42.713c-0.644,0-1.167-0.523-1.167-1.167c0-0.643,0.523-1.166,1.167-1.166
		c0.643,0,1.167,0.523,1.167,1.166C49.5,42.189,48.977,42.713,48.333,42.713z"/>
	<path class="st0" d="M41.667,39.38c-1.195,0-2.167,0.972-2.167,2.166c0,1.195,0.972,2.167,2.167,2.167s2.167-0.972,2.167-2.167
		C43.833,40.351,42.861,39.38,41.667,39.38z M41.667,42.713c-0.643,0-1.167-0.523-1.167-1.167c0-0.643,0.523-1.166,1.167-1.166
		c0.644,0,1.167,0.523,1.167,1.166C42.833,42.189,42.31,42.713,41.667,42.713z"/>
	<path class="st0" d="M35,39.38c-1.195,0-2.167,0.972-2.167,2.166c0,1.195,0.972,2.167,2.167,2.167s2.167-0.972,2.167-2.167
		C37.167,40.351,36.195,39.38,35,39.38z M35,42.713c-0.643,0-1.167-0.523-1.167-1.167c0-0.643,0.523-1.166,1.167-1.166
		s1.167,0.523,1.167,1.166C36.167,42.189,35.643,42.713,35,42.713z"/>
	<path class="st0" d="M28.333,39.38c-1.195,0-2.167,0.972-2.167,2.166c0,1.195,0.972,2.167,2.167,2.167s2.167-0.972,2.167-2.167
		C30.5,40.351,29.528,39.38,28.333,39.38z M28.333,42.713c-0.644,0-1.167-0.523-1.167-1.167c0-0.643,0.523-1.166,1.167-1.166
		c0.643,0,1.167,0.523,1.167,1.166C29.5,42.189,28.977,42.713,28.333,42.713z"/>
	<path class="st0" d="M58.665,22.386c1.288-1.138,2.946-1.765,4.669-1.765s3.381,0.627,4.669,1.765
		c0.095,0.084,0.213,0.125,0.331,0.125c0.138,0,0.276-0.058,0.375-0.169c0.183-0.207,0.163-0.523-0.044-0.706
		c-1.471-1.299-3.365-2.015-5.331-2.015s-3.86,0.716-5.331,2.015c-0.207,0.183-0.227,0.499-0.044,0.706
		C58.142,22.55,58.458,22.568,58.665,22.386z"/>
	<path class="st0" d="M67.113,24.17c0.138,0,0.276-0.058,0.375-0.169c0.183-0.207,0.163-0.523-0.044-0.706
		c-1.135-1.002-2.594-1.554-4.11-1.554s-2.976,0.552-4.111,1.554c-0.207,0.183-0.227,0.499-0.044,0.706
		c0.184,0.209,0.5,0.227,0.706,0.044c1.902-1.682,4.993-1.683,6.897,0C66.877,24.129,66.995,24.17,67.113,24.17z"/>
	<path class="st0" d="M61.113,24.827c-0.207,0.183-0.227,0.499-0.044,0.706c0.183,0.206,0.5,0.228,0.706,0.044
		c0.861-0.76,2.257-0.76,3.119,0c0.095,0.084,0.213,0.125,0.331,0.125c0.138,0,0.276-0.058,0.375-0.169
		c0.183-0.207,0.163-0.523-0.044-0.706C64.326,23.744,62.338,23.745,61.113,24.827z"/>
</g>
</svg>
