<?xml version="1.0" encoding="utf-8"?>
<!-- Generator: Adobe Illustrator 23.0.4, SVG Export Plug-In . SVG Version: 6.00 Build 0)  -->
<svg version="1.1" id="Calque_1" xmlns="http://www.w3.org/2000/svg" xmlns:xlink="http://www.w3.org/1999/xlink" x="0px" y="0px"
	 viewBox="0 0 80 80" style="enable-background:new 0 0 80 80;" xml:space="preserve">
<style type="text/css">
	.st0{fill:#FFFFFF;}
	.st1{opacity:0.3;fill:none;stroke:#231F20;stroke-miterlimit:10;}
</style>
<path class="st0" d="M65.312,53.808l-5.794,5.794L49.176,49.258V30.741l10.343-10.342l5.793,5.793
	c0.096,0.096,0.222,0.144,0.348,0.144c0.126,0,0.252-0.048,0.348-0.144c0.192-0.192,0.192-0.503,0-0.695l-5.828-5.828
	c0.301-0.439,0.466-0.957,0.466-1.501c0-0.712-0.277-1.38-0.78-1.883c-0.886-0.887-2.354-0.991-3.38-0.311l-5.831-5.831
	c-0.192-0.192-0.503-0.192-0.695,0c-0.192,0.192-0.192,0.503,0,0.695l5.793,5.793l-8.421,8.421c-1.676-2.23-4.334-3.682-7.332-3.682
	s-5.657,1.452-7.332,3.682l-8.421-8.421l5.793-5.793c0.192-0.192,0.192-0.503,0-0.695c-0.192-0.192-0.503-0.192-0.695,0
	l-5.831,5.831c-1.025-0.68-2.493-0.576-3.38,0.311c-0.503,0.502-0.78,1.171-0.78,1.883c0,0.544,0.164,1.061,0.466,1.501
	l-5.828,5.828c-0.192,0.192-0.192,0.503,0,0.695c0.096,0.096,0.222,0.144,0.348,0.144s0.252-0.048,0.348-0.144l5.793-5.793
	l10.343,10.342v18.518L20.481,59.601l-5.794-5.794c-0.192-0.192-0.503-0.192-0.695,0c-0.192,0.192-0.192,0.503,0,0.695l5.828,5.828
	c-0.301,0.439-0.466,0.957-0.466,1.501c0,0.711,0.277,1.379,0.78,1.883c0.502,0.503,1.171,0.78,1.883,0.78
	c0.544,0,1.062-0.165,1.501-0.466l5.827,5.827C29.441,69.952,29.566,70,29.692,70s0.252-0.048,0.348-0.144
	c0.192-0.192,0.192-0.503,0-0.695l-5.793-5.793l7.737-7.738c0.81,0.893,1.968,1.464,3.266,1.464h9.5
	c1.298,0,2.455-0.571,3.266-1.464l7.737,7.738L49.96,69.16c-0.192,0.192-0.192,0.503,0,0.695C50.056,69.952,50.182,70,50.308,70
	s0.252-0.048,0.348-0.144l5.827-5.827c0.439,0.302,0.957,0.466,1.501,0.466c0.712,0,1.38-0.277,1.883-0.78
	c0.503-0.503,0.78-1.172,0.78-1.883c0-0.545-0.164-1.062-0.466-1.501l5.828-5.828c0.192-0.192,0.192-0.503,0-0.695
	C65.816,53.616,65.505,53.616,65.312,53.808z M55.346,18.43c0.06,0.611,0.314,1.181,0.754,1.621c0.44,0.44,1.01,0.695,1.621,0.754
	L49.1,29.426c-0.157-1.28-0.58-2.477-1.21-3.539L55.346,18.43z M30.9,29.426l-8.621-8.621c0.611-0.06,1.181-0.314,1.621-0.754
	s0.695-1.01,0.754-1.621l7.456,7.457C31.48,26.949,31.057,28.145,30.9,29.426z M24.654,61.57c-0.06-0.612-0.314-1.181-0.754-1.621
	c-0.444-0.445-1.036-0.681-1.642-0.733l8.567-8.567v2.018c0,0.784,0.222,1.511,0.582,2.15L24.654,61.57z M44.834,56.102V30.548
	c0-0.272-0.22-0.492-0.492-0.492c-0.272,0-0.492,0.22-0.492,0.492V56.11h-7.702V30.548c0-0.272-0.22-0.492-0.492-0.492
	c-0.272,0-0.492,0.22-0.492,0.492v25.554c-1.858-0.046-3.358-1.565-3.358-3.434v-22.12c0-4.517,3.675-8.193,8.193-8.193
	s8.193,3.675,8.193,8.193v22.12C48.193,54.537,46.693,56.055,44.834,56.102z M49.176,52.667v-2.018l8.567,8.567
	c-0.607,0.052-1.198,0.288-1.643,0.733c-0.44,0.44-0.695,1.009-0.754,1.621l-6.752-6.752C48.954,54.178,49.176,53.452,49.176,52.667
	z"/>
</svg>
