<?xml version="1.0" encoding="utf-8"?>
<!-- Generator: Adobe Illustrator 23.0.4, SVG Export Plug-In . SVG Version: 6.00 Build 0)  -->
<svg version="1.1" id="Calque_1" xmlns="http://www.w3.org/2000/svg" xmlns:xlink="http://www.w3.org/1999/xlink" x="0px" y="0px"
	 viewBox="0 0 80 80" style="enable-background:new 0 0 80 80;" xml:space="preserve">
<style type="text/css">
	.st0{fill:#FFFFFF;}
	.st1{opacity:0.3;fill:none;stroke:#231F20;stroke-miterlimit:10;}
</style>
<g>
	<path class="st0" d="M34.098,52.085h11.803c0.272,0,0.492-0.22,0.492-0.492c0-0.272-0.22-0.492-0.492-0.492H34.098
		c-0.272,0-0.492,0.22-0.492,0.492C33.607,51.865,33.827,52.085,34.098,52.085z"/>
	<path class="st0" d="M34.098,48.22h11.803c0.272,0,0.492-0.22,0.492-0.492c0-0.272-0.22-0.492-0.492-0.492H34.098
		c-0.272,0-0.492,0.22-0.492,0.492C33.607,48,33.827,48.22,34.098,48.22z"/>
	<path class="st0" d="M22.295,52.085h7.869c0.272,0,0.492-0.22,0.492-0.492v-3.864c0-0.272-0.22-0.492-0.492-0.492h-7.869
		c-0.272,0-0.492,0.22-0.492,0.492v3.864C21.803,51.865,22.023,52.085,22.295,52.085z M22.787,48.22h6.885v2.881h-6.885V48.22z"/>
	<path class="st0" d="M49.836,52.085h7.869c0.272,0,0.492-0.22,0.492-0.492v-3.864c0-0.272-0.22-0.492-0.492-0.492h-7.869
		c-0.272,0-0.492,0.22-0.492,0.492v3.864C49.344,51.865,49.564,52.085,49.836,52.085z M50.328,48.22h6.885v2.881h-6.885V48.22z"/>
	<path class="st0" d="M69.508,24.051h-7.377v-7.45c0-2.284-1.888-4.143-4.209-4.143H22.078c-2.321,0-4.209,1.859-4.209,4.143v4.077
		v3.373h-7.377c-0.272,0-0.492,0.22-0.492,0.492v3.864V40c0,0.272,0.22,0.492,0.492,0.492h3.934c0.272,0,0.492-0.22,0.492-0.492
		V28.408c0-0.272-0.22-0.492-0.492-0.492h-3.443v-2.881h6.885V35.5v16.093v7.728v5.199c0,1.666,1.355,3.021,3.021,3.021H23.7
		c1.666,0,3.021-1.355,3.021-3.021v-4.708h3.443h19.672h3.443v4.708c0,1.666,1.355,3.021,3.021,3.021h2.811
		c1.666,0,3.021-1.355,3.021-3.021v-5.199v-7.728V25.035h6.885v2.881h-3.443c-0.272,0-0.492,0.22-0.492,0.492V40
		c0,0.272,0.22,0.492,0.492,0.492h3.934C69.78,40.492,70,40.272,70,40V28.408v-3.864C70,24.271,69.78,24.051,69.508,24.051z
		 M13.934,39.508h-2.951V28.899h2.951V39.508z M22.078,13.443h35.844c1.778,0,3.226,1.417,3.226,3.159v3.585H18.852v-3.585
		C18.852,14.86,20.3,13.443,22.078,13.443z M50.729,35.644H50.43c1.216-0.657,2.05-1.913,2.05-3.372
		c0-2.134-1.762-3.864-3.934-3.864c-2.173,0-3.934,1.73-3.934,3.864c0,1.46,0.834,2.715,2.05,3.372h-0.3
		c-2.321,0-4.209,1.859-4.209,4.143v3.585H26.725c-4.341,0-7.873-3.531-7.873-7.873V21.171H60.93V35.5
		c0,3.692-2.557,6.789-5.991,7.636v-3.349C54.939,37.503,53.051,35.644,50.729,35.644z M26.725,44.356h26.333
		c3.606,0,6.71-2.169,8.09-5.268v12.505v7.236H53.77h-3.443v-3.373c0-0.272-0.22-0.492-0.492-0.492H30.164
		c-0.272,0-0.492,0.22-0.492,0.492v3.373H26.23h-7.377v-7.236V39.538C20.324,42.394,23.297,44.356,26.725,44.356z M25.738,64.52
		c0,1.124-0.914,2.037-2.037,2.037H20.89c-1.123,0-2.037-0.913-2.037-2.037v-4.708h6.885V64.52z M30.656,58.829v-2.881h18.689v2.881
		H30.656z M61.148,64.52c0,1.124-0.914,2.037-2.037,2.037H56.3c-1.123,0-2.037-0.913-2.037-2.037v-4.708h6.885V64.52z
		 M69.016,39.508h-2.951V28.899h2.951V39.508z"/>
	<path class="st0" d="M26.23,17.307H53.77c0.272,0,0.492-0.22,0.492-0.492c0-0.272-0.22-0.492-0.492-0.492H26.23
		c-0.272,0-0.492,0.22-0.492,0.492C25.738,17.087,25.958,17.307,26.23,17.307z"/>
</g>
</svg>
