<?xml version="1.0" encoding="utf-8"?>
<!-- Generator: Adobe Illustrator 23.0.4, SVG Export Plug-In . SVG Version: 6.00 Build 0)  -->
<svg version="1.1" id="Calque_1" xmlns="http://www.w3.org/2000/svg" xmlns:xlink="http://www.w3.org/1999/xlink" x="0px" y="0px"
	 viewBox="0 0 80 80" style="enable-background:new 0 0 80 80;" xml:space="preserve">
<style type="text/css">
	.st0{fill:#FFFFFF;}
	.st1{opacity:0.3;fill:none;stroke:#231F20;stroke-miterlimit:10;}
</style>
<path class="st0" d="M54.286,35.214H40.5V10c0-0.276-0.224-0.5-0.5-0.5s-0.5,0.224-0.5,0.5v25.214H25.714
	c-0.276,0-0.5,0.224-0.5,0.5v28.572c0,0.016,0.008,0.03,0.009,0.046c0.003,0.035,0.01,0.067,0.02,0.1
	c0.01,0.031,0.021,0.059,0.035,0.086c0.015,0.028,0.032,0.052,0.052,0.077c0.022,0.027,0.045,0.051,0.073,0.073
	c0.012,0.01,0.02,0.024,0.033,0.033l8.571,5.714c0.085,0.057,0.182,0.084,0.277,0.084c0.162,0,0.32-0.078,0.417-0.223
	c0.153-0.229,0.091-0.54-0.139-0.693l-7.197-4.798h25.268l-7.197,4.798c-0.23,0.153-0.292,0.464-0.139,0.693
	c0.096,0.145,0.255,0.223,0.417,0.223c0.095,0,0.191-0.027,0.277-0.084l8.571-5.714c0.014-0.009,0.021-0.023,0.033-0.033
	c0.027-0.022,0.051-0.046,0.073-0.073c0.02-0.025,0.037-0.049,0.052-0.077c0.015-0.028,0.026-0.056,0.035-0.086
	c0.01-0.033,0.017-0.066,0.02-0.1c0.002-0.016,0.009-0.03,0.009-0.046V35.714C54.786,35.438,54.562,35.214,54.286,35.214z
	 M42.357,36.214v4.714h-4.714v-4.714H42.357z M43.357,47.643h4.714v4.715h-4.714V47.643z M42.357,46.643h-4.714v-4.714h4.714V46.643
	z M42.357,47.643v4.715h-4.714v-4.715H42.357z M36.643,52.357h-4.714v-4.715h4.714V52.357z M30.929,52.357h-4.714v-4.715h4.714
	V52.357z M30.929,53.357v4.714h-4.714v-4.714H30.929z M31.929,53.357h4.714v4.714h-4.714V53.357z M37.643,53.357h4.714v4.714h-4.714
	V53.357z M43.357,53.357h4.714v4.714h-4.714V53.357z M49.071,53.357h4.714v4.714h-4.714V53.357z M49.071,52.357v-4.715h4.714v4.715
	H49.071z M49.071,46.643v-4.714h4.714v4.714H49.071z M48.071,40.929h-4.714v-4.714h4.714V40.929z M36.643,40.929h-4.714v-4.714
	h4.714V40.929z M36.643,41.929v4.714h-4.714v-4.714H36.643z M30.929,46.643h-4.714v-4.714h4.714V46.643z M26.214,59.071h4.714v4.715
	h-4.714V59.071z M31.929,59.071h4.714v4.715h-4.714V59.071z M37.643,59.071h4.714v4.715h-4.714V59.071z M43.357,59.071h4.714v4.715
	h-4.714V59.071z M49.071,59.071h4.714v4.715h-4.714V59.071z M53.786,40.929h-4.714v-4.714h4.714V40.929z M30.929,36.214v4.714
	h-4.714v-4.714H30.929z"/>
</svg>
