<?xml version="1.0" encoding="utf-8"?>
<!-- Generator: Adobe Illustrator 23.0.4, SVG Export Plug-In . SVG Version: 6.00 Build 0)  -->
<svg version="1.1" id="Calque_1" xmlns="http://www.w3.org/2000/svg" xmlns:xlink="http://www.w3.org/1999/xlink" x="0px" y="0px"
	 viewBox="0 0 80 80" style="enable-background:new 0 0 80 80;" xml:space="preserve">
<style type="text/css">
	.st0{fill:#FFFFFF;}
	.st1{opacity:0.3;fill:none;stroke:#231F20;stroke-miterlimit:10;}
</style>
<g>
	<path class="st0" d="M47.5,9.5C47.224,9.5,47,9.724,47,10v5.5h-2.5h-4V10c0-0.276-0.224-0.5-0.5-0.5s-0.5,0.224-0.5,0.5v5.5h-4H33
		V10c0-0.276-0.224-0.5-0.5-0.5S32,9.724,32,10v6c0,0.276,0.224,0.5,0.5,0.5H35v5.051c-1.692,0.245-3,1.691-3,3.449
		s1.308,3.204,3,3.449V34v5.551c-1.692,0.245-3,1.691-3,3.449s1.308,3.204,3,3.449V52v9v9c0,0.065,0.013,0.13,0.038,0.191
		c0.051,0.122,0.148,0.22,0.271,0.271C35.37,70.487,35.435,70.5,35.5,70.5h9c0.276,0,0.5-0.224,0.5-0.5v-9v-9v-9V37.45
		c1.692-0.245,3-1.691,3-3.449s-1.308-3.204-3-3.449V25v-8.5h2.5c0.276,0,0.5-0.224,0.5-0.5v-6C48,9.724,47.776,9.5,47.5,9.5z
		 M38.949,24.5c-0.086-0.59-0.314-1.129-0.656-1.586l1.207-1.207V24.5H38.949z M38.949,25.5H39.5v3.793l-3.5,3.5V28.45
		C37.527,28.228,38.728,27.027,38.949,25.5z M40.5,25.5h2.793L40.5,28.293V25.5z M39.5,30.707V33.5h-2.793L39.5,30.707z M36,34.5
		h3.5v3.793l-1.914,1.914c-0.457-0.342-0.996-0.571-1.586-0.656V34.5z M41.051,34.5c0.086,0.59,0.314,1.129,0.656,1.586L40.5,37.293
		V34.5H41.051z M38.949,42.5c-0.086-0.59-0.314-1.129-0.656-1.586l1.207-1.207V42.5H38.949z M38.949,43.5H39.5v3.793l-3.5,3.5V46.45
		C37.527,46.228,38.728,45.027,38.949,43.5z M44,60.5h-3.5v-3.793l3.5-3.5V60.5z M36,52.5h3.5v3.793l-3.5,3.5V52.5z M36.707,51.5
		l2.793-2.793V51.5H36.707z M40.5,52.5h2.793L40.5,55.293V52.5z M39.5,57.707V60.5h-2.793L39.5,57.707z M44,51.5h-3.5v-3.793
		l3.5-3.5V51.5z M40.5,46.293V43.5h2.793L40.5,46.293z M36,68.793V61.5h3.5v3.793L36,68.793z M39.5,66.707V69.5h-2.793L39.5,66.707z
		 M40.5,61.5h2.793L40.5,64.293V61.5z M44,42.5h-3.5v-3.793l1.914-1.914c0.457,0.342,0.996,0.571,1.586,0.656V42.5z M41.051,33.5
		H40.5v-3.793l3.5-3.5v4.344C42.473,30.772,41.272,31.973,41.051,33.5z M44,24.5h-3.5v-3.793l3.5-3.5V24.5z M43.293,16.5
		L40.5,19.293V16.5H43.293z M39.5,16.5v3.793l-1.914,1.914c-0.457-0.342-0.996-0.571-1.586-0.656V16.5H39.5z M40.5,69.5v-3.793
		l3.5-3.5V69.5H40.5z"/>
	<path class="st0" d="M26.455,29.998c0.113,0,0.226-0.038,0.32-0.116c0.212-0.177,0.241-0.492,0.063-0.704
		c-0.983-1.179-1.501-2.675-1.458-4.212c0.043-1.536,0.645-3.001,1.692-4.123c0.188-0.201,0.178-0.518-0.024-0.706
		c-0.202-0.188-0.519-0.178-0.707,0.024c-1.214,1.3-1.911,2.996-1.961,4.777c-0.05,1.78,0.55,3.514,1.69,4.88
		C26.169,29.937,26.311,29.998,26.455,29.998z"/>
	<path class="st0" d="M27.594,28.763c0.099,0.118,0.241,0.18,0.384,0.18c0.113,0,0.226-0.038,0.32-0.116
		c0.212-0.177,0.241-0.492,0.063-0.704c-0.724-0.868-1.105-1.97-1.073-3.103c0.032-1.131,0.474-2.21,1.246-3.037
		c0.188-0.201,0.178-0.518-0.024-0.706c-0.202-0.188-0.519-0.177-0.707,0.024c-0.938,1.005-1.477,2.315-1.516,3.691
		C26.25,26.368,26.713,27.707,27.594,28.763z"/>
	<path class="st0" d="M29.135,23.039c-0.511,0.547-0.804,1.26-0.825,2.009c-0.021,0.749,0.231,1.478,0.71,2.054
		c0.099,0.118,0.241,0.18,0.385,0.18c0.113,0,0.226-0.038,0.319-0.116c0.212-0.177,0.241-0.491,0.064-0.704
		c-0.323-0.388-0.494-0.88-0.479-1.384c0.014-0.506,0.211-0.986,0.556-1.354c0.188-0.202,0.178-0.519-0.024-0.707
		S29.323,22.838,29.135,23.039z"/>
	<path class="st0" d="M25.38,42.966c0.043-1.536,0.645-3.001,1.692-4.123c0.188-0.201,0.178-0.518-0.024-0.706
		s-0.519-0.178-0.707,0.024c-1.214,1.3-1.911,2.996-1.961,4.777c-0.05,1.78,0.55,3.514,1.69,4.88c0.099,0.118,0.241,0.18,0.384,0.18
		c0.113,0,0.226-0.038,0.32-0.116c0.212-0.177,0.241-0.492,0.063-0.704C25.855,45.999,25.337,44.503,25.38,42.966z"/>
	<path class="st0" d="M27.288,43.02c0.032-1.131,0.474-2.21,1.246-3.037c0.188-0.201,0.178-0.518-0.024-0.706
		c-0.202-0.188-0.519-0.178-0.707,0.024c-0.938,1.005-1.477,2.315-1.516,3.691c-0.039,1.376,0.425,2.715,1.306,3.771
		c0.099,0.118,0.241,0.18,0.384,0.18c0.113,0,0.226-0.038,0.32-0.116c0.212-0.177,0.241-0.492,0.063-0.704
		C27.637,45.254,27.256,44.152,27.288,43.02z"/>
	<path class="st0" d="M29.841,41.016c-0.202-0.188-0.518-0.178-0.707,0.023c-0.511,0.547-0.804,1.26-0.825,2.009
		c-0.021,0.749,0.231,1.478,0.71,2.054c0.099,0.118,0.241,0.18,0.385,0.18c0.113,0,0.226-0.038,0.319-0.116
		c0.212-0.177,0.241-0.491,0.064-0.704c-0.323-0.388-0.494-0.88-0.479-1.384c0.014-0.506,0.211-0.986,0.556-1.354
		C30.054,41.521,30.043,41.204,29.841,41.016z"/>
	<path class="st0" d="M53.93,29.182c-0.176-0.211-0.492-0.241-0.704-0.063c-0.212,0.177-0.241,0.492-0.063,0.704
		c0.983,1.179,1.501,2.675,1.458,4.212c-0.043,1.536-0.645,3.001-1.692,4.123c-0.188,0.201-0.178,0.518,0.024,0.706
		c0.096,0.09,0.219,0.135,0.341,0.135c0.134,0,0.267-0.054,0.365-0.159c1.214-1.3,1.911-2.996,1.961-4.777
		C55.669,32.281,55.069,30.548,53.93,29.182z"/>
	<path class="st0" d="M52.406,30.237c-0.176-0.211-0.491-0.241-0.704-0.063c-0.212,0.177-0.241,0.492-0.063,0.704
		c0.724,0.868,1.105,1.97,1.073,3.103c-0.032,1.131-0.474,2.21-1.246,3.037c-0.188,0.201-0.178,0.518,0.024,0.706
		c0.097,0.09,0.219,0.135,0.341,0.135c0.134,0,0.267-0.054,0.365-0.159c0.938-1.005,1.477-2.315,1.516-3.691
		C53.75,32.632,53.287,31.293,52.406,30.237z"/>
	<path class="st0" d="M50.98,31.899c-0.177-0.211-0.493-0.241-0.704-0.063c-0.212,0.177-0.241,0.491-0.064,0.704
		c0.323,0.388,0.494,0.88,0.479,1.384c-0.014,0.506-0.211,0.986-0.556,1.354c-0.188,0.202-0.178,0.519,0.024,0.707
		c0.096,0.09,0.219,0.135,0.341,0.135c0.133,0,0.267-0.054,0.365-0.158c0.511-0.547,0.804-1.26,0.825-2.009
		C51.711,33.203,51.459,32.475,50.98,31.899z"/>
</g>
</svg>
