<?xml version="1.0" encoding="utf-8"?>
<!-- Generator: Adobe Illustrator 23.0.4, SVG Export Plug-In . SVG Version: 6.00 Build 0)  -->
<svg version="1.1" id="Calque_1" xmlns="http://www.w3.org/2000/svg" xmlns:xlink="http://www.w3.org/1999/xlink" x="0px" y="0px"
	 viewBox="0 0 80 80" style="enable-background:new 0 0 80 80;" xml:space="preserve">
<style type="text/css">
	.st0{fill:#FFFFFF;}
	.st1{opacity:0.3;fill:none;stroke:#231F20;stroke-miterlimit:10;}
</style>
<g>
	<path class="st0" d="M63.399,17.481c0-4.125-3.355-7.481-7.48-7.481s-7.481,3.356-7.481,7.481c0,2.129,0.902,4.045,2.335,5.408
		c-0.001,0.01-0.006,0.018-0.006,0.028v41.932c0,0.272,0.22,0.492,0.492,0.492h1.838v4.168c0,0.272,0.22,0.492,0.492,0.492h4.66
		c0.272,0,0.492-0.22,0.492-0.492V65.34h1.838c0.272,0,0.492-0.22,0.492-0.492V22.917c0-0.01-0.005-0.018-0.005-0.027
		C62.497,21.526,63.399,19.61,63.399,17.481z M55.919,10.984c3.582,0,6.496,2.914,6.496,6.497c0,0.182-0.02,0.359-0.035,0.537
		H49.457c-0.015-0.178-0.035-0.355-0.035-0.537C49.422,13.898,52.336,10.984,55.919,10.984z M49.609,19.001h12.619
		c-0.328,1.356-1.077,2.547-2.107,3.423h-8.406C50.686,21.549,49.937,20.357,49.609,19.001z M60.086,64.357h-1.838h-4.66h-1.838
		V23.408h8.335V64.357z"/>
	<path class="st0" d="M55.919,46.704c1.555,0,2.821-1.266,2.821-2.821c0-1.555-1.266-2.821-2.821-2.821
		c-1.556,0-2.822,1.266-2.822,2.821C53.097,45.438,54.363,46.704,55.919,46.704z"/>
	<path class="st0" d="M53.589,37.385h4.66c0.272,0,0.492-0.22,0.492-0.492v-4.659c0-0.272-0.22-0.492-0.492-0.492h-4.66
		c-0.272,0-0.492,0.22-0.492,0.492v4.659C53.097,37.165,53.317,37.385,53.589,37.385z M54.081,32.727h3.676v3.675h-3.676V32.727z"/>
	<path class="st0" d="M35.65,46.704c0.272,0,0.492-0.22,0.492-0.492v-4.659c0-0.272-0.22-0.492-0.492-0.492H21.672
		c-0.272,0-0.492,0.22-0.492,0.492v4.659c0,0.272,0.22,0.492,0.492,0.492H35.65z M22.163,42.045h12.994v3.675H22.163V42.045z"/>
	<path class="st0" d="M36.221,36.672v-15.57c0-0.031-0.012-0.057-0.017-0.086c0.004-0.058,0.017-0.113,0.017-0.172
		c0-1.555-1.266-2.821-2.822-2.821c-1.555,0-2.821,1.266-2.821,2.821c0,0.059,0.014,0.114,0.017,0.172
		c-0.005,0.029-0.017,0.056-0.017,0.086v15.557h-9.551c-2.441,0-4.426,1.985-4.426,4.426v28.423c0,0.272,0.22,0.492,0.492,0.492
		H40.03c0.272,0,0.492-0.22,0.492-0.492V41.085C40.522,38.688,38.603,36.74,36.221,36.672z M31.562,22.966
		c0.495,0.429,1.133,0.698,1.838,0.698c0.705,0,1.343-0.269,1.838-0.699v13.693h-3.676V22.966z M39.538,69.016H17.585V41.085
		c0-1.898,1.545-3.443,3.443-3.443h15.068c1.898,0,3.443,1.545,3.443,3.443V69.016z"/>
	<path class="st0" d="M29.023,50.38c-1.555,0-2.821,1.266-2.821,2.821c0,1.555,1.266,2.821,2.821,2.821
		c1.556,0,2.822-1.266,2.822-2.821C31.845,51.646,30.579,50.38,29.023,50.38z M29.023,55.038c-1.013,0-1.838-0.824-1.838-1.838
		c0-1.013,0.824-1.838,1.838-1.838s1.838,0.824,1.838,1.838C30.861,54.214,30.036,55.038,29.023,55.038z"/>
	<path class="st0" d="M24.068,51.167c-0.192-0.192-0.503-0.192-0.695,0l-1.686,1.686c-0.192,0.192-0.192,0.503,0,0.695l1.686,1.687
		c0.096,0.096,0.222,0.144,0.348,0.144c0.126,0,0.252-0.048,0.348-0.144c0.192-0.192,0.192-0.503,0-0.695l-1.338-1.339l1.338-1.338
		C24.26,51.671,24.26,51.36,24.068,51.167z"/>
	<path class="st0" d="M34.674,51.167c-0.192-0.192-0.503-0.192-0.695,0c-0.192,0.192-0.192,0.503,0,0.695l1.338,1.338l-1.338,1.339
		c-0.192,0.192-0.192,0.503,0,0.695c0.096,0.096,0.222,0.144,0.348,0.144s0.252-0.048,0.348-0.144l1.686-1.687
		c0.192-0.192,0.192-0.503,0-0.695L34.674,51.167z"/>
</g>
</svg>
