<?xml version="1.0" encoding="utf-8"?>
<!-- Generator: Adobe Illustrator 23.0.4, SVG Export Plug-In . SVG Version: 6.00 Build 0)  -->
<svg version="1.1" id="Calque_1" xmlns="http://www.w3.org/2000/svg" xmlns:xlink="http://www.w3.org/1999/xlink" x="0px" y="0px"
	 viewBox="0 0 80 80" style="enable-background:new 0 0 80 80;" xml:space="preserve">
<style type="text/css">
	.st0{fill:#231F20;}
	.st1{opacity:0.3;fill:none;stroke:#231F20;stroke-miterlimit:10;}
</style>
<g>
	<path class="st0" d="M63.79,17.105c0-4.193-3.412-7.605-7.605-7.605c-4.193,0-7.605,3.412-7.605,7.605
		c0,2.165,0.917,4.113,2.374,5.498c-0.001,0.01-0.006,0.018-0.006,0.028v42.632c0,0.276,0.224,0.5,0.5,0.5h1.869V70
		c0,0.276,0.224,0.5,0.5,0.5h4.737c0.276,0,0.5-0.224,0.5-0.5v-4.236h1.868c0.276,0,0.5-0.224,0.5-0.5V22.632
		c0-0.01-0.005-0.018-0.006-0.028C62.873,21.218,63.79,19.27,63.79,17.105z M56.184,10.5c3.642,0,6.605,2.963,6.605,6.605
		c0,0.185-0.02,0.365-0.035,0.546h-13.14c-0.015-0.181-0.035-0.361-0.035-0.546C49.579,13.463,52.542,10.5,56.184,10.5z
		 M49.769,18.651h12.83c-0.333,1.378-1.095,2.59-2.142,3.48h-8.546C50.864,21.241,50.102,20.029,49.769,18.651z M58.053,69.5h-3.737
		v-3.736h3.737V69.5z M60.421,64.764h-1.868h-4.737h-1.869V23.132h8.474V64.764z"/>
	<path class="st0" d="M56.184,46.815c1.582,0,2.869-1.287,2.869-2.868s-1.287-2.868-2.869-2.868s-2.868,1.287-2.868,2.868
		S54.603,46.815,56.184,46.815z"/>
	<path class="st0" d="M53.816,37.342h4.737c0.276,0,0.5-0.224,0.5-0.5v-4.736c0-0.276-0.224-0.5-0.5-0.5h-4.737
		c-0.276,0-0.5,0.224-0.5,0.5v4.736C53.316,37.118,53.54,37.342,53.816,37.342z M54.316,32.605h3.737v3.736h-3.737V32.605z"/>
	<path class="st0" d="M35.577,46.815c0.276,0,0.5-0.224,0.5-0.5v-4.736c0-0.276-0.224-0.5-0.5-0.5H21.366
		c-0.276,0-0.5,0.224-0.5,0.5v4.736c0,0.276,0.224,0.5,0.5,0.5H35.577z M21.866,42.079h13.211v3.736H21.866V42.079z"/>
	<path class="st0" d="M36.158,36.616V20.787c0-0.031-0.012-0.058-0.018-0.088c0.004-0.059,0.018-0.115,0.018-0.175
		c0-1.581-1.287-2.868-2.868-2.868s-2.869,1.287-2.869,2.868c0,0.06,0.014,0.116,0.018,0.175c-0.005,0.03-0.018,0.057-0.018,0.088
		v15.816h-9.71c-2.481,0-4.5,2.019-4.5,4.5V70c0,0.276,0.224,0.5,0.5,0.5h23.32c0.276,0,0.5-0.224,0.5-0.5V41.103
		C40.53,38.666,38.579,36.686,36.158,36.616z M31.421,22.682c0.503,0.436,1.152,0.71,1.869,0.71c0.717,0,1.365-0.274,1.868-0.71
		v13.921h-3.737V22.682z M39.53,69.5H17.21V41.103c0-1.93,1.57-3.5,3.5-3.5h15.32c1.93,0,3.5,1.57,3.5,3.5V69.5z"/>
	<path class="st0" d="M28.84,50.553c-1.582,0-2.869,1.287-2.869,2.868s1.287,2.868,2.869,2.868s2.868-1.287,2.868-2.868
		S30.422,50.553,28.84,50.553z M28.84,55.289c-1.03,0-1.869-0.838-1.869-1.868s0.838-1.868,1.869-1.868s1.868,0.838,1.868,1.868
		S29.871,55.289,28.84,55.289z"/>
	<path class="st0" d="M23.803,51.353c-0.195-0.195-0.512-0.195-0.707,0l-1.714,1.714c-0.094,0.094-0.146,0.221-0.146,0.354
		s0.053,0.26,0.146,0.354l1.714,1.715c0.098,0.098,0.226,0.146,0.354,0.146s0.256-0.049,0.354-0.146
		c0.195-0.195,0.195-0.512,0-0.707l-1.361-1.361l1.361-1.36C23.998,51.865,23.998,51.549,23.803,51.353z"/>
	<path class="st0" d="M34.584,51.353c-0.195-0.195-0.512-0.195-0.707,0s-0.195,0.512,0,0.707l1.361,1.36l-1.361,1.361
		c-0.195,0.195-0.195,0.512,0,0.707c0.098,0.098,0.226,0.146,0.354,0.146s0.256-0.049,0.354-0.146l1.715-1.715
		c0.094-0.094,0.146-0.221,0.146-0.354s-0.053-0.26-0.146-0.354L34.584,51.353z"/>
</g>
</svg>
