<?xml version="1.0" encoding="utf-8"?>
<!-- Generator: Adobe Illustrator 23.0.4, SVG Export Plug-In . SVG Version: 6.00 Build 0)  -->
<svg version="1.1" id="Calque_1" xmlns="http://www.w3.org/2000/svg" xmlns:xlink="http://www.w3.org/1999/xlink" x="0px" y="0px"
	 viewBox="0 0 80 80" style="enable-background:new 0 0 80 80;" xml:space="preserve">
<style type="text/css">
	.st0{fill:#231F20;}
	.st1{opacity:0.3;fill:none;stroke:#231F20;stroke-miterlimit:10;}
</style>
<g>
	<path class="st0" d="M61.814,61.315h-3.863V44.363c0-9.898-8.053-17.951-17.952-17.951s-17.952,8.053-17.952,17.951v16.952h-3.863
		c-0.276,0-0.5,0.224-0.5,0.5v4.362c0,0.276,0.224,0.5,0.5,0.5h43.629c0.276,0,0.5-0.224,0.5-0.5v-4.362
		C62.314,61.538,62.091,61.315,61.814,61.315z M23.048,44.363c0-9.347,7.604-16.951,16.952-16.951s16.952,7.604,16.952,16.951
		v16.952h-14.27V48.413c1.312-0.872,2.181-2.36,2.181-4.051c0-2.681-2.182-4.862-4.863-4.862s-4.863,2.182-4.863,4.862
		c0,1.69,0.869,3.179,2.181,4.051v12.901h-14.27V44.363z M38.318,61.315V48.908c0.526,0.195,1.088,0.318,1.682,0.318
		s1.155-0.122,1.682-0.318v12.407H38.318z M61.314,65.677H18.686v-3.362h3.863h34.903h3.863V65.677z"/>
	<path class="st0" d="M40,23.048c0.276,0,0.5-0.224,0.5-0.5v-8.726c0-0.276-0.224-0.5-0.5-0.5s-0.5,0.224-0.5,0.5v8.726
		C39.5,22.825,39.724,23.048,40,23.048z"/>
	<path class="st0" d="M29.827,24.803c0.085,0.183,0.265,0.289,0.454,0.289c0.071,0,0.143-0.015,0.211-0.047
		c0.25-0.116,0.358-0.414,0.242-0.664l-3.688-7.908c-0.117-0.251-0.415-0.359-0.665-0.242c-0.25,0.116-0.358,0.414-0.242,0.664
		L29.827,24.803z"/>
	<path class="st0" d="M22.467,30.724c0.094,0.079,0.208,0.117,0.321,0.117c0.143,0,0.285-0.061,0.383-0.179
		c0.178-0.211,0.15-0.526-0.062-0.704l-6.684-5.609c-0.211-0.178-0.527-0.149-0.704,0.062c-0.178,0.211-0.15,0.526,0.062,0.704
		L22.467,30.724z"/>
	<path class="st0" d="M18.429,39.217c0.221,0,0.422-0.147,0.482-0.37c0.072-0.268-0.087-0.541-0.354-0.613l-8.428-2.259
		c-0.267-0.064-0.54,0.088-0.612,0.354c-0.071,0.268,0.087,0.541,0.354,0.613l8.428,2.259
		C18.342,39.211,18.386,39.217,18.429,39.217z"/>
	<path class="st0" d="M49.508,25.045c0.068,0.032,0.14,0.047,0.211,0.047c0.188,0,0.369-0.106,0.454-0.289l3.688-7.908
		c0.117-0.25,0.008-0.548-0.242-0.664c-0.249-0.116-0.548-0.008-0.665,0.242l-3.688,7.908C49.15,24.631,49.258,24.929,49.508,25.045
		z"/>
	<path class="st0" d="M57.212,30.841c0.113,0,0.227-0.038,0.321-0.117l6.684-5.609c0.211-0.178,0.239-0.493,0.062-0.704
		c-0.177-0.211-0.491-0.239-0.704-0.062l-6.684,5.609c-0.211,0.178-0.239,0.493-0.062,0.704
		C56.927,30.781,57.069,30.841,57.212,30.841z"/>
	<path class="st0" d="M70.483,36.328c-0.072-0.266-0.345-0.419-0.612-0.354l-8.428,2.259c-0.267,0.072-0.425,0.346-0.354,0.613
		c0.06,0.223,0.262,0.37,0.482,0.37c0.043,0,0.086-0.006,0.13-0.017l8.428-2.259C70.396,36.869,70.554,36.596,70.483,36.328z"/>
</g>
</svg>
