<?xml version="1.0" encoding="utf-8"?>
<!-- Generator: Adobe Illustrator 23.0.4, SVG Export Plug-In . SVG Version: 6.00 Build 0)  -->
<svg version="1.1" id="Calque_1" xmlns="http://www.w3.org/2000/svg" xmlns:xlink="http://www.w3.org/1999/xlink" x="0px" y="0px"
	 viewBox="0 0 80 80" style="enable-background:new 0 0 80 80;" xml:space="preserve">
<style type="text/css">
	.st0{fill:#231F20;}
	.st1{opacity:0.3;fill:none;stroke:#231F20;stroke-miterlimit:10;}
</style>
<g>
	<path class="st0" d="M35.634,33.996c0-0.449-0.176-0.871-0.496-1.188c-0.533-0.527-1.336-0.62-1.973-0.29l-0.745-0.739l2.202-2.184
		c0.095-0.095,0.148-0.223,0.148-0.355c0-0.134-0.053-0.261-0.148-0.355c-1.485-1.472-3.823-1.566-5.438-0.313l-0.125-0.124
		l2.277-2.259c0.095-0.095,0.148-0.222,0.148-0.355s-0.053-0.261-0.148-0.355l-0.177-0.176l-1.09-1.083
		c-0.002-0.002-0.006-0.003-0.008-0.005l-3.408-3.38l0.97-0.962l1.328,1.317c0.097,0.097,0.225,0.146,0.352,0.146
		s0.254-0.048,0.352-0.145l5.042-5c0.095-0.095,0.148-0.222,0.148-0.355s-0.053-0.261-0.148-0.355l-3.361-3.333
		c-0.195-0.193-0.509-0.193-0.704,0l-5.042,4.999c-0.095,0.095-0.148,0.222-0.148,0.355c0,0.133,0.053,0.261,0.148,0.354
		l1.323,1.312l-0.97,0.962l-3.009-2.984c-0.195-0.193-0.51-0.191-0.704,0l-1.328,1.318l-0.771-0.767
		c-0.195-0.192-0.509-0.195-0.704-0.001l-1.682,1.665c-0.095,0.094-0.148,0.222-0.148,0.354c0,0.134,0.053,0.262,0.147,0.355
		l0.768,0.763l-1.322,1.312c-0.095,0.095-0.148,0.222-0.148,0.355s0.053,0.261,0.148,0.355l3.002,2.978l-0.97,0.962l-1.328-1.317
		c-0.195-0.193-0.509-0.193-0.704,0l-5.042,5C12.053,30.571,12,30.698,12,30.832s0.053,0.261,0.148,0.355l3.361,3.333
		c0.098,0.097,0.225,0.145,0.352,0.145s0.254-0.048,0.352-0.145l5.042-5c0.095-0.095,0.148-0.222,0.148-0.355
		s-0.053-0.261-0.148-0.355l-1.322-1.311l0.97-0.962l4.689,4.651c0.098,0.097,0.225,0.145,0.352,0.145s0.254-0.048,0.352-0.145
		l2.055-2.038l0.125,0.124c-0.564,0.716-0.886,1.582-0.886,2.505c0,1.095,0.429,2.122,1.208,2.896
		c0.098,0.097,0.225,0.145,0.352,0.145s0.255-0.049,0.352-0.145l2.208-2.19l0.746,0.74c-0.125,0.237-0.198,0.498-0.198,0.773
		c0,0.449,0.176,0.871,0.496,1.188c0.329,0.326,0.761,0.489,1.192,0.489s0.863-0.163,1.192-0.489
		C35.458,34.867,35.634,34.445,35.634,33.996z M19.777,18.753l0.385,0.383l-0.972,0.961l-0.385-0.382L19.777,18.753z M30.263,25.821
		l-4.34,4.286l-0.547-0.544l4.339-4.285L30.263,25.821z M30.985,13.204l2.651,2.629l-4.332,4.296l-1.324-1.313
		c-0.001-0.001-0.001-0.001-0.001-0.002c-0.001-0.001-0.002-0.001-0.002-0.001l-1.323-1.313L30.985,13.204z M22.583,18.203
		l3.003,2.979c0.001,0.001,0.001,0.003,0.003,0.004c0.001,0.001,0.003,0.002,0.004,0.003l3.413,3.385l-4.341,4.287l-3.406-3.378
		c-0.001-0.001-0.001-0.001-0.001-0.002c-0.001-0.001-0.002-0.001-0.002-0.002l-3.003-2.979L22.583,18.203z M15.861,33.461
		l-2.651-2.629l4.332-4.296l1.323,1.312c0.001,0.001,0.001,0.002,0.002,0.003c0.001,0.001,0.003,0.001,0.004,0.002l1.322,1.311
		L15.861,33.461z M29.178,33.587c-0.382-0.523-0.588-1.15-0.588-1.809c0-0.824,0.324-1.601,0.913-2.184
		c0.609-0.604,1.409-0.906,2.208-0.906c0.64,0,1.28,0.193,1.821,0.579L29.178,33.587z"/>
	<path class="st0" d="M40.031,34.501c-0.273-0.019-0.513,0.191-0.53,0.468c-0.074,1.177-0.579,2.286-1.421,3.121
		c-0.844,0.837-1.963,1.338-3.152,1.411c-0.276,0.017-0.485,0.254-0.468,0.53c0.016,0.265,0.236,0.469,0.499,0.469
		c0.01,0,0.021,0,0.031-0.001c1.431-0.088,2.779-0.691,3.795-1.699s1.625-2.347,1.715-3.769
		C40.517,34.756,40.307,34.519,40.031,34.501z"/>
	<path class="st0" d="M34.769,39.06c1.111-0.069,2.158-0.538,2.947-1.32c0.79-0.783,1.263-1.822,1.332-2.927
		c0.017-0.275-0.192-0.513-0.468-0.53c-0.271-0.022-0.513,0.192-0.53,0.468c-0.054,0.859-0.423,1.669-1.038,2.279
		c-0.617,0.611-1.435,0.978-2.305,1.032c-0.275,0.018-0.485,0.255-0.468,0.53c0.017,0.265,0.237,0.469,0.499,0.469
		C34.747,39.061,34.758,39.061,34.769,39.06z"/>
	<path class="st0" d="M34.418,36.879c0.016,0.266,0.236,0.47,0.499,0.47c0.01,0,0.021,0,0.031-0.001
		c0.616-0.038,1.197-0.297,1.634-0.731c0.438-0.435,0.701-1.012,0.739-1.626c0.017-0.275-0.192-0.513-0.468-0.53
		c-0.279-0.027-0.513,0.192-0.53,0.468c-0.023,0.369-0.181,0.717-0.445,0.979c-0.265,0.263-0.617,0.42-0.992,0.443
		C34.611,36.366,34.401,36.604,34.418,36.879z"/>
	<path class="st0" d="M68,55.469c0-3.7-1.621-7.02-4.18-9.316c-0.009-0.011-0.011-0.025-0.021-0.036
		c-0.032-0.036-0.071-0.058-0.11-0.082c-2.203-1.922-5.075-3.096-8.221-3.096c-3.147,0-6.019,1.175-8.222,3.098
		c-0.038,0.024-0.077,0.046-0.108,0.081c-0.01,0.011-0.012,0.025-0.021,0.036c-0.045,0.041-0.09,0.081-0.135,0.123L41.207,40.5h2.23
		c0.276,0,0.5-0.224,0.5-0.5s-0.224-0.5-0.5-0.5H40c-0.065,0-0.13,0.013-0.191,0.038c-0.122,0.051-0.22,0.148-0.271,0.271
		C39.513,39.87,39.5,39.935,39.5,40v3.438c0,0.276,0.224,0.5,0.5,0.5s0.5-0.224,0.5-0.5v-2.23l5.775,5.775
		c-2.065,2.235-3.338,5.211-3.338,8.487c0,3.698,1.619,7.016,4.174,9.311c0.01,0.014,0.013,0.03,0.024,0.042
		c0.038,0.042,0.083,0.072,0.13,0.098c2.201,1.912,5.065,3.08,8.203,3.08c3.147,0,6.019-1.175,8.222-3.098
		c0.038-0.024,0.078-0.045,0.11-0.08c0.011-0.012,0.014-0.028,0.024-0.041C66.38,62.485,68,59.167,68,55.469z M63.393,63.824
		c-0.936-0.766-1.969-1.386-3.069-1.849c1.072-2,1.68-4.005,1.823-6.006h4.828C66.841,59.056,65.495,61.829,63.393,63.824z
		 M47.545,47.114c0.852,0.697,1.782,1.274,2.772,1.721c-0.766,1.486-1.364,3.221-1.523,5.187c-0.025,0.316-0.037,0.631-0.039,0.947
		h-4.792C44.096,51.881,45.442,49.108,47.545,47.114z M55.969,62.007c0.986,0.043,1.955,0.209,2.886,0.495
		c-0.768,1.244-1.739,2.487-2.886,3.729V62.007z M55.969,61.007v-5.038h5.166c-0.146,1.873-0.747,3.759-1.776,5.647
		C58.269,61.26,57.13,61.054,55.969,61.007z M55.969,54.969v-5.038c1.275-0.051,2.523-0.29,3.708-0.713
		c0.741,1.407,1.323,3.049,1.47,4.894c0.023,0.285,0.008,0.572,0.01,0.857H55.969z M54.969,44.504v4.427
		c-1.1-0.048-2.176-0.25-3.205-0.599C52.865,46.544,54.156,45.232,54.969,44.504z M55.969,48.931v-4.427
		c0.812,0.728,2.104,2.04,3.204,3.828C58.145,48.68,57.068,48.883,55.969,48.931z M56.961,44.046
		c2.125,0.276,4.068,1.128,5.668,2.401c-0.77,0.611-1.607,1.117-2.496,1.51C59.084,46.203,57.854,44.877,56.961,44.046z
		 M50.804,47.957c-0.888-0.393-1.726-0.899-2.496-1.51c1.6-1.273,3.543-2.125,5.668-2.401
		C53.083,44.877,51.853,46.203,50.804,47.957z M49.79,54.111c0.147-1.845,0.729-3.487,1.47-4.894
		c1.185,0.423,2.434,0.662,3.708,0.713v5.038h-5.188C49.783,54.683,49.767,54.397,49.79,54.111z M54.969,55.969v5.038
		c-1.162,0.046-2.3,0.253-3.39,0.609c-1.029-1.888-1.631-3.774-1.776-5.647H54.969z M54.969,62.007v4.224
		c-1.147-1.242-2.118-2.485-2.886-3.729C53.014,62.216,53.982,62.05,54.969,62.007z M54.229,66.931
		c-2.224-0.239-4.257-1.116-5.921-2.44c0.858-0.681,1.801-1.233,2.803-1.643C51.936,64.214,52.974,65.576,54.229,66.931z
		 M59.826,62.849c1.002,0.409,1.945,0.961,2.803,1.643c-1.664,1.323-3.696,2.201-5.92,2.44
		C57.963,65.576,59.001,64.214,59.826,62.849z M66.975,54.969h-4.793c-0.002-0.316-0.013-0.632-0.039-0.947
		c-0.159-1.966-0.757-3.701-1.523-5.187c0.99-0.447,1.921-1.024,2.772-1.721C65.495,49.108,66.841,51.881,66.975,54.969z
		 M43.963,55.969h4.828c0.143,2.001,0.751,4.007,1.823,6.006c-1.1,0.463-2.133,1.083-3.069,1.849
		C45.442,61.829,44.096,59.056,43.963,55.969z"/>
</g>
</svg>
