<?xml version="1.0" encoding="utf-8"?>
<!-- Generator: Adobe Illustrator 23.0.4, SVG Export Plug-In . SVG Version: 6.00 Build 0)  -->
<svg version="1.1" id="Calque_1" xmlns="http://www.w3.org/2000/svg" xmlns:xlink="http://www.w3.org/1999/xlink" x="0px" y="0px"
	 viewBox="0 0 80 80" style="enable-background:new 0 0 80 80;" xml:space="preserve">
<style type="text/css">
	.st0{fill:#231F20;}
	.st1{opacity:0.3;fill:none;stroke:#231F20;stroke-miterlimit:10;}
</style>
<path class="st0" d="M67.783,38.324c-0.002-0.014-0.01-0.026-0.012-0.04c-0.002-0.01,0.002-0.02-0.001-0.03
	c-0.035-0.133-3.684-13.313-17.604-13.313H36.469c-1.146,0-3.15,0.563-3.746,2.516h-3.102c-0.276,0-0.5,0.224-0.5,0.5v0.938h-2.924
	c-0.119,0-2.924-0.031-2.924-2.735c0-2.643,2.626-2.734,2.924-2.735h6.849c1.357,0,3.924-0.781,3.924-3.735v-3.235
	c0-0.276-0.224-0.5-0.5-0.5s-0.5,0.224-0.5,0.5v3.235c0,2.643-2.626,2.734-2.924,2.735h-6.849c-1.357,0-3.924,0.781-3.924,3.735
	s2.567,3.735,3.924,3.735h2.924v1.297c0,0.276,0.224,0.5,0.5,0.5h2.924v0.438h-2.924c-0.276,0-0.5,0.224-0.5,0.5v1.297h-6.348
	c-6.248,0-6.347-5.017-6.348-5.229v-3.258c0-1.765,0.521-3.172,1.548-4.182c1.848-1.816,4.764-1.784,4.8-1.789h6.848
	c1.357,0,3.924-0.781,3.924-3.735V12.5c0-0.276-0.224-0.5-0.5-0.5s-0.5,0.224-0.5,0.5v3.235c0,2.643-2.626,2.734-2.924,2.735h-6.838
	c-0.133,0.005-3.351-0.042-5.505,2.069c-1.229,1.206-1.853,2.854-1.853,4.901v3.258c0,0.062,0.084,6.229,7.348,6.229h6.348v0.938
	c0,0.276,0.224,0.5,0.5,0.5h2.924v1.827c-0.054,0.04-0.11,0.077-0.159,0.124l-2.793,2.639c-0.108,0.103-0.261,0.161-0.419,0.161
	h-2.978C26.054,41.117,12,41.271,12,54.559S26.054,68,26.196,68h23.969c4.996,0,9.034-1.692,12.003-5.031
	C69.601,54.611,67.86,38.985,67.783,38.324z M36.469,25.941h13.697c11.584,0,15.568,9.371,16.442,11.941H33.545v-2.016v-3.235
	v-1.438v-2.517C33.545,26.034,36.171,25.943,36.469,25.941z M61.421,62.305C58.65,65.42,54.863,67,50.166,67H26.197
	c-0.034,0-3.379-0.022-6.664-1.583C15.198,63.356,13,59.703,13,54.559s2.198-8.798,6.533-10.858c3.284-1.561,6.63-1.583,6.663-1.583
	h2.978c0.417,0,0.811-0.154,1.106-0.435l2.792-2.639c0.109-0.103,0.262-0.162,0.419-0.162h33.341
	C67.06,41.496,67.883,55.038,61.421,62.305z"/>
</svg>
