<?xml version="1.0" encoding="utf-8"?>
<!-- Generator: Adobe Illustrator 23.0.4, SVG Export Plug-In . SVG Version: 6.00 Build 0)  -->
<svg version="1.1" id="Calque_1" xmlns="http://www.w3.org/2000/svg" xmlns:xlink="http://www.w3.org/1999/xlink" x="0px" y="0px"
	 viewBox="0 0 80 80" style="enable-background:new 0 0 80 80;" xml:space="preserve">
<style type="text/css">
	.st0{fill:#231F20;}
	.st1{opacity:0.3;fill:none;stroke:#231F20;stroke-miterlimit:10;}
</style>
<g>
	<path class="st0" d="M60.496,10.023c0.002-0.042-0.007-0.082-0.015-0.123c-0.005-0.024-0.005-0.049-0.014-0.073
		c-0.013-0.035-0.037-0.066-0.058-0.098c-0.015-0.022-0.022-0.048-0.04-0.068c-0.003-0.003-0.007-0.004-0.009-0.007
		c-0.002-0.002-0.003-0.006-0.005-0.008c-0.026-0.026-0.059-0.04-0.089-0.059c-0.024-0.015-0.044-0.036-0.07-0.047
		C60.132,9.515,60.066,9.5,60,9.5H20c-0.066,0-0.132,0.014-0.194,0.041c-0.026,0.011-0.046,0.031-0.07,0.047
		c-0.03,0.019-0.063,0.033-0.089,0.059c-0.002,0.002-0.003,0.006-0.005,0.008c-0.003,0.003-0.007,0.004-0.009,0.007
		c-0.018,0.02-0.026,0.046-0.04,0.068c-0.021,0.032-0.045,0.063-0.058,0.098C19.525,9.851,19.525,9.875,19.52,9.9
		c-0.008,0.041-0.017,0.081-0.015,0.123c0,0.007-0.003,0.013-0.002,0.02L23.5,58.019V70c0,0.276,0.224,0.5,0.5,0.5h32
		c0.276,0,0.5-0.224,0.5-0.5V58.019l3.998-47.977C60.499,10.035,60.495,10.029,60.496,10.023z M25.207,57.5l2.293-2.293V57.5H25.207
		z M55.5,53.793l-3,3v-2.586l3-3V53.793z M54.793,14.5L52.5,16.793V14.5H54.793z M55.5,45.793l-3,3v-2.586l3-3V45.793z M55.5,41.793
		l-3,3v-2.586l3-3V41.793z M55.5,37.793l-3,3v-2.586l3-3V37.793z M55.5,33.793l-3,3v-2.586l3-3V33.793z M55.5,29.793l-3,3v-2.586
		l3-3V29.793z M55.5,25.793l-3,3v-2.586l3-3V25.793z M55.5,21.793l-3,3v-2.586l3-3V21.793z M55.5,17.793l-3,3v-2.586l3-3V17.793z
		 M55.5,49.793l-3,3v-2.586l3-3V49.793z M55.793,13.5H52H28h-3.793l-3-3h37.586L55.793,13.5z M27.5,49.793l-3,3v-2.586l3-3V49.793z
		 M27.5,45.793l-3,3v-2.586l3-3V45.793z M27.5,41.793l-3,3v-2.586l3-3V41.793z M27.5,37.793l-3,3v-2.586l3-3V37.793z M27.5,33.793
		l-3,3v-2.586l3-3V33.793z M27.5,29.793l-3,3v-2.586l3-3V29.793z M27.5,25.793l-3,3v-2.586l3-3V25.793z M27.5,21.793l-3,3v-2.586
		l3-3V21.793z M27.5,17.793l-3,3v-2.586l3-3V17.793z M24.5,16.793V14.5h2.293L24.5,16.793z M24.5,54.207l3-3v2.586l-3,3V54.207z
		 M23.5,14.207v31.774l-2.888-34.662L23.5,14.207z M28.5,14.5h23v43h-23V14.5z M55.5,55.207V57.5h-2.293L55.5,55.207z M56.5,14.207
		l2.888-2.888L56.5,45.981V14.207z M55.5,69.5h-31v-11H28h24h3.5V69.5z"/>
	<path class="st0" d="M48,29.5H32c-0.276,0-0.5,0.224-0.5,0.5v12c0,0.276,0.224,0.5,0.5,0.5h16c0.276,0,0.5-0.224,0.5-0.5V30
		C48.5,29.724,48.276,29.5,48,29.5z M47.5,41.5h-15v-11h15V41.5z"/>
	<path class="st0" d="M48,17.5H32c-0.276,0-0.5,0.224-0.5,0.5v8c0,0.276,0.224,0.5,0.5,0.5h16c0.276,0,0.5-0.224,0.5-0.5v-8
		C48.5,17.724,48.276,17.5,48,17.5z M47.5,25.5h-15v-7h15V25.5z"/>
	<path class="st0" d="M44,45.5h-8c-2.481,0-4.5,2.019-4.5,4.5s2.019,4.5,4.5,4.5h8c2.481,0,4.5-2.019,4.5-4.5S46.481,45.5,44,45.5z
		 M44,53.5h-8c-1.93,0-3.5-1.57-3.5-3.5s1.57-3.5,3.5-3.5h8c1.93,0,3.5,1.57,3.5,3.5S45.93,53.5,44,53.5z"/>
	<circle class="st0" cx="36" cy="22" r="2.5"/>
	<circle class="st0" cx="44" cy="22" r="2.5"/>
	<path class="st0" d="M44.214,48.359c-0.006-0.01-0.018-0.01-0.025-0.018c-0.021-0.027-0.046-0.039-0.076-0.056
		c-0.029-0.016-0.051-0.031-0.084-0.035c-0.011-0.001-0.018-0.012-0.029-0.012h-8c-0.011,0-0.018,0.011-0.029,0.012
		c-0.032,0.004-0.054,0.019-0.082,0.034c-0.03,0.017-0.057,0.029-0.078,0.057c-0.007,0.008-0.019,0.009-0.025,0.018
		c-0.012,0.021-0.004,0.044-0.01,0.066c-0.007,0.022-0.026,0.038-0.026,0.063v3.025c0,0.025,0.019,0.041,0.026,0.063
		c0.006,0.022-0.002,0.045,0.01,0.066c0.007,0.012,0.02,0.018,0.029,0.028c0.01,0.011,0.018,0.019,0.03,0.029
		c0.045,0.038,0.097,0.064,0.155,0.064h8c0.058,0,0.11-0.027,0.155-0.064c0.012-0.01,0.02-0.017,0.03-0.029
		c0.009-0.01,0.022-0.016,0.029-0.028c0.012-0.021,0.004-0.044,0.01-0.066c0.007-0.022,0.026-0.038,0.026-0.063v-3.025
		c0-0.025-0.019-0.041-0.026-0.063C44.218,48.402,44.226,48.379,44.214,48.359z M36.25,48.93L38.024,50l-1.774,1.07V48.93z
		 M41.423,49.75h-2.846l-1.679-1.013h6.204L41.423,49.75z M38.577,50.25h2.846l1.679,1.013h-6.204L38.577,50.25z M41.976,50
		l1.774-1.07v2.141L41.976,50z"/>
</g>
</svg>
