<?xml version="1.0" encoding="utf-8"?>
<!-- Generator: Adobe Illustrator 23.0.4, SVG Export Plug-In . SVG Version: 6.00 Build 0)  -->
<svg version="1.1" id="Calque_1" xmlns="http://www.w3.org/2000/svg" xmlns:xlink="http://www.w3.org/1999/xlink" x="0px" y="0px"
	 viewBox="0 0 80 80" style="enable-background:new 0 0 80 80;" xml:space="preserve">
<style type="text/css">
	.st0{fill:#231F20;}
	.st1{opacity:0.3;fill:none;stroke:#231F20;stroke-miterlimit:10;}
</style>
<g>
	<path class="st0" d="M53.977,45.267h-3.106c-0.272,0-0.492,0.22-0.492,0.492v3.106c0,0.272,0.22,0.492,0.492,0.492h3.106
		c0.272,0,0.492-0.22,0.492-0.492v-3.106C54.469,45.487,54.249,45.267,53.977,45.267z M53.486,48.373h-2.122v-2.123h2.122V48.373z"
		/>
	<path class="st0" d="M56.592,45.759v3.106c0,0.272,0.22,0.492,0.492,0.492h3.106c0.272,0,0.492-0.22,0.492-0.492v-3.106
		c0-0.272-0.22-0.492-0.492-0.492h-3.106C56.812,45.267,56.592,45.487,56.592,45.759z M57.576,46.251h2.122v2.123h-2.122V46.251z"/>
	<path class="st0" d="M63.296,49.357h3.106c0.272,0,0.492-0.22,0.492-0.492v-3.106c0-0.272-0.22-0.492-0.492-0.492h-3.106
		c-0.272,0-0.492,0.22-0.492,0.492v3.106C62.804,49.137,63.024,49.357,63.296,49.357z"/>
	<path class="st0" d="M53.977,51.479h-3.106c-0.272,0-0.492,0.22-0.492,0.492v3.106c0,0.272,0.22,0.492,0.492,0.492h3.106
		c0.272,0,0.492-0.22,0.492-0.492v-3.106C54.469,51.699,54.249,51.479,53.977,51.479z"/>
	<path class="st0" d="M60.19,51.479h-3.106c-0.272,0-0.492,0.22-0.492,0.492v3.106c0,0.272,0.22,0.492,0.492,0.492h3.106
		c0.272,0,0.492-0.22,0.492-0.492v-3.106C60.682,51.699,60.462,51.479,60.19,51.479z M59.698,54.585h-2.122v-2.123h2.122V54.585z"/>
	<path class="st0" d="M63.296,55.569h3.106c0.272,0,0.492-0.22,0.492-0.492v-3.106c0-0.272-0.22-0.492-0.492-0.492h-3.106
		c-0.272,0-0.492,0.22-0.492,0.492v3.106C62.804,55.349,63.024,55.569,63.296,55.569z M63.788,52.463h2.123v2.123h-2.123V52.463z"/>
	<path class="st0" d="M53.977,57.692h-3.106c-0.272,0-0.492,0.22-0.492,0.492v3.106c0,0.272,0.22,0.492,0.492,0.492h3.106
		c0.272,0,0.492-0.22,0.492-0.492v-3.106C54.469,57.912,54.249,57.692,53.977,57.692z M53.486,60.798h-2.122v-2.123h2.122V60.798z"
		/>
	<path class="st0" d="M60.19,57.692h-3.106c-0.272,0-0.492,0.22-0.492,0.492v3.106c0,0.272,0.22,0.492,0.492,0.492h3.106
		c0.272,0,0.492-0.22,0.492-0.492v-3.106C60.682,57.912,60.462,57.692,60.19,57.692z M59.698,60.798h-2.122v-2.123h2.122V60.798z"/>
	<path class="st0" d="M63.296,61.782h3.106c0.272,0,0.492-0.22,0.492-0.492v-3.106c0-0.272-0.22-0.492-0.492-0.492h-3.106
		c-0.272,0-0.492,0.22-0.492,0.492v3.106C62.804,61.562,63.024,61.782,63.296,61.782z M63.788,58.675h2.123v2.123h-2.123V58.675z"/>
	<path class="st0" d="M69.752,42.225l-10.872-6.212c-0.151-0.086-0.337-0.086-0.488,0l-4.903,2.802V27.411h8.799
		c0.966,0,2.794-0.584,2.794-2.794c0-1.963-1.442-2.643-2.442-2.771c-0.966-2.412-3.113-2.7-4.52-2.448
		c-0.195-1.355-1.075-4.481-5.041-4.481c-4.121,0-4.91,3.375-5.061,4.632c-1.412,0.166-3.489,1.118-3.489,3.918
		c0,3.121,2.581,3.945,3.945,3.945h4.031v11.965l-4.249,2.428V30.229c0-0.272-0.22-0.492-0.492-0.492H26.023
		c-0.272,0-0.492,0.22-0.492,0.492v17.613l-6.966-5.573c-0.18-0.144-0.435-0.144-0.615,0l-7.765,6.213
		C10.068,48.574,10,48.715,10,48.865v15.53c0,0.272,0.22,0.492,0.492,0.492h15.531h21.743h21.743c0.272,0,0.492-0.22,0.492-0.492
		V42.652C70,42.476,69.905,42.313,69.752,42.225z M45.514,23.466c0-2.861,2.66-2.96,2.963-2.962c0.27-0.002,0.49-0.221,0.49-0.492
		c0-0.168,0.047-4.112,4.113-4.112c4.047,0,4.112,3.945,4.113,4.113c0.001,0.158,0.077,0.306,0.205,0.398
		c0.128,0.092,0.292,0.116,0.442,0.068c0.121-0.042,2.997-0.962,3.982,1.991c0.066,0.199,0.254,0.334,0.464,0.336
		c0.185,0.002,1.813,0.068,1.813,1.811c0,1.74-1.621,1.809-1.812,1.811H48.475C48.354,26.428,45.514,26.394,45.514,23.466z
		 M10.984,49.102l7.273-5.819l7.274,5.819v14.802H10.984V49.102z M26.514,48.865V30.72h20.759v11.932v21.251H26.514V48.865z
		 M69.016,63.904H48.257V42.938l4.92-2.811c0.02-0.008,0.036-0.021,0.055-0.032l5.404-3.088l10.38,5.93V63.904z"/>
	<path class="st0" d="M16.704,51.479h-3.106c-0.272,0-0.492,0.22-0.492,0.492v3.106c0,0.272,0.22,0.492,0.492,0.492h3.106
		c0.272,0,0.492-0.22,0.492-0.492v-3.106C17.196,51.699,16.976,51.479,16.704,51.479z M16.212,54.585H14.09v-2.123h2.123V54.585z"/>
	<path class="st0" d="M22.916,51.479H19.81c-0.272,0-0.492,0.22-0.492,0.492v3.106c0,0.272,0.22,0.492,0.492,0.492h3.106
		c0.272,0,0.492-0.22,0.492-0.492v-3.106C23.408,51.699,23.188,51.479,22.916,51.479z"/>
	<path class="st0" d="M16.704,57.692h-3.106c-0.272,0-0.492,0.22-0.492,0.492v3.106c0,0.272,0.22,0.492,0.492,0.492h3.106
		c0.272,0,0.492-0.22,0.492-0.492v-3.106C17.196,57.912,16.976,57.692,16.704,57.692z M16.212,60.798H14.09v-2.123h2.123V60.798z"/>
	<path class="st0" d="M22.916,57.692H19.81c-0.272,0-0.492,0.22-0.492,0.492v3.106c0,0.272,0.22,0.492,0.492,0.492h3.106
		c0.272,0,0.492-0.22,0.492-0.492v-3.106C23.408,57.912,23.188,57.692,22.916,57.692z M22.424,60.798h-2.122v-2.123h2.122V60.798z"
		/>
	<path class="st0" d="M29.128,49.357h3.106c0.272,0,0.492-0.22,0.492-0.492v-3.106c0-0.272-0.22-0.492-0.492-0.492h-3.106
		c-0.272,0-0.492,0.22-0.492,0.492v3.106C28.637,49.137,28.857,49.357,29.128,49.357z M29.62,46.251h2.123v2.123H29.62V46.251z"/>
	<path class="st0" d="M44.659,45.267h-9.318c-0.272,0-0.492,0.22-0.492,0.492v3.106c0,0.272,0.22,0.492,0.492,0.492h9.318
		c0.272,0,0.492-0.22,0.492-0.492v-3.106C45.151,45.487,44.931,45.267,44.659,45.267z"/>
	<path class="st0" d="M29.128,55.569h3.106c0.272,0,0.492-0.22,0.492-0.492v-3.106c0-0.272-0.22-0.492-0.492-0.492h-3.106
		c-0.272,0-0.492,0.22-0.492,0.492v3.106C28.637,55.349,28.857,55.569,29.128,55.569z M29.62,52.463h2.123v2.123H29.62V52.463z"/>
	<path class="st0" d="M38.447,51.479h-3.106c-0.272,0-0.492,0.22-0.492,0.492v3.106c0,0.272,0.22,0.492,0.492,0.492h3.106
		c0.272,0,0.492-0.22,0.492-0.492v-3.106C38.939,51.699,38.719,51.479,38.447,51.479z M37.955,54.585h-2.122v-2.123h2.122V54.585z"
		/>
	<path class="st0" d="M44.659,51.479h-3.106c-0.272,0-0.492,0.22-0.492,0.492v3.106c0,0.272,0.22,0.492,0.492,0.492h3.106
		c0.272,0,0.492-0.22,0.492-0.492v-3.106C45.151,51.699,44.931,51.479,44.659,51.479z M44.167,54.585h-2.122v-2.123h2.122V54.585z"
		/>
	<path class="st0" d="M38.447,57.692h-9.318c-0.272,0-0.492,0.22-0.492,0.492v3.106c0,0.272,0.22,0.492,0.492,0.492h9.318
		c0.272,0,0.492-0.22,0.492-0.492v-3.106C38.939,57.912,38.719,57.692,38.447,57.692z M37.955,60.798H29.62v-2.123h8.335V60.798z"/>
	<path class="st0" d="M44.659,57.692h-3.106c-0.272,0-0.492,0.22-0.492,0.492v3.106c0,0.272,0.22,0.492,0.492,0.492h3.106
		c0.272,0,0.492-0.22,0.492-0.492v-3.106C45.151,57.912,44.931,57.692,44.659,57.692z"/>
	<path class="st0" d="M29.128,36.932h9.318c0.272,0,0.492-0.22,0.492-0.492v-3.106c0-0.272-0.22-0.492-0.492-0.492h-9.318
		c-0.272,0-0.492,0.22-0.492,0.492v3.106C28.637,36.712,28.857,36.932,29.128,36.932z M29.62,33.826h8.335v2.123H29.62V33.826z"/>
	<path class="st0" d="M44.659,32.842h-3.106c-0.272,0-0.492,0.22-0.492,0.492v3.106c0,0.272,0.22,0.492,0.492,0.492h3.106
		c0.272,0,0.492-0.22,0.492-0.492v-3.106C45.151,33.062,44.931,32.842,44.659,32.842z M44.167,35.949h-2.122v-2.123h2.122V35.949z"
		/>
	<path class="st0" d="M29.128,43.144h3.106c0.272,0,0.492-0.22,0.492-0.492v-3.105c0-0.272-0.22-0.492-0.492-0.492h-3.106
		c-0.272,0-0.492,0.22-0.492,0.492v3.105C28.637,42.924,28.857,43.144,29.128,43.144z"/>
	<path class="st0" d="M38.447,39.055h-3.106c-0.272,0-0.492,0.22-0.492,0.492v3.105c0,0.272,0.22,0.492,0.492,0.492h3.106
		c0.272,0,0.492-0.22,0.492-0.492v-3.105C38.939,39.275,38.719,39.055,38.447,39.055z M37.955,42.161h-2.122v-2.122h2.122V42.161z"
		/>
	<path class="st0" d="M44.659,39.055h-3.106c-0.272,0-0.492,0.22-0.492,0.492v3.105c0,0.272,0.22,0.492,0.492,0.492h3.106
		c0.272,0,0.492-0.22,0.492-0.492v-3.105C45.151,39.275,44.931,39.055,44.659,39.055z M44.167,42.161h-2.122v-2.122h2.122V42.161z"
		/>
	<path class="st0" d="M53.427,24.249c0-0.237-0.192-0.429-0.429-0.429s-0.429,0.192-0.429,0.429c0,0.237,0.192,0.429,0.429,0.429
		S53.427,24.486,53.427,24.249z"/>
	<path class="st0" d="M55.2,21.799c0.07,0.061,0.157,0.092,0.244,0.092c0.102,0,0.204-0.042,0.277-0.125
		c0.134-0.153,0.12-0.386-0.033-0.521c-1.485-1.311-3.892-1.311-5.38,0c-0.153,0.134-0.168,0.368-0.033,0.521
		c0.135,0.153,0.368,0.166,0.521,0.033C52.014,20.724,53.983,20.725,55.2,21.799z"/>
	<path class="st0" d="M54.603,22.749c0.07,0.061,0.157,0.092,0.244,0.092c0.102,0,0.204-0.042,0.277-0.125
		c0.134-0.153,0.12-0.385-0.033-0.521c-1.155-1.02-3.032-1.02-4.186,0c-0.153,0.135-0.167,0.368-0.033,0.521
		c0.134,0.153,0.368,0.166,0.521,0.033C52.278,21.967,53.717,21.967,54.603,22.749z"/>
	<path class="st0" d="M53.678,23.637c0.07,0.061,0.157,0.092,0.244,0.092c0.102,0,0.204-0.042,0.277-0.125
		c0.135-0.153,0.12-0.386-0.033-0.521c-0.646-0.571-1.691-0.571-2.337,0c-0.153,0.134-0.168,0.368-0.033,0.521
		c0.135,0.154,0.368,0.167,0.521,0.033C52.694,23.305,53.302,23.305,53.678,23.637z"/>
</g>
</svg>
