<?xml version="1.0" encoding="utf-8"?>
<!-- Generator: Adobe Illustrator 23.0.4, SVG Export Plug-In . SVG Version: 6.00 Build 0)  -->
<svg version="1.1" id="Calque_1" xmlns="http://www.w3.org/2000/svg" xmlns:xlink="http://www.w3.org/1999/xlink" x="0px" y="0px"
	 viewBox="0 0 80 80" style="enable-background:new 0 0 80 80;" xml:space="preserve">
<style type="text/css">
	.st0{fill:#231F20;}
	.st1{opacity:0.3;fill:none;stroke:#231F20;stroke-miterlimit:10;}
</style>
<g>
	<path class="st0" d="M64.765,55.154V15.736c0-0.276-0.224-0.5-0.5-0.5h-5.971V12.5c0-0.276-0.224-0.5-0.5-0.5s-0.5,0.224-0.5,0.5
		v2.735h-2.235V12.5c0-0.276-0.224-0.5-0.5-0.5s-0.5,0.224-0.5,0.5v2.735H22.706V12.5c0-0.276-0.224-0.5-0.5-0.5s-0.5,0.224-0.5,0.5
		v2.735h-2.235V12.5c0-0.276-0.224-0.5-0.5-0.5s-0.5,0.224-0.5,0.5v2.735H12.5c-0.276,0-0.5,0.224-0.5,0.5v48.529
		c0,0.276,0.224,0.5,0.5,0.5h42.654C56.393,66.707,58.56,68,61.029,68C64.873,68,68,64.873,68,61.03
		C68,58.561,66.706,56.393,64.765,55.154z M18.471,16.236v2.735c0,0.276,0.224,0.5,0.5,0.5s0.5-0.224,0.5-0.5v-2.735h2.235v2.735
		c0,0.276,0.224,0.5,0.5,0.5s0.5-0.224,0.5-0.5v-2.735h31.353v2.735c0,0.276,0.224,0.5,0.5,0.5s0.5-0.224,0.5-0.5v-2.735h2.235
		v2.735c0,0.276,0.224,0.5,0.5,0.5s0.5-0.224,0.5-0.5v-2.735h5.471v5.47H13v-5.47H18.471z M13,63.765v-41.06h50.765v31.914
		c-0.84-0.36-1.765-0.56-2.735-0.56c-3.844,0-6.971,3.127-6.971,6.971c0,0.971,0.201,1.895,0.56,2.735H13z M61.029,67
		c-3.292,0-5.971-2.679-5.971-5.971c0-3.292,2.678-5.971,5.971-5.971S67,57.738,67,61.03C67,64.322,64.322,67,61.029,67z"/>
	<path class="st0" d="M64.488,57.347c-0.247-0.124-0.547-0.022-0.671,0.224l-2.925,5.851l-2.745-2.745
		c-0.195-0.195-0.512-0.195-0.707,0s-0.195,0.512,0,0.707l3.235,3.235c0.095,0.095,0.222,0.146,0.354,0.146
		c0.026,0,0.053-0.002,0.08-0.007c0.159-0.025,0.295-0.126,0.367-0.27l3.235-6.471C64.835,57.771,64.735,57.471,64.488,57.347z"/>
	<path class="st0" d="M23.11,44.291v-5.906c0.297,0.177,0.66,0.295,1.118,0.295c1.048,0,1.115,0.935,1.118,1.118
		c0,0.276,0.224,0.5,0.5,0.5s0.5-0.224,0.5-0.5c0-0.852-0.564-2.118-2.118-2.118c-1.048,0-1.115-0.934-1.118-1.121
		c0-0.041-0.014-0.077-0.024-0.115c-0.006-0.025-0.006-0.053-0.016-0.077c-0.015-0.035-0.041-0.063-0.063-0.094
		c-0.015-0.021-0.026-0.046-0.044-0.065c-0.026-0.026-0.06-0.041-0.091-0.061c-0.023-0.015-0.042-0.035-0.068-0.046
		c-0.06-0.025-0.125-0.039-0.194-0.039c-0.276,0-0.5,0.224-0.5,0.5V42.5c-0.325-0.204-0.706-0.327-1.118-0.327
		c-1.167,0-2.118,0.95-2.118,2.118c0,1.167,0.95,2.117,2.118,2.117S23.11,45.458,23.11,44.291z"/>
	<path class="st0" d="M30.324,46.431c-0.001-0.003-0.004-0.005-0.005-0.008c-0.015-0.038-0.04-0.07-0.064-0.103
		c-0.015-0.02-0.024-0.044-0.042-0.062c-0.022-0.023-0.052-0.038-0.078-0.056c-0.026-0.018-0.05-0.04-0.079-0.053
		c-0.022-0.01-0.048-0.011-0.072-0.017c-0.04-0.011-0.078-0.023-0.12-0.024c-0.003,0-0.006-0.002-0.009-0.002
		c-0.028,0-0.053,0.012-0.08,0.016c-0.032,0.005-0.063,0.003-0.095,0.015l-5.358,1.999c-0.195,0.073-0.325,0.26-0.325,0.469v5.938
		c-0.325-0.204-0.706-0.327-1.118-0.327c-1.167,0-2.118,0.95-2.118,2.117c0,1.168,0.95,2.118,2.118,2.118s2.118-0.95,2.118-2.118
		v-7.382l4.358-1.625v5.217c-0.325-0.204-0.706-0.327-1.118-0.327c-1.167,0-2.118,0.95-2.118,2.118c0,1.167,0.95,2.117,2.118,2.117
		s2.118-0.95,2.118-2.117v-7.729c0-0.032-0.013-0.061-0.018-0.091C30.332,46.486,30.335,46.459,30.324,46.431z"/>
	<path class="st0" d="M57.688,41.719c0-3.5-1.445-6.665-3.766-8.94c-0.024-0.025-0.042-0.054-0.072-0.074
		c-0.006-0.004-0.013-0.004-0.019-0.008c-2.254-2.167-5.308-3.508-8.674-3.508c-3.368,0-6.424,1.342-8.678,3.512
		c-0.003,0.002-0.006,0.002-0.009,0.004c-0.016,0.011-0.024,0.027-0.038,0.039c-2.343,2.278-3.806,5.458-3.806,8.977
		c0,3.424,1.383,6.53,3.617,8.794c0.033,0.101,0.09,0.195,0.184,0.26c0.042,0.029,0.091,0.028,0.137,0.043
		c2.246,2.123,5.266,3.435,8.593,3.435c3.346,0,6.382-1.326,8.632-3.47c0.006-0.004,0.013-0.002,0.019-0.006
		c0.041-0.028,0.07-0.066,0.1-0.103C56.236,48.396,57.688,45.225,57.688,41.719z M53.604,49.542
		c-1.259-2.068-1.927-4.525-1.993-7.323h5.051C56.54,45.041,55.404,47.599,53.604,49.542z M33.65,42.219h5.013
		c-0.073,2.779-0.744,5.221-1.998,7.275C34.89,47.557,33.771,45.018,33.65,42.219z M36.673,33.936
		c1.253,2.058,1.921,4.502,1.992,7.283H33.65C33.771,38.416,34.893,35.874,36.673,33.936z M56.662,41.219h-5.048
		c0.079-2.784,0.759-5.228,2.026-7.282C55.42,35.875,56.541,38.416,56.662,41.219z M50.615,41.219h-4.958V30.213
		c2.791,0.121,5.323,1.233,7.258,3C51.469,35.468,50.697,38.156,50.615,41.219z M44.656,41.219h-4.992
		c-0.074-3.061-0.834-5.75-2.265-8.007c1.935-1.766,4.467-2.879,7.258-2.999V41.219z M39.663,42.219h4.993v11.006
		c-2.795-0.121-5.33-1.236-7.266-3.006C38.823,47.964,39.587,45.278,39.663,42.219z M45.656,42.219h4.955
		c0.068,3.076,0.828,5.777,2.264,8.042c-1.93,1.746-4.446,2.844-7.219,2.964V42.219z"/>
</g>
</svg>
