<?xml version="1.0" encoding="utf-8"?>
<!-- Generator: Adobe Illustrator 23.0.4, SVG Export Plug-In . SVG Version: 6.00 Build 0)  -->
<svg version="1.1" id="Calque_1" xmlns="http://www.w3.org/2000/svg" xmlns:xlink="http://www.w3.org/1999/xlink" x="0px" y="0px"
	 viewBox="0 0 80 80" style="enable-background:new 0 0 80 80;" xml:space="preserve">
<style type="text/css">
	.st0{fill:#231F20;}
	.st1{opacity:0.3;fill:none;stroke:#231F20;stroke-miterlimit:10;}
</style>
<g>
	<path class="st0" d="M67.5,39.5h-3.441C63.794,26.624,53.375,16.206,40.5,15.941V12.5c0-0.276-0.224-0.5-0.5-0.5
		s-0.5,0.224-0.5,0.5v3.441C26.625,16.206,16.206,26.624,15.941,39.5H12.5c-0.276,0-0.5,0.224-0.5,0.5s0.224,0.5,0.5,0.5h3.441
		C16.206,53.376,26.625,63.794,39.5,64.058V67.5c0,0.276,0.224,0.5,0.5,0.5s0.5-0.224,0.5-0.5v-3.441
		C53.375,63.794,63.794,53.376,64.059,40.5H67.5c0.276,0,0.5-0.224,0.5-0.5S67.776,39.5,67.5,39.5z M40.5,63.058v-3.415
		c0-0.276-0.224-0.5-0.5-0.5s-0.5,0.224-0.5,0.5v3.415C27.176,62.794,17.206,52.824,16.941,40.5h3.416c0.276,0,0.5-0.224,0.5-0.5
		s-0.224-0.5-0.5-0.5h-3.416C17.206,27.176,27.176,17.205,39.5,16.941v3.416c0,0.276,0.224,0.5,0.5,0.5s0.5-0.224,0.5-0.5v-3.416
		C52.824,17.205,62.794,27.176,63.059,39.5h-3.416c-0.276,0-0.5,0.224-0.5,0.5s0.224,0.5,0.5,0.5h3.416
		C62.794,52.824,52.824,62.794,40.5,63.058z"/>
	<path class="st0" d="M40,23.786c-8.94,0-16.214,7.273-16.214,16.214S31.06,56.215,40,56.215S56.214,48.94,56.214,40
		S48.94,23.786,40,23.786z M55.189,39.5H52.01c-0.258-6.236-5.273-11.252-11.51-11.51v-3.179
		C48.489,25.073,54.927,31.511,55.189,39.5z M43.584,36.291c0.465,0.466,1.084,0.723,1.742,0.723c0.526,0,1.023-0.17,1.44-0.474
		c0.461,0.899,0.746,1.899,0.816,2.96h-3.453c-0.23-1.9-1.728-3.398-3.628-3.628v-3.453c0.997,0.065,1.94,0.323,2.797,0.737
		c-0.281,0.407-0.435,0.888-0.435,1.393C42.862,35.207,43.119,35.826,43.584,36.291z M39.5,40.5v3.128
		c-1.625-0.224-2.904-1.503-3.128-3.128H39.5z M36.372,39.5c0.224-1.625,1.503-2.904,3.128-3.128V39.5H36.372z M40.5,40.5h3.128
		c-0.224,1.625-1.503,2.904-3.128,3.128V40.5z M40.5,39.5v-3.128c1.625,0.224,2.904,1.503,3.128,3.128H40.5z M39.5,35.872
		c-1.901,0.23-3.398,1.728-3.628,3.628h-3.453c0.249-3.795,3.287-6.833,7.082-7.081V35.872z M35.872,40.5
		c0.23,1.9,1.728,3.398,3.628,3.628v3.454c-3.795-0.249-6.833-3.287-7.082-7.082H35.872z M40.5,44.128
		c1.901-0.23,3.398-1.728,3.628-3.628h3.453c-0.249,3.795-3.287,6.833-7.082,7.082V44.128z M39.5,31.919
		c-4.071,0.25-7.331,3.511-7.582,7.581H28.49c0.257-5.961,5.049-10.752,11.01-11.01V31.919z M31.918,40.5
		c0.25,4.071,3.511,7.332,7.582,7.582v3.429c-5.961-0.257-10.753-5.049-11.01-11.011H31.918z M40.5,48.082
		c4.071-0.25,7.331-3.511,7.582-7.582h3.429c-0.257,5.961-5.049,10.753-11.01,11.011V48.082z M48.082,39.5
		c-0.073-1.19-0.396-2.312-0.93-3.31c0.408-0.453,0.639-1.027,0.639-1.641c0-0.658-0.256-1.277-0.722-1.742
		c-0.914-0.915-2.495-0.926-3.433-0.042c-0.954-0.481-2.014-0.777-3.136-0.846V28.49c5.961,0.257,10.753,5.049,11.01,11.01H48.082z
		 M39.5,24.811v3.179c-6.237,0.258-11.252,5.274-11.51,11.51h-3.179C25.073,31.511,31.511,25.073,39.5,24.811z M24.811,40.5h3.179
		c0.258,6.237,5.273,11.253,11.51,11.511v3.179C31.511,54.928,25.072,48.489,24.811,40.5z M40.5,55.189V52.01
		c6.237-0.258,11.252-5.274,11.51-11.511h3.179C54.928,48.489,48.489,54.928,40.5,55.189z"/>
</g>
</svg>
