<?xml version="1.0" encoding="utf-8"?>
<!-- Generator: Adobe Illustrator 23.0.4, SVG Export Plug-In . SVG Version: 6.00 Build 0)  -->
<svg version="1.1" id="Calque_1" xmlns="http://www.w3.org/2000/svg" xmlns:xlink="http://www.w3.org/1999/xlink" x="0px" y="0px"
	 viewBox="0 0 80 80" style="enable-background:new 0 0 80 80;" xml:space="preserve">
<style type="text/css">
	.st0{fill:#231F20;}
	.st1{opacity:0.3;fill:none;stroke:#231F20;stroke-miterlimit:10;}
</style>
<g>
	<path class="st0" d="M30.941,22.491c0.118,0,0.236-0.041,0.331-0.125c0.208-0.183,0.227-0.499,0.044-0.706
		c-1.38-1.564-2.141-3.576-2.141-5.665s0.76-4.101,2.141-5.664c0.183-0.207,0.163-0.523-0.044-0.706
		c-0.206-0.182-0.522-0.161-0.706,0.044c-1.542,1.747-2.391,3.993-2.391,6.326c0,2.332,0.849,4.579,2.391,6.327
		C30.665,22.434,30.803,22.491,30.941,22.491z"/>
	<path class="st0" d="M32.556,20.858c0.099,0.111,0.237,0.169,0.375,0.169c0.118,0,0.236-0.041,0.331-0.125
		c0.207-0.183,0.227-0.499,0.044-0.706c-1.024-1.16-1.588-2.652-1.588-4.201s0.564-3.041,1.588-4.201
		c0.183-0.207,0.163-0.523-0.044-0.706c-0.206-0.182-0.522-0.161-0.706,0.044c-1.185,1.344-1.838,3.07-1.838,4.863
		S31.371,19.515,32.556,20.858z"/>
	<path class="st0" d="M34.394,18.593c0.099,0.111,0.237,0.169,0.375,0.169c0.118,0,0.236-0.041,0.331-0.125
		c0.207-0.183,0.227-0.499,0.044-0.706c-0.472-0.534-0.731-1.222-0.731-1.936c0-0.714,0.26-1.401,0.731-1.935
		c0.183-0.207,0.164-0.522-0.043-0.706c-0.207-0.182-0.522-0.164-0.706,0.044c-0.633,0.717-0.982,1.639-0.982,2.597
		C33.412,16.952,33.761,17.875,34.394,18.593z"/>
	<path class="st0" d="M50.825,15.995c0,2.089-0.76,4.101-2.141,5.665c-0.183,0.207-0.163,0.523,0.044,0.706
		c0.095,0.084,0.213,0.125,0.331,0.125c0.138,0,0.276-0.058,0.375-0.169c1.542-1.748,2.391-3.995,2.391-6.327
		c0-2.333-0.849-4.579-2.391-6.326c-0.184-0.205-0.499-0.226-0.706-0.044c-0.207,0.183-0.227,0.499-0.044,0.706
		C50.064,11.895,50.825,13.906,50.825,15.995z"/>
	<path class="st0" d="M48.282,15.995c0,1.549-0.564,3.041-1.588,4.201c-0.183,0.207-0.163,0.523,0.044,0.706
		c0.095,0.084,0.213,0.125,0.331,0.125c0.138,0,0.276-0.058,0.375-0.169c1.185-1.344,1.838-3.07,1.838-4.863
		s-0.653-3.52-1.838-4.863c-0.183-0.205-0.498-0.226-0.706-0.044c-0.207,0.183-0.227,0.499-0.044,0.706
		C47.718,12.954,48.282,14.446,48.282,15.995z"/>
	<path class="st0" d="M45.588,15.995c0,0.714-0.26,1.401-0.731,1.936c-0.183,0.207-0.163,0.523,0.044,0.706
		c0.095,0.084,0.213,0.125,0.331,0.125c0.138,0,0.276-0.058,0.375-0.169c0.633-0.718,0.981-1.641,0.981-2.598
		c0-0.958-0.349-1.88-0.982-2.597c-0.182-0.208-0.499-0.226-0.706-0.044c-0.207,0.184-0.227,0.499-0.043,0.706
		C45.328,14.594,45.588,15.281,45.588,15.995z"/>
	<path class="st0" d="M56.467,69.857l-11.991-39.97c-0.002-0.007-0.009-0.01-0.011-0.016c-0.025-0.073-0.061-0.143-0.12-0.2
		c-0.011-0.01-0.025-0.014-0.036-0.023c-0.015-0.012-0.031-0.02-0.047-0.03c-0.078-0.049-0.162-0.081-0.251-0.083
		c-0.005,0-0.009-0.005-0.014-0.005H40.5v-7.045c1.139-0.232,1.999-1.242,1.999-2.448c0-0.021-0.006-0.039-0.006-0.06
		c0.001-0.01,0.006-0.019,0.006-0.03v-7.904c0-1.377-1.121-2.498-2.499-2.498s-2.499,1.121-2.499,2.498v7.904
		c0,0.011,0.005,0.02,0.006,0.03c0,0.02-0.006,0.039-0.006,0.06c0,1.207,0.859,2.216,1.999,2.448v7.045h-3.497
		c-0.005,0-0.009,0.005-0.015,0.005c-0.088,0.003-0.172,0.034-0.249,0.082c-0.017,0.011-0.033,0.018-0.048,0.03
		c-0.011,0.009-0.025,0.013-0.036,0.023c-0.059,0.057-0.096,0.127-0.12,0.2c-0.002,0.006-0.009,0.009-0.011,0.016l-11.991,39.97
		c-0.079,0.265,0.071,0.543,0.335,0.622c0.266,0.081,0.543-0.07,0.623-0.335l1.092-3.641h28.833l1.092,3.641
		c0.065,0.217,0.264,0.356,0.479,0.356c0.047,0,0.096-0.007,0.144-0.021C56.396,70.4,56.546,70.121,56.467,69.857z M36.237,30.992
		l3.068,3.173l-5.829,6.029L36.237,30.992z M42.818,30.53L40,33.446l-2.818-2.915H42.818z M46.524,40.194l-5.829-6.029l3.068-3.173
		L46.524,40.194z M48.915,54.512L40,58.626l-8.915-4.115H48.915z M30.522,53.512L40,47.462l9.478,6.05H30.522z M50.878,54.707
		l3.113,10.377l-12.797-5.907L50.878,54.707z M40.93,46.868l6.375-4.07l3.02,10.067L40.93,46.868z M45.881,42.521L40,46.275
		l-5.881-3.754H45.881z M33.585,41.521L40,34.884l6.415,6.636H33.585z M32.695,42.799l6.375,4.07l-9.395,5.997L32.695,42.799z
		 M29.122,54.707l9.685,4.47l-12.797,5.907L29.122,54.707z M40,59.728l12.512,5.775H27.488L40,59.728z"/>
</g>
</svg>
