<?xml version="1.0" encoding="utf-8"?>
<!-- Generator: Adobe Illustrator 23.0.4, SVG Export Plug-In . SVG Version: 6.00 Build 0)  -->
<svg version="1.1" id="Calque_1" xmlns="http://www.w3.org/2000/svg" xmlns:xlink="http://www.w3.org/1999/xlink" x="0px" y="0px"
	 viewBox="0 0 80 80" style="enable-background:new 0 0 80 80;" xml:space="preserve">
<style type="text/css">
	.st0{fill:#231F20;}
	.st1{opacity:0.3;fill:none;stroke:#231F20;stroke-miterlimit:10;}
</style>
<g>
	<path class="st0" d="M64.784,25.546H15.426c-0.276,0-0.5,0.224-0.5,0.5v16.867c0,0.276,0.224,0.5,0.5,0.5h49.357
		c0.276,0,0.5-0.224,0.5-0.5V26.046C65.284,25.769,65.06,25.546,64.784,25.546z M64.284,42.413H15.926V26.546h48.357V42.413z"/>
	<path class="st0" d="M66,20.329H14c-2.481,0-4.5,2.019-4.5,4.5v30.342c0,2.481,2.019,4.5,4.5,4.5h52c2.481,0,4.5-2.019,4.5-4.5
		V24.829C70.5,22.347,68.481,20.329,66,20.329z M69.5,55.171c0,1.93-1.57,3.5-3.5,3.5H14c-1.93,0-3.5-1.57-3.5-3.5V24.829
		c0-1.93,1.57-3.5,3.5-3.5h52c1.93,0,3.5,1.57,3.5,3.5V55.171z"/>
	<path class="st0" d="M39.94,47.933c-1.798,0-3.261,1.463-3.261,3.261s1.463,3.26,3.261,3.26s3.26-1.462,3.26-3.26
		S41.738,47.933,39.94,47.933z"/>
	<path class="st0" d="M28.898,47.933c-1.798,0-3.26,1.463-3.26,3.261s1.462,3.26,3.26,3.26s3.261-1.462,3.261-3.26
		S30.696,47.933,28.898,47.933z M28.898,53.454c-1.246,0-2.26-1.014-2.26-2.26s1.014-2.261,2.26-2.261
		c1.247,0,2.261,1.015,2.261,2.261S30.145,53.454,28.898,53.454z"/>
	<path class="st0" d="M50.981,47.933c-1.798,0-3.26,1.463-3.26,3.261s1.462,3.26,3.26,3.26s3.26-1.462,3.26-3.26
		S52.779,47.933,50.981,47.933z M50.981,53.454c-1.246,0-2.26-1.014-2.26-2.26s1.014-2.261,2.26-2.261s2.26,1.015,2.26,2.261
		S52.228,53.454,50.981,53.454z"/>
	<path class="st0" d="M17.448,48.843c-0.195-0.195-0.512-0.195-0.707,0l-1.998,1.998c-0.195,0.195-0.195,0.512,0,0.707l1.998,1.998
		c0.098,0.098,0.226,0.146,0.354,0.146s0.256-0.049,0.354-0.146c0.195-0.195,0.195-0.512,0-0.707l-1.645-1.645l1.645-1.645
		C17.643,49.354,17.643,49.038,17.448,48.843z"/>
	<path class="st0" d="M63.139,48.843c-0.195-0.195-0.512-0.195-0.707,0s-0.195,0.512,0,0.707l1.645,1.645l-1.645,1.645
		c-0.195,0.195-0.195,0.512,0,0.707c0.098,0.098,0.226,0.146,0.354,0.146s0.256-0.049,0.354-0.146l1.999-1.998
		c0.094-0.094,0.146-0.221,0.146-0.354s-0.053-0.26-0.146-0.354L63.139,48.843z"/>
	<path class="st0" d="M26.138,40.5h27.604c0.276,0,0.5-0.224,0.5-0.5s-0.224-0.5-0.5-0.5H26.138c-0.276,0-0.5,0.224-0.5,0.5
		S25.861,40.5,26.138,40.5z"/>
</g>
</svg>
