<?xml version="1.0" encoding="utf-8"?>
<!-- Generator: Adobe Illustrator 23.0.4, SVG Export Plug-In . SVG Version: 6.00 Build 0)  -->
<svg version="1.1" id="Calque_1" xmlns="http://www.w3.org/2000/svg" xmlns:xlink="http://www.w3.org/1999/xlink" x="0px" y="0px"
	 viewBox="0 0 80 80" style="enable-background:new 0 0 80 80;" xml:space="preserve">
<style type="text/css">
	.st0{fill:#231F20;}
	.st1{opacity:0.3;fill:none;stroke:#231F20;stroke-miterlimit:10;}
</style>
<g>
	<path class="st0" d="M64.974,61.472c-0.001,0-0.003,0-0.005,0l-4.385,0.042V57c0-0.067-0.014-0.132-0.039-0.192
		c-0.025-0.061-0.062-0.116-0.108-0.162l-4.743-4.743V47.22c0-0.008-0.004-0.015-0.005-0.023c-0.001-0.033-0.011-0.065-0.02-0.098
		c-0.008-0.033-0.015-0.065-0.029-0.095c-0.003-0.007-0.003-0.015-0.007-0.022l-2.8-5.154c0.108-0.181,0.223-0.355,0.326-0.54
		c5.379-9.666,1.891-21.906-7.774-27.285c-0.117-0.065-0.253-0.084-0.38-0.044c-0.127,0.036-0.235,0.121-0.3,0.237l-4.627,8.313
		l-14.422,1.159c-0.007-0.026-0.007-0.052-0.014-0.078c-0.215-0.756-0.712-1.384-1.4-1.766c-0.688-0.384-1.482-0.476-2.239-0.26
		c-0.756,0.216-1.384,0.713-1.767,1.4c-0.79,1.419-0.278,3.216,1.141,4.006c0.452,0.252,0.943,0.371,1.427,0.371
		c0.301,0,0.595-0.059,0.881-0.148l6.621,12.875l-4.626,8.312c-0.134,0.241-0.047,0.546,0.194,0.68
		c3.081,1.715,6.423,2.528,9.722,2.528c4.922,0,9.742-1.817,13.453-5.152l0.755,0.956v4.51l-4.743,4.743
		c-0.046,0.046-0.083,0.101-0.108,0.162c-0.025,0.06-0.039,0.126-0.039,0.192v4.661l-4.396,0.042
		c-0.274,0.003-0.495,0.226-0.495,0.5v4.809c0,0.134,0.053,0.262,0.148,0.355c0.094,0.093,0.22,0.145,0.352,0.145
		c0.001,0,0.003,0,0.005,0l24.452-0.23c0.274-0.003,0.495-0.226,0.495-0.5v-4.81c0-0.134-0.053-0.262-0.148-0.355
		C65.232,61.524,65.105,61.472,64.974,61.472z M54.693,51.611h-3.891V47.72h3.891V51.611z M50.51,52.611h4.477l3.89,3.89H46.62
		L50.51,52.611z M59.583,57.5v3.891H45.913V57.5H59.583z M35.434,30.852l-9.852-5.482c0.081-0.23,0.133-0.465,0.155-0.706
		l13.756-1.105L35.434,30.852z M24.568,26.727c0.188-0.142,0.358-0.305,0.51-0.494l9.869,5.492l-4.059,7.293L24.568,26.727z
		 M26.799,48.425l9.266-16.649c0,0,0.001-0.001,0.001-0.001c0-0.001,0-0.001,0.001-0.002l9.265-16.648
		c8.853,5.232,11.982,16.639,6.953,25.677C47.254,49.838,35.912,53.193,26.799,48.425z M52.22,42.794l2.133,3.926h-3.808
		l-0.766-0.97C50.674,44.86,51.49,43.87,52.22,42.794z M64.474,66.286l-23.452,0.221v-3.809l23.452-0.222V66.286z"/>
	<path class="st0" d="M17.558,13.459c0.261-0.093,0.397-0.378,0.305-0.639c-0.092-0.26-0.378-0.396-0.638-0.305
		c-2.663,0.941-4.886,2.82-6.26,5.29c-1.374,2.47-1.799,5.35-1.196,8.107c0.051,0.234,0.258,0.394,0.488,0.394
		c0.035,0,0.071-0.004,0.107-0.012c0.27-0.059,0.44-0.325,0.381-0.595c-0.551-2.521-0.163-5.151,1.093-7.408
		C13.094,16.035,15.125,14.32,17.558,13.459z"/>
	<path class="st0" d="M19.119,15.569c-0.091-0.26-0.379-0.396-0.638-0.305c-2.04,0.722-3.744,2.161-4.798,4.055
		c-1.053,1.893-1.379,4.1-0.917,6.214c0.051,0.234,0.258,0.394,0.488,0.394c0.035,0,0.071-0.004,0.107-0.012
		c0.27-0.059,0.44-0.325,0.381-0.595c-0.41-1.877-0.121-3.835,0.814-5.515s2.447-2.958,4.257-3.598
		C19.075,16.115,19.211,15.829,19.119,15.569z"/>
	<path class="st0" d="M19.098,18.781c-1.079,0.381-1.979,1.142-2.534,2.142c-0.556,0.999-0.728,2.165-0.484,3.281
		c0.051,0.234,0.258,0.394,0.488,0.394c0.035,0,0.071-0.004,0.107-0.012c0.27-0.059,0.44-0.325,0.381-0.595
		c-0.192-0.879-0.057-1.796,0.381-2.582c0.437-0.787,1.145-1.386,1.993-1.685c0.26-0.092,0.397-0.378,0.305-0.638
		C19.644,18.825,19.359,18.69,19.098,18.781z"/>
	<path class="st0" d="M68.403,19.192c-0.576-1.119-1.725-1.813-3-1.813h-2.874c-0.276,0-0.5,0.224-0.5,0.5v6.112
		c0,0.276,0.224,0.5,0.5,0.5h1.527c1.316,0,2.388,1.071,2.388,2.389v6.449c0,1.317-1.071,2.389-2.388,2.389h-1.527
		c-0.276,0-0.5,0.224-0.5,0.5v6.112c0,0.276,0.224,0.5,0.5,0.5h2.874c1.275,0,2.424-0.694,3-1.813
		c0.957-1.858,2.097-5.26,2.097-10.912S69.36,21.05,68.403,19.192z M63.029,23.491v-5.112h1.717v5.184
		c-0.223-0.046-0.453-0.071-0.69-0.071H63.029z M63.029,36.717h1.027c0.236,0,0.467-0.025,0.69-0.071v5.184h-1.717V36.717z
		 M67.514,40.559c-0.351,0.68-1.013,1.116-1.769,1.224v-5.535c1.01-0.587,1.698-1.669,1.698-2.919v-6.449
		c0-1.25-0.688-2.332-1.698-2.919v-5.535c0.755,0.108,1.418,0.544,1.769,1.224c0.906,1.761,1.986,5.004,1.986,10.455
		S68.42,38.798,67.514,40.559z"/>
</g>
</svg>
