<?xml version="1.0" encoding="utf-8"?>
<!-- Generator: Adobe Illustrator 23.0.4, SVG Export Plug-In . SVG Version: 6.00 Build 0)  -->
<svg version="1.1" id="Calque_1" xmlns="http://www.w3.org/2000/svg" xmlns:xlink="http://www.w3.org/1999/xlink" x="0px" y="0px"
	 viewBox="0 0 80 80" style="enable-background:new 0 0 80 80;" xml:space="preserve">
<style type="text/css">
	.st0{fill:#231F20;}
	.st1{opacity:0.3;fill:none;stroke:#231F20;stroke-miterlimit:10;}
</style>
<g>
	<path class="st0" d="M46.923,60.397H33.077c-0.276,0-0.5,0.224-0.5,0.5s0.224,0.5,0.5,0.5h13.846c0.276,0,0.5-0.224,0.5-0.5
		S47.199,60.397,46.923,60.397z"/>
	<path class="st0" d="M66,23.473h-6.585c0.68-1.83,0.572-3.864-0.363-5.649c-1.087-2.076-3.107-3.409-5.407-3.564
		c-0.334-0.021-0.674-0.021-1.013,0c-2.297,0.155-4.317,1.488-5.404,3.564c-0.935,1.785-1.043,3.819-0.363,5.649H14
		c-2.481,0-4.5,2.019-4.5,4.5v33.284c0,2.481,2.019,4.5,4.5,4.5h52c2.481,0,4.5-2.019,4.5-4.5V27.973
		C70.5,25.492,68.481,23.473,66,23.473z M48.113,18.287c0.925-1.766,2.639-2.898,4.583-3.03c0.146-0.009,0.294-0.015,0.443-0.015
		s0.296,0.006,0.44,0.015c1.947,0.132,3.662,1.265,4.586,3.03c0.975,1.861,0.918,4.041-0.151,5.83L53.14,32.28l-4.876-8.162
		C47.195,22.328,47.139,20.149,48.113,18.287z M64.885,46.55H46.923c-0.276,0-0.5,0.224-0.5,0.5v8.73h-8.23v-8.73
		c0-0.276-0.224-0.5-0.5-0.5H15.115v-3.615h4.116c0.215,0,0.406-0.138,0.474-0.342l4.501-13.504h3.562l-4.396,13.188
		c-0.051,0.152-0.025,0.32,0.068,0.45c0.094,0.131,0.245,0.208,0.406,0.208h13.846c0.276,0,0.5-0.224,0.5-0.5V29.089h3.615v13.346
		c0,0.276,0.224,0.5,0.5,0.5h22.577V46.55z M64.885,47.55v8.23H47.423v-8.23H64.885z M15.115,47.55h22.077v8.23H15.115V47.55z
		 M15.115,41.935V29.089h8.037l-4.282,12.846H15.115z M28.822,29.089h8.371v12.846H24.54L28.822,29.089z M64.885,41.935H42.808
		V29.089h7.261l2.642,4.422c0.09,0.15,0.253,0.243,0.429,0.243s0.339-0.093,0.429-0.243l2.642-4.422h8.674V41.935z M69.5,61.257
		c0,1.93-1.57,3.5-3.5,3.5H14c-1.93,0-3.5-1.57-3.5-3.5V27.973c0-1.93,1.57-3.5,3.5-3.5h33.324c0.029,0.052,0.051,0.107,0.081,0.158
		l2.066,3.458h-7.164h-4.615h-9.231h-4.615h-9.231c-0.276,0-0.5,0.224-0.5,0.5v13.846v4.615v9.23c0,0.276,0.224,0.5,0.5,0.5h23.077
		h9.23h18.462c0.276,0,0.5-0.224,0.5-0.5v-9.23v-4.615V28.589c0-0.276-0.224-0.5-0.5-0.5h-8.577l2.066-3.458
		c0.031-0.051,0.052-0.106,0.081-0.158H66c1.93,0,3.5,1.57,3.5,3.5V61.257z"/>
	<path class="st0" d="M53.14,24.473c1.548,0,2.808-1.26,2.808-2.808s-1.259-2.808-2.808-2.808s-2.808,1.26-2.808,2.808
		S51.591,24.473,53.14,24.473z M53.14,19.858c0.997,0,1.808,0.811,1.808,1.808s-0.811,1.808-1.808,1.808s-1.808-0.811-1.808-1.808
		S52.143,19.858,53.14,19.858z"/>
</g>
</svg>
