<?xml version="1.0" encoding="utf-8"?>
<!-- Generator: Adobe Illustrator 23.0.4, SVG Export Plug-In . SVG Version: 6.00 Build 0)  -->
<svg version="1.1" id="Calque_1" xmlns="http://www.w3.org/2000/svg" xmlns:xlink="http://www.w3.org/1999/xlink" x="0px" y="0px"
	 viewBox="0 0 80 80" style="enable-background:new 0 0 80 80;" xml:space="preserve">
<style type="text/css">
	.st0{fill:#231F20;}
	.st1{opacity:0.3;fill:none;stroke:#231F20;stroke-miterlimit:10;}
</style>
<g>
	<path class="st0" d="M59.084,59.118c-0.001,0-0.003,0-0.005,0l-3.861,0.036v-3.976c0-0.067-0.014-0.132-0.039-0.192
		c-0.025-0.061-0.062-0.116-0.108-0.162l-4.22-4.219v-4.159c0-0.008-0.004-0.015-0.005-0.023c-0.001-0.033-0.011-0.065-0.02-0.098
		c-0.008-0.033-0.015-0.065-0.029-0.095c-0.003-0.007-0.003-0.015-0.007-0.022l-2.486-4.575c0.091-0.154,0.189-0.301,0.276-0.458
		c2.333-4.192,2.894-9.044,1.579-13.658c-1.315-4.615-4.348-8.442-8.541-10.775c-0.243-0.135-0.546-0.048-0.68,0.193l-4.117,7.397
		l-12.801,1.029c-0.184-0.671-0.625-1.271-1.279-1.636c-1.292-0.72-2.93-0.252-3.649,1.04c-0.349,0.626-0.432,1.351-0.236,2.04
		s0.65,1.261,1.276,1.608c0.404,0.226,0.85,0.341,1.301,0.341c0.247,0,0.495-0.034,0.739-0.104c0.008-0.002,0.016-0.007,0.024-0.01
		l5.873,11.42l-4.117,7.397c-0.064,0.116-0.08,0.253-0.044,0.38c0.037,0.128,0.122,0.235,0.238,0.3
		c2.759,1.536,5.751,2.265,8.706,2.265c4.389,0,8.689-1.613,12.006-4.575l0.627,0.793v3.986l-4.219,4.219
		c-0.046,0.046-0.083,0.101-0.108,0.162c-0.025,0.06-0.039,0.126-0.039,0.192v4.109l-3.872,0.037
		c-0.274,0.003-0.495,0.226-0.495,0.5v4.294c0,0.134,0.053,0.262,0.148,0.355c0.094,0.093,0.22,0.145,0.352,0.145
		c0.001,0,0.003,0,0.005,0l21.832-0.206c0.274-0.003,0.495-0.226,0.495-0.5v-4.294c0-0.134-0.053-0.262-0.148-0.355
		C59.342,59.17,59.216,59.118,59.084,59.118z M49.851,50.313h-3.366v-3.366h3.366V50.313z M46.192,51.313h3.952l3.367,3.366H42.826
		L46.192,51.313z M54.218,55.679v3.367H42.119v-3.367H54.218z M32.689,31.759l-8.709-4.846c0.061-0.183,0.104-0.369,0.124-0.557
		l12.134-0.975L32.689,31.759z M23.086,28.184c0.15-0.117,0.286-0.25,0.409-0.397l8.707,4.845l-3.549,6.378L23.086,28.184z
		 M25.073,47.5l16.494-29.636c3.735,2.222,6.436,5.729,7.632,9.926c1.242,4.358,0.712,8.939-1.492,12.898
		C43.239,48.718,33.176,51.705,25.073,47.5z M47.69,42.596l1.82,3.35h-3.284l-0.638-0.807C46.358,44.371,47.058,43.519,47.69,42.596
		z M58.584,63.417l-20.832,0.196v-3.294l20.832-0.196V63.417z"/>
	<path class="st0" d="M16.766,16.354c0.26-0.092,0.397-0.378,0.305-0.639c-0.092-0.26-0.376-0.396-0.638-0.305
		c-2.388,0.844-4.383,2.529-5.618,4.747c-1.234,2.217-1.615,4.802-1.073,7.276c0.051,0.234,0.258,0.394,0.488,0.394
		c0.035,0,0.071-0.004,0.107-0.012c0.27-0.059,0.44-0.325,0.381-0.595c-0.489-2.237-0.145-4.573,0.971-6.577
		C12.804,18.64,14.607,17.116,16.766,16.354z"/>
	<path class="st0" d="M17.888,18.807c0.261-0.093,0.397-0.378,0.305-0.639c-0.091-0.26-0.379-0.396-0.638-0.305
		c-1.834,0.649-3.366,1.943-4.313,3.646c-0.947,1.701-1.24,3.686-0.824,5.585c0.051,0.234,0.258,0.394,0.488,0.394
		c0.036,0,0.071-0.004,0.107-0.012c0.27-0.059,0.44-0.325,0.381-0.595c-0.363-1.662-0.107-3.397,0.721-4.886
		C14.944,20.506,16.284,19.374,17.888,18.807z"/>
	<path class="st0" d="M18.743,21.308c-0.093-0.261-0.38-0.398-0.638-0.305c-0.975,0.346-1.788,1.033-2.291,1.937
		c-0.503,0.905-0.658,1.959-0.438,2.968c0.051,0.234,0.258,0.394,0.488,0.394c0.035,0,0.071-0.004,0.107-0.012
		c0.27-0.059,0.44-0.325,0.381-0.595c-0.168-0.771-0.05-1.577,0.335-2.269c0.384-0.69,1.006-1.216,1.751-1.479
		C18.699,21.854,18.835,21.568,18.743,21.308z"/>
	<path class="st0" d="M69,19.748h-8.916c-0.827,0-1.5,0.673-1.5,1.5V41.08c0,0.827,0.673,1.5,1.5,1.5H69c0.827,0,1.5-0.673,1.5-1.5
		V21.248C70.5,20.421,69.827,19.748,69,19.748z M69.5,41.08c0,0.275-0.224,0.5-0.5,0.5h-8.916c-0.276,0-0.5-0.225-0.5-0.5V21.248
		c0-0.275,0.224-0.5,0.5-0.5H69c0.276,0,0.5,0.225,0.5,0.5V41.08z"/>
	<path class="st0" d="M65.907,22.163h-2.729c-0.276,0-0.5,0.224-0.5,0.5s0.224,0.5,0.5,0.5h2.729c0.276,0,0.5-0.224,0.5-0.5
		S66.183,22.163,65.907,22.163z"/>
	<circle class="st0" cx="64.542" cy="39.831" r="0.629"/>
</g>
</svg>
