<?xml version="1.0" encoding="utf-8"?>
<!-- Generator: Adobe Illustrator 23.0.4, SVG Export Plug-In . SVG Version: 6.00 Build 0)  -->
<svg version="1.1" id="Calque_1" xmlns="http://www.w3.org/2000/svg" xmlns:xlink="http://www.w3.org/1999/xlink" x="0px" y="0px"
	 viewBox="0 0 80 80" style="enable-background:new 0 0 80 80;" xml:space="preserve">
<style type="text/css">
	.st0{fill:#FFFFFF;}
	.st1{opacity:0.3;fill:none;stroke:#231F20;stroke-miterlimit:10;}
</style>
<g>
	<path class="st0" d="M23.764,31.215c0.093,0.112,0.231,0.177,0.377,0.177s0.284-0.065,0.377-0.177l1.339-1.606
		c0.074-0.088,0.114-0.2,0.114-0.315v-2.677c0-0.272-0.22-0.492-0.492-0.492h-2.677c-0.272,0-0.492,0.22-0.492,0.492v2.677
		c0,0.115,0.04,0.227,0.114,0.315L23.764,31.215z M23.295,27.109h1.693v2.007l-0.847,1.016l-0.846-1.016V27.109z"/>
	<path class="st0" d="M24.519,32.994c-0.186-0.224-0.569-0.224-0.755,0l-1.338,1.606c-0.074,0.088-0.114,0.2-0.114,0.315v2.677
		c0,0.272,0.22,0.492,0.492,0.492h2.677c0.272,0,0.492-0.22,0.492-0.492v-2.677c0-0.115-0.04-0.227-0.114-0.315L24.519,32.994z
		 M24.988,37.099h-1.693v-2.007l0.846-1.016l0.847,1.016V37.099z"/>
	<path class="st0" d="M24.854,32.104c0,0.146,0.064,0.284,0.177,0.378l1.606,1.339c0.088,0.073,0.2,0.114,0.315,0.114h2.676
		c0.272,0,0.492-0.22,0.492-0.492v-2.677c0-0.272-0.22-0.492-0.492-0.492h-2.676c-0.115,0-0.227,0.04-0.315,0.114l-1.606,1.338
		C24.919,31.82,24.854,31.958,24.854,32.104z M27.13,31.258h2.007v1.693H27.13l-1.015-0.847L27.13,31.258z"/>
	<path class="st0" d="M21.647,33.82l1.605-1.339c0.112-0.093,0.177-0.231,0.177-0.377s-0.064-0.284-0.177-0.378l-1.605-1.338
		c-0.088-0.073-0.2-0.114-0.315-0.114h-2.677c-0.272,0-0.492,0.22-0.492,0.492v2.677c0,0.272,0.22,0.492,0.492,0.492h2.677
		C21.447,33.935,21.558,33.894,21.647,33.82z M19.146,32.951v-1.693h2.008l1.014,0.846l-1.014,0.847H19.146z"/>
	<path class="st0" d="M55.991,30.671c1.01,0,1.831-0.821,1.831-1.83s-0.821-1.83-1.831-1.83c-1.009,0-1.83,0.821-1.83,1.83
		S54.983,30.671,55.991,30.671z M55.991,27.995c0.467,0,0.847,0.379,0.847,0.846s-0.38,0.847-0.847,0.847s-0.846-0.38-0.846-0.847
		S55.524,27.995,55.991,27.995z"/>
	<path class="st0" d="M55.991,33.27c-1.009,0-1.83,0.821-1.83,1.83c0,1.009,0.821,1.83,1.83,1.83c1.01,0,1.831-0.821,1.831-1.83
		C57.822,34.091,57.001,33.27,55.991,33.27z M55.991,35.947c-0.467,0-0.846-0.38-0.846-0.847c0-0.467,0.379-0.846,0.846-0.846
		s0.847,0.379,0.847,0.846C56.838,35.567,56.458,35.947,55.991,35.947z"/>
	<path class="st0" d="M59.122,30.14c-1.009,0-1.83,0.821-1.83,1.83s0.821,1.83,1.83,1.83c1.009,0,1.83-0.821,1.83-1.83
		S60.13,30.14,59.122,30.14z M59.122,32.817c-0.467,0-0.846-0.379-0.846-0.846s0.379-0.847,0.846-0.847
		c0.467,0,0.846,0.38,0.846,0.847S59.589,32.817,59.122,32.817z"/>
	<path class="st0" d="M52.862,30.14c-1.009,0-1.83,0.821-1.83,1.83s0.821,1.83,1.83,1.83c1.009,0,1.83-0.821,1.83-1.83
		S53.87,30.14,52.862,30.14z M52.862,32.817c-0.467,0-0.846-0.379-0.846-0.846s0.379-0.847,0.846-0.847s0.846,0.38,0.846,0.847
		S53.329,32.817,52.862,32.817z"/>
	<path class="st0" d="M30.699,38.965c-1.309,0-2.374,1.065-2.374,2.373c0,1.309,1.064,2.374,2.374,2.374s2.374-1.064,2.374-2.374
		C33.072,40.03,32.008,38.965,30.699,38.965z M30.699,42.728c-0.767,0-1.39-0.623-1.39-1.39c0-0.766,0.623-1.389,1.39-1.389
		s1.39,0.623,1.39,1.389C32.089,42.105,31.465,42.728,30.699,42.728z"/>
	<path class="st0" d="M49.301,38.965c-1.309,0-2.374,1.065-2.374,2.373c0,1.309,1.064,2.374,2.374,2.374
		c1.308,0,2.373-1.064,2.373-2.374C51.674,40.03,50.609,38.965,49.301,38.965z M49.301,42.728c-0.767,0-1.39-0.623-1.39-1.39
		c0-0.766,0.623-1.389,1.39-1.389c0.766,0,1.389,0.623,1.389,1.389C50.69,42.105,50.067,42.728,49.301,42.728z"/>
	<path class="st0" d="M69.871,52.179c-0.002-0.032-0.006-0.062-0.014-0.093l-5.596-22.18c-0.004-0.015-0.016-0.025-0.021-0.039
		c-0.405-1.584-1.25-2.99-2.403-4.08V23.89c0-0.762-0.383-1.453-1.026-1.849c-0.939-0.579-2.539-1.268-4.819-1.268
		c-2.279,0-3.879,0.69-4.818,1.268c-0.643,0.395-1.026,1.086-1.026,1.849v1.896c-0.117,0.11-0.23,0.223-0.34,0.34H30.192
		c-0.151-0.16-0.309-0.313-0.473-0.461V23.89c0-0.75-0.393-1.459-1.026-1.849c-0.941-0.579-2.541-1.268-4.819-1.268
		c-2.28,0-3.88,0.69-4.82,1.268c-0.632,0.39-1.025,1.098-1.025,1.849v2.018c-1.087,1.072-1.88,2.435-2.269,3.958
		c-0.005,0.014-0.017,0.024-0.021,0.039l-5.596,22.18c-0.008,0.03-0.012,0.061-0.014,0.091C10.043,52.583,10,52.989,10,53.382
		c0,3.223,2.622,5.845,5.845,5.845c2.366,0,4.485-1.413,5.394-3.591l5.427-12.329c0.734,1.496,2.258,2.537,4.033,2.537
		c1.818,0,3.378-1.087,4.09-2.641h10.421c0.712,1.553,2.273,2.641,4.09,2.641c1.773,0,3.296-1.039,4.031-2.532l5.427,12.315
		c0.912,2.186,3.03,3.599,5.396,3.599c3.223,0,5.845-2.622,5.845-5.845C70,52.989,69.957,52.584,69.871,52.179z M63.53,31.971
		c0,4.156-3.382,7.537-7.538,7.537c-1.034,0-2.012-0.225-2.909-0.604c-0.613-0.949-1.571-1.644-2.696-1.925
		c-1.195-1.332-1.932-3.081-1.932-5.008c0-4.156,3.381-7.538,7.537-7.538S63.53,27.814,63.53,31.971z M51.131,23.89
		c0-0.418,0.208-0.796,0.557-1.011c0.832-0.512,2.254-1.122,4.303-1.122c2.05,0,3.472,0.61,4.304,1.122
		c0.349,0.215,0.557,0.593,0.557,1.011v1.091c-1.38-0.963-3.054-1.532-4.861-1.532c-1.806,0-3.48,0.569-4.86,1.532V23.89z
		 M19.013,23.89c0-0.412,0.214-0.799,0.557-1.011c0.832-0.512,2.254-1.122,4.304-1.122c2.048,0,3.471,0.61,4.303,1.122
		c0.344,0.212,0.558,0.599,0.558,1.011v0.996c-1.354-0.907-2.98-1.437-4.728-1.437c-1.867,0-3.589,0.61-4.995,1.633V23.89z
		 M24.008,24.433c4.156,0,7.537,3.382,7.537,7.538c0,1.927-0.738,3.676-1.932,5.008c-1.125,0.281-2.082,0.976-2.695,1.924
		c-0.898,0.38-1.876,0.605-2.911,0.605c-4.156,0-7.537-3.381-7.537-7.537S19.851,24.433,24.008,24.433z M20.333,55.25
		c-0.758,1.819-2.52,2.994-4.488,2.994c-2.681,0-4.861-2.18-4.861-4.861c0-0.347,0.041-0.706,0.122-1.067
		c0.005-0.021,0.008-0.042,0.01-0.062l4.616-18.293c0.9,3.741,4.265,6.532,8.277,6.532c0.823,0,1.614-0.128,2.366-0.349
		c-0.106,0.383-0.181,0.779-0.181,1.195c0,0.171,0.032,0.333,0.05,0.499L20.333,55.25z M30.699,44.861
		c-1.942,0-3.522-1.58-3.522-3.523c0-1.943,1.58-3.523,3.522-3.523c1.943,0,3.523,1.58,3.523,3.523
		C34.222,43.281,32.642,44.861,30.699,44.861z M35.117,42.221c0.057-0.286,0.089-0.58,0.089-0.883c0-2.391-1.877-4.333-4.231-4.479
		c0.976-1.385,1.554-3.069,1.554-4.889c0-1.807-0.569-3.481-1.532-4.861h18.006c-0.963,1.38-1.532,3.054-1.532,4.861
		c0,1.819,0.578,3.504,1.554,4.889c-2.354,0.146-4.23,2.088-4.23,4.478c0,0.302,0.032,0.597,0.089,0.883H35.117z M49.301,44.861
		c-1.943,0-3.523-1.58-3.523-3.523c0-1.943,1.58-3.523,3.523-3.523c1.942,0,3.522,1.58,3.522,3.523
		C52.823,43.281,51.243,44.861,49.301,44.861z M64.155,58.244c-1.968,0-3.73-1.176-4.493-3.003l-5.907-13.394
		c0.019-0.169,0.051-0.335,0.051-0.509c0-0.416-0.075-0.812-0.181-1.195c0.752,0.221,1.543,0.348,2.365,0.348
		c4.013,0,7.379-2.791,8.278-6.532l4.615,18.292c0.002,0.021,0.005,0.042,0.01,0.063c0.081,0.361,0.122,0.72,0.122,1.067
		C69.016,56.063,66.836,58.244,64.155,58.244z"/>
</g>
</svg>
