<?xml version="1.0" encoding="utf-8"?>
<!-- Generator: Adobe Illustrator 23.0.4, SVG Export Plug-In . SVG Version: 6.00 Build 0)  -->
<svg version="1.1" id="Calque_1" xmlns="http://www.w3.org/2000/svg" xmlns:xlink="http://www.w3.org/1999/xlink" x="0px" y="0px"
	 viewBox="0 0 80 80" style="enable-background:new 0 0 80 80;" xml:space="preserve">
<style type="text/css">
	.st0{fill:#FFFFFF;}
	.st1{opacity:0.3;fill:none;stroke:#231F20;stroke-miterlimit:10;}
</style>
<g>
	<path class="st0" d="M57.706,67.359l-9.671-9.67c0.817-0.186,1.551-0.639,2.087-1.305c1.802-2.245,5.992-8.339,5.992-16.45
		c0-8.108-4.19-14.205-5.992-16.45c-0.715-0.889-1.784-1.4-2.934-1.4h-6.697v-6.019c0.992-0.225,1.736-1.11,1.736-2.169
		c0-1.229-0.999-2.228-2.228-2.228c-1.228,0-2.228,0.999-2.228,2.228c0,1.059,0.744,1.944,1.736,2.169v6.019h-6.697
		c-1.15,0-2.219,0.51-2.934,1.4c-1.801,2.244-5.991,8.341-5.991,16.449c0,8.111,4.19,14.206,5.991,16.45
		c0.536,0.666,1.27,1.12,2.088,1.306l-2.726,2.726c-0.001,0.001-0.002,0.002-0.003,0.003l-3.469,3.469
		c-0.001,0.001-0.001,0.001-0.002,0.002l-3.47,3.47c-0.192,0.192-0.192,0.503,0,0.695c0.096,0.096,0.222,0.144,0.348,0.144
		s0.252-0.048,0.348-0.144l3.328-3.327h27.365l3.328,3.327c0.096,0.096,0.222,0.144,0.348,0.144c0.126,0,0.252-0.048,0.348-0.144
		C57.898,67.862,57.898,67.551,57.706,67.359z M46.739,57.784l2.488,2.488H30.773l2.488-2.488H46.739z M24.87,39.934
		c0-7.796,4.038-13.67,5.774-15.833c0.527-0.656,1.316-1.033,2.167-1.033h14.378c0.85,0,1.64,0.377,2.167,1.032
		c1.736,2.164,5.775,8.038,5.775,15.834c0,7.798-4.039,13.671-5.775,15.833c-0.527,0.657-1.318,1.034-2.167,1.034H32.811
		c-0.85,0-1.64-0.377-2.167-1.034C28.908,53.605,24.87,47.733,24.87,39.934z M27.301,63.743l2.488-2.488h20.422l2.488,2.488H27.301z
		"/>
	<path class="st0" d="M46.943,49.857c-1.229,0-2.228,0.999-2.228,2.228c0,1.229,0.999,2.228,2.228,2.228
		c1.229,0,2.228-0.999,2.228-2.228C49.17,50.856,48.171,49.857,46.943,49.857z M46.943,53.329c-0.686,0-1.244-0.558-1.244-1.244
		c0-0.686,0.558-1.244,1.244-1.244s1.244,0.558,1.244,1.244C48.187,52.771,47.629,53.329,46.943,53.329z"/>
	<path class="st0" d="M35.285,52.085c0-1.229-0.999-2.228-2.228-2.228c-1.229,0-2.228,0.999-2.228,2.228
		c0,1.229,0.999,2.228,2.228,2.228C34.285,54.313,35.285,53.314,35.285,52.085z M31.813,52.085c0-0.686,0.558-1.244,1.244-1.244
		c0.686,0,1.244,0.558,1.244,1.244c0,0.686-0.558,1.244-1.244,1.244C32.371,53.329,31.813,52.771,31.813,52.085z"/>
	<path class="st0" d="M52.184,39.923c0.3-0.319,0.45-0.733,0.422-1.166c-0.05-0.792-0.152-1.595-0.304-2.387
		c-0.849-4.435-3.081-7.722-4.335-9.287c-0.581-0.726-1.448-1.142-2.375-1.142H34.409c-0.928,0-1.794,0.416-2.376,1.142
		c-1.254,1.565-3.485,4.852-4.335,9.287c-0.152,0.794-0.254,1.598-0.303,2.389c-0.027,0.433,0.123,0.847,0.422,1.165
		c0.3,0.319,0.722,0.501,1.158,0.501h22.049C51.461,40.426,51.884,40.242,52.184,39.923z M28.533,39.251
		c-0.111-0.118-0.167-0.271-0.157-0.43c0.047-0.749,0.144-1.512,0.288-2.266c0.809-4.225,2.939-7.363,4.136-8.856
		c0.394-0.492,0.98-0.773,1.608-0.773h11.183c0.628,0,1.214,0.281,1.609,0.773c1.197,1.494,3.326,4.631,4.135,8.856
		c0.144,0.752,0.241,1.514,0.288,2.264c0.011,0.159-0.046,0.313-0.158,0.431c-0.114,0.122-0.276,0.192-0.443,0.192H28.975
		C28.809,39.442,28.648,39.372,28.533,39.251z"/>
	<path class="st0" d="M33.289,19.597c0.116,0,0.232-0.04,0.326-0.123c0.204-0.18,0.223-0.491,0.043-0.694
		c-1.19-1.349-1.845-3.082-1.845-4.883c0-1.799,0.655-3.533,1.845-4.882c0.18-0.204,0.16-0.515-0.043-0.694
		c-0.204-0.179-0.513-0.158-0.694,0.043c-1.349,1.528-2.091,3.494-2.091,5.533c0,2.04,0.743,4.006,2.091,5.534
		C33.018,19.54,33.153,19.597,33.289,19.597z"/>
	<path class="st0" d="M34.648,18.159c0.097,0.11,0.233,0.166,0.369,0.166c0.116,0,0.232-0.04,0.326-0.123
		c0.204-0.18,0.223-0.491,0.043-0.694c-0.88-0.997-1.365-2.279-1.365-3.611c0-1.33,0.485-2.613,1.365-3.611
		c0.18-0.204,0.16-0.515-0.044-0.694c-0.202-0.179-0.513-0.159-0.694,0.043c-1.039,1.178-1.611,2.691-1.611,4.262
		C33.037,15.469,33.609,16.982,34.648,18.159z"/>
	<path class="st0" d="M36.245,16.191c0.097,0.11,0.233,0.166,0.369,0.166c0.116,0,0.232-0.04,0.326-0.123
		c0.204-0.18,0.223-0.491,0.043-0.694c-0.401-0.453-0.621-1.036-0.621-1.643c0-0.606,0.22-1.189,0.621-1.643
		c0.18-0.204,0.16-0.515-0.043-0.694c-0.203-0.18-0.513-0.158-0.694,0.043c-0.559,0.634-0.867,1.449-0.867,2.294
		C35.378,14.742,35.686,15.557,36.245,16.191z"/>
	<path class="st0" d="M48.187,13.897c0,1.801-0.655,3.535-1.845,4.883c-0.18,0.204-0.16,0.515,0.043,0.694
		c0.093,0.083,0.209,0.123,0.326,0.123c0.136,0,0.272-0.057,0.369-0.166c1.349-1.527,2.091-3.493,2.091-5.534
		c0-2.04-0.743-4.006-2.091-5.533c-0.18-0.203-0.492-0.223-0.694-0.043c-0.204,0.18-0.223,0.491-0.043,0.694
		C47.532,10.363,48.187,12.096,48.187,13.897z"/>
	<path class="st0" d="M45.979,13.897c0,1.331-0.485,2.614-1.365,3.611c-0.18,0.204-0.16,0.515,0.043,0.694
		c0.094,0.083,0.209,0.123,0.326,0.123c0.136,0,0.272-0.057,0.369-0.166c1.038-1.177,1.611-2.691,1.611-4.262
		c0-1.571-0.572-3.084-1.611-4.262c-0.18-0.203-0.49-0.223-0.694-0.043c-0.204,0.18-0.223,0.491-0.043,0.694
		C45.493,11.284,45.979,12.567,45.979,13.897z"/>
	<path class="st0" d="M43.061,16.234c0.094,0.083,0.209,0.123,0.326,0.123c0.136,0,0.272-0.057,0.369-0.166
		c0.559-0.633,0.866-1.448,0.866-2.294s-0.307-1.661-0.866-2.294c-0.18-0.203-0.49-0.223-0.694-0.043
		c-0.204,0.18-0.223,0.491-0.043,0.694c0.401,0.453,0.621,1.036,0.621,1.643c0,0.606-0.22,1.189-0.621,1.643
		C42.838,15.743,42.858,16.055,43.061,16.234z"/>
</g>
</svg>
