<?xml version="1.0" encoding="utf-8"?>
<!-- Generator: Adobe Illustrator 23.0.4, SVG Export Plug-In . SVG Version: 6.00 Build 0)  -->
<svg version="1.1" id="Calque_1" xmlns="http://www.w3.org/2000/svg" xmlns:xlink="http://www.w3.org/1999/xlink" x="0px" y="0px"
	 viewBox="0 0 80 80" style="enable-background:new 0 0 80 80;" xml:space="preserve">
<style type="text/css">
	.st0{fill:#FFFFFF;}
	.st1{opacity:0.3;fill:none;stroke:#231F20;stroke-miterlimit:10;}
</style>
<g>
	<path class="st0" d="M65.574,57.411H14.426c-2.441,0-4.426-1.985-4.426-4.426V24.538c0-2.441,1.985-4.426,4.426-4.426h51.148
		c2.441,0,4.426,1.985,4.426,4.426v28.447C70,55.425,68.015,57.411,65.574,57.411z M14.426,21.095c-1.898,0-3.443,1.545-3.443,3.443
		v28.447c0,1.898,1.545,3.443,3.443,3.443h51.148c1.898,0,3.443-1.545,3.443-3.443V24.538c0-1.898-1.545-3.443-3.443-3.443H14.426z"
		/>
	<path class="st0" d="M69.508,48.334H42.27c-0.096,0-9.571-0.11-9.571-9.571s9.475-9.571,9.571-9.571h27.238
		c0.272,0,0.492,0.22,0.492,0.492v18.159C70,48.114,69.78,48.334,69.508,48.334z M42.27,30.174c-0.35,0.001-8.587,0.117-8.587,8.588
		c0,8.49,8.237,8.588,8.587,8.588h26.747V30.174H42.27z"/>
	<path class="st0" d="M28.651,30.174h-13.62c-0.272,0-0.492-0.22-0.492-0.492c0-0.272,0.22-0.492,0.492-0.492h13.62
		c0.272,0,0.492,0.22,0.492,0.492C29.143,29.954,28.923,30.174,28.651,30.174z"/>
	<path class="st0" d="M28.651,34.714h-13.62c-0.272,0-0.492-0.22-0.492-0.492c0-0.272,0.22-0.492,0.492-0.492h13.62
		c0.272,0,0.492,0.22,0.492,0.492C29.143,34.494,28.923,34.714,28.651,34.714z"/>
	<path class="st0" d="M28.651,39.254h-13.62c-0.272,0-0.492-0.22-0.492-0.492c0-0.272,0.22-0.492,0.492-0.492h13.62
		c0.272,0,0.492,0.22,0.492,0.492C29.143,39.034,28.923,39.254,28.651,39.254z"/>
	<path class="st0" d="M28.651,43.794h-13.62c-0.272,0-0.492-0.22-0.492-0.492s0.22-0.492,0.492-0.492h13.62
		c0.272,0,0.492,0.22,0.492,0.492S28.923,43.794,28.651,43.794z"/>
	<path class="st0" d="M28.651,48.334h-13.62c-0.272,0-0.492-0.22-0.492-0.492c0-0.272,0.22-0.492,0.492-0.492h13.62
		c0.272,0,0.492,0.22,0.492,0.492C29.143,48.114,28.923,48.334,28.651,48.334z"/>
	<path class="st0" d="M64.969,52.873H46.809c-0.272,0-0.492-0.22-0.492-0.492c0-0.272,0.22-0.492,0.492-0.492h18.159
		c0.272,0,0.492,0.22,0.492,0.492C65.46,52.653,65.24,52.873,64.969,52.873z"/>
	<path class="st0" d="M61.758,42.464c-0.126,0-0.252-0.048-0.348-0.144c-0.192-0.192-0.192-0.503,0-0.695l2.862-2.862L61.411,35.9
		c-0.192-0.192-0.192-0.503,0-0.695c0.192-0.192,0.503-0.192,0.695,0l3.21,3.21c0.092,0.092,0.144,0.217,0.144,0.348
		s-0.052,0.256-0.144,0.348l-3.21,3.21C62.01,42.416,61.884,42.464,61.758,42.464z"/>
	<g>
		<polygon class="st0" points="51.349,42.954 51.891,42.413 50.808,42.413 		"/>
		<polygon class="st0" points="50.808,35.112 51.891,35.112 51.349,34.57 		"/>
		<path class="st0" d="M54.754,33.731h-6.809c-1.194,0-1.627,0.973-1.627,1.627v6.809c0,1.194,0.973,1.627,1.627,1.627h6.809
			c1.194,0,1.627-0.973,1.627-1.627v-6.809C56.381,34.164,55.408,33.731,54.754,33.731z M47.055,39.651h3.159
			c0.135,0,0.246,0.11,0.246,0.246c0,0.136-0.11,0.246-0.246,0.246h-2.024v0.889c0,0.135-0.11,0.246-0.246,0.246
			s-0.246-0.11-0.246-0.246v-0.889h-0.644V39.651z M55.644,35.603h-3.701l0.297,0.296c0.317,0.317,0.491,0.737,0.491,1.185v0.297
			h1.778v-0.889c0-0.136,0.11-0.246,0.246-0.246c0.135,0,0.246,0.11,0.246,0.246v0.889h0.644v0.492H52.73v1.778h2.913v0.492H55
			v0.889c0,0.135-0.11,0.246-0.246,0.246c-0.135,0-0.246-0.11-0.246-0.246v-0.889H52.73v0.297c0,0.441-0.179,0.872-0.491,1.184
			l-0.297,0.297h3.701v0.245c0,0.028-0.007,0.127-0.037,0.247h-0.751l-0.644,0.644h-0.695l0.644-0.644h-1.574l-0.644,0.644h-1.187
			l-0.643-0.644h-1.575l0.643,0.644h-0.695l-0.643-0.644h-0.758c-0.017-0.074-0.03-0.153-0.03-0.246v-0.246h4.192l0.645-0.645
			c0.22-0.22,0.347-0.525,0.347-0.837v-3.355c0-0.316-0.123-0.613-0.347-0.837l-0.543-0.542l-0.542,0.542
			c-0.224,0.224-0.347,0.521-0.347,0.837v0.543c0,0.136-0.11,0.246-0.246,0.246h-3.159v-0.492h0.644v-0.889
			c0-0.136,0.11-0.246,0.246-0.246s0.246,0.11,0.246,0.246v0.889h1.778v-0.297c0-0.448,0.174-0.868,0.491-1.185l0.296-0.296h-3.7
			v-0.246c0-0.028,0.006-0.127,0.035-0.246h0.753l0.643-0.643h0.695l-0.643,0.643h1.574l0.643-0.643h1.187l0.643,0.643h1.574
			l-0.643-0.643h0.696l0.643,0.643h0.758c0.017,0.074,0.03,0.153,0.03,0.246V35.603z"/>
	</g>
</g>
</svg>
