<?xml version="1.0" encoding="utf-8"?>
<!-- Generator: Adobe Illustrator 23.0.4, SVG Export Plug-In . SVG Version: 6.00 Build 0)  -->
<svg version="1.1" id="Calque_1" xmlns="http://www.w3.org/2000/svg" xmlns:xlink="http://www.w3.org/1999/xlink" x="0px" y="0px"
	 viewBox="0 0 80 80" style="enable-background:new 0 0 80 80;" xml:space="preserve">
<style type="text/css">
	.st0{fill:#FFFFFF;}
	.st1{opacity:0.3;fill:none;stroke:#231F20;stroke-miterlimit:10;}
</style>
<g>
	<path class="st0" d="M24.527,55.718c-0.186-0.186-0.511-0.186-0.698,0c-0.049,0.039-0.079,0.099-0.108,0.158
		c-0.02,0.06-0.039,0.128-0.039,0.187c0,0.068,0.019,0.128,0.039,0.186c0.029,0.06,0.059,0.118,0.108,0.167
		c0.049,0.039,0.099,0.079,0.158,0.099c0.06,0.029,0.128,0.039,0.187,0.039c0.068,0,0.137-0.011,0.196-0.039
		c0.06-0.02,0.109-0.06,0.158-0.099c0.088-0.098,0.148-0.216,0.148-0.353c0-0.06-0.02-0.128-0.039-0.187
		C24.606,55.816,24.567,55.757,24.527,55.718z"/>
	<path class="st0" d="M26.77,55.718c-0.197-0.186-0.511-0.186-0.698,0c-0.049,0.039-0.079,0.099-0.109,0.158
		c-0.019,0.06-0.039,0.128-0.039,0.187c0,0.137,0.05,0.256,0.148,0.353c0.049,0.039,0.098,0.079,0.158,0.099
		c0.059,0.029,0.128,0.039,0.186,0.039c0.069,0,0.128-0.011,0.187-0.039c0.059-0.02,0.118-0.06,0.167-0.099
		c0.039-0.049,0.079-0.108,0.098-0.167c0.03-0.059,0.039-0.118,0.039-0.186c0-0.06-0.01-0.128-0.039-0.187
		C26.849,55.816,26.81,55.757,26.77,55.718z"/>
	<path class="st0" d="M29.003,55.718c-0.049-0.049-0.098-0.079-0.157-0.108c-0.118-0.05-0.256-0.05-0.374,0
		c-0.06,0.029-0.118,0.059-0.158,0.108c-0.05,0.039-0.088,0.099-0.109,0.158c-0.03,0.06-0.039,0.128-0.039,0.187
		c0,0.137,0.049,0.256,0.148,0.353c0.088,0.089,0.216,0.138,0.344,0.138c0.06,0,0.128-0.011,0.187-0.039
		c0.059-0.02,0.108-0.06,0.157-0.099c0.099-0.098,0.148-0.216,0.148-0.353c0-0.06-0.01-0.128-0.039-0.187
		C29.092,55.816,29.053,55.757,29.003,55.718z"/>
	<path class="st0" d="M24.527,57.508c-0.049-0.039-0.098-0.079-0.158-0.098c-0.128-0.05-0.256-0.05-0.383,0
		c-0.059,0.019-0.109,0.059-0.158,0.098c-0.049,0.049-0.079,0.098-0.108,0.167c-0.02,0.06-0.039,0.118-0.039,0.187
		c0,0.059,0.019,0.128,0.039,0.186c0.029,0.06,0.059,0.109,0.108,0.158s0.099,0.079,0.158,0.109c0.06,0.019,0.128,0.039,0.187,0.039
		c0.068,0,0.137-0.02,0.196-0.039c0.06-0.03,0.109-0.06,0.158-0.109c0.088-0.088,0.148-0.216,0.148-0.344
		c0-0.069-0.02-0.128-0.039-0.187C24.606,57.606,24.567,57.557,24.527,57.508z"/>
	<path class="st0" d="M22.285,57.518c-0.05-0.049-0.099-0.088-0.158-0.108c-0.118-0.05-0.256-0.05-0.374,0
		c-0.06,0.019-0.118,0.059-0.167,0.108c-0.039,0.039-0.079,0.088-0.099,0.158c-0.03,0.06-0.039,0.118-0.039,0.187
		c0,0.128,0.049,0.256,0.138,0.344c0.049,0.049,0.108,0.079,0.167,0.109c0.059,0.019,0.117,0.039,0.186,0.039
		c0.06,0,0.128-0.02,0.187-0.039c0.059-0.03,0.108-0.06,0.158-0.109c0.098-0.088,0.147-0.216,0.147-0.344
		c0-0.069-0.01-0.128-0.039-0.187C22.363,57.606,22.334,57.557,22.285,57.518z"/>
	<path class="st0" d="M26.77,57.508c-0.197-0.177-0.511-0.177-0.698,0c-0.049,0.049-0.079,0.098-0.109,0.167
		c-0.019,0.06-0.039,0.118-0.039,0.187c0,0.059,0.02,0.128,0.039,0.186c0.03,0.06,0.06,0.109,0.109,0.158s0.098,0.079,0.158,0.109
		c0.059,0.019,0.128,0.039,0.186,0.039c0.069,0,0.128-0.02,0.187-0.039c0.059-0.03,0.118-0.06,0.167-0.109
		c0.039-0.049,0.079-0.098,0.098-0.158c0.03-0.059,0.039-0.128,0.039-0.186c0-0.069-0.01-0.128-0.039-0.187
		C26.849,57.606,26.81,57.557,26.77,57.508z"/>
	<path class="st0" d="M31.246,57.508c-0.137-0.137-0.364-0.177-0.541-0.098c-0.059,0.019-0.109,0.059-0.158,0.098
		c-0.049,0.049-0.079,0.098-0.108,0.167c-0.02,0.06-0.03,0.118-0.03,0.187c0,0.128,0.049,0.256,0.137,0.344
		c0.049,0.049,0.099,0.079,0.158,0.109c0.059,0.019,0.128,0.039,0.187,0.039c0.068,0,0.137-0.02,0.196-0.039
		c0.06-0.03,0.109-0.06,0.158-0.109c0.088-0.088,0.138-0.216,0.138-0.344c0-0.069-0.011-0.128-0.03-0.187
		C31.324,57.606,31.295,57.557,31.246,57.508z"/>
	<path class="st0" d="M29.003,57.508c-0.137-0.137-0.353-0.177-0.53-0.109c-0.06,0.03-0.118,0.069-0.158,0.109
		c-0.05,0.049-0.088,0.098-0.109,0.167c-0.03,0.06-0.039,0.118-0.039,0.187c0,0.059,0.01,0.128,0.039,0.186
		c0.02,0.06,0.059,0.118,0.109,0.158c0.088,0.088,0.207,0.148,0.344,0.148c0.06,0,0.128-0.02,0.187-0.039
		c0.059-0.03,0.108-0.06,0.157-0.109c0.05-0.039,0.089-0.098,0.109-0.158c0.03-0.059,0.039-0.128,0.039-0.186
		c0-0.069-0.01-0.128-0.039-0.187C29.081,57.606,29.053,57.557,29.003,57.508z"/>
	<path class="st0" d="M24.37,59.2c-0.128-0.049-0.256-0.049-0.383,0c-0.059,0.03-0.109,0.06-0.158,0.109
		c-0.039,0.049-0.079,0.098-0.108,0.158c-0.02,0.059-0.039,0.128-0.039,0.186c0,0.069,0.019,0.128,0.039,0.187
		c0.029,0.059,0.059,0.118,0.108,0.167c0.049,0.039,0.099,0.079,0.158,0.098c0.06,0.03,0.128,0.039,0.187,0.039
		c0.068,0,0.137-0.01,0.196-0.039c0.06-0.019,0.109-0.059,0.158-0.098c0.039-0.049,0.079-0.109,0.109-0.167
		c0.019-0.06,0.039-0.118,0.039-0.187c0-0.128-0.06-0.256-0.148-0.344C24.478,59.259,24.429,59.229,24.37,59.2z"/>
	<path class="st0" d="M20.052,59.308c-0.186-0.187-0.511-0.187-0.698,0c-0.098,0.088-0.148,0.216-0.148,0.344
		c0,0.138,0.05,0.256,0.148,0.354c0.049,0.039,0.098,0.079,0.158,0.098c0.059,0.03,0.128,0.039,0.186,0.039
		c0.129,0,0.256-0.049,0.354-0.137c0.088-0.098,0.137-0.216,0.137-0.354c0-0.059-0.01-0.128-0.039-0.186
		C20.131,59.406,20.092,59.357,20.052,59.308z"/>
	<path class="st0" d="M22.285,59.308c-0.187-0.187-0.502-0.187-0.698,0c-0.039,0.049-0.079,0.098-0.099,0.158
		c-0.03,0.059-0.039,0.128-0.039,0.186c0,0.138,0.049,0.256,0.138,0.354c0.049,0.039,0.108,0.079,0.167,0.098
		c0.059,0.03,0.117,0.039,0.186,0.039c0.06,0,0.128-0.01,0.187-0.039c0.059-0.019,0.108-0.059,0.158-0.098
		c0.098-0.098,0.147-0.216,0.147-0.354c0-0.059-0.01-0.128-0.039-0.186C22.363,59.406,22.334,59.357,22.285,59.308z"/>
	<path class="st0" d="M26.77,59.308c-0.187-0.187-0.511-0.187-0.698,0c-0.049,0.049-0.079,0.098-0.109,0.158
		c-0.019,0.059-0.039,0.128-0.039,0.186c0,0.138,0.05,0.256,0.148,0.354c0.049,0.039,0.098,0.079,0.158,0.098
		c0.059,0.03,0.128,0.039,0.186,0.039c0.069,0,0.128-0.01,0.187-0.039c0.059-0.019,0.118-0.059,0.167-0.098
		c0.039-0.049,0.079-0.098,0.098-0.158c0.03-0.069,0.039-0.128,0.039-0.197c0-0.059-0.01-0.128-0.039-0.186
		C26.849,59.406,26.81,59.357,26.77,59.308z"/>
	<path class="st0" d="M31.246,59.308c-0.137-0.137-0.364-0.177-0.541-0.109c-0.059,0.03-0.109,0.06-0.158,0.109
		s-0.079,0.098-0.108,0.158c-0.02,0.059-0.03,0.128-0.03,0.186c0,0.069,0.01,0.128,0.03,0.187c0.029,0.069,0.059,0.118,0.108,0.167
		c0.049,0.039,0.099,0.079,0.158,0.098c0.059,0.03,0.128,0.039,0.187,0.039c0.068,0,0.137-0.01,0.196-0.039
		c0.06-0.019,0.109-0.059,0.158-0.098c0.049-0.049,0.079-0.098,0.109-0.167c0.019-0.06,0.03-0.118,0.03-0.187
		c0-0.059-0.011-0.128-0.03-0.186C31.324,59.406,31.295,59.357,31.246,59.308z"/>
	<path class="st0" d="M29.003,59.308c-0.137-0.137-0.353-0.187-0.53-0.109c-0.06,0.03-0.118,0.06-0.158,0.109
		c-0.05,0.049-0.088,0.098-0.109,0.158c-0.03,0.059-0.039,0.128-0.039,0.186c0,0.069,0.01,0.128,0.039,0.187
		c0.02,0.069,0.059,0.118,0.109,0.167c0.088,0.088,0.216,0.137,0.344,0.137c0.06,0,0.128-0.01,0.187-0.039
		c0.059-0.019,0.108-0.059,0.157-0.098c0.05-0.049,0.079-0.098,0.109-0.167c0.03-0.06,0.039-0.118,0.039-0.187
		c0-0.059-0.01-0.128-0.039-0.186C29.081,59.406,29.053,59.357,29.003,59.308z"/>
	<path class="st0" d="M33.479,59.308c-0.138-0.137-0.345-0.187-0.531-0.109c-0.06,0.03-0.118,0.06-0.158,0.109
		c-0.049,0.049-0.088,0.098-0.109,0.158c-0.029,0.059-0.039,0.128-0.039,0.186c0,0.138,0.049,0.256,0.148,0.354
		c0.088,0.088,0.216,0.137,0.344,0.137c0.069,0,0.128-0.01,0.187-0.039c0.059-0.019,0.118-0.059,0.158-0.098
		c0.049-0.049,0.088-0.109,0.108-0.167c0.03-0.06,0.039-0.118,0.039-0.187c0-0.059-0.01-0.128-0.039-0.186
		C33.567,59.406,33.528,59.357,33.479,59.308z"/>
	<path class="st0" d="M24.37,61c-0.128-0.049-0.256-0.049-0.383,0c-0.059,0.02-0.109,0.06-0.158,0.109
		c-0.039,0.039-0.079,0.098-0.108,0.158c-0.02,0.059-0.039,0.118-0.039,0.186c0,0.06,0.019,0.128,0.039,0.187
		c0.029,0.059,0.059,0.108,0.108,0.158c0.049,0.049,0.099,0.088,0.158,0.108c0.06,0.03,0.128,0.039,0.187,0.039
		c0.068,0,0.137-0.01,0.196-0.039c0.06-0.019,0.109-0.059,0.158-0.108c0.039-0.05,0.079-0.099,0.109-0.158
		c0.019-0.06,0.039-0.128,0.039-0.187c0-0.137-0.06-0.256-0.148-0.344C24.478,61.059,24.429,61.02,24.37,61z"/>
	<path class="st0" d="M19.885,61c-0.118-0.049-0.256-0.049-0.374,0c-0.06,0.02-0.118,0.06-0.158,0.109
		c-0.049,0.039-0.079,0.098-0.109,0.158c-0.029,0.059-0.039,0.118-0.039,0.186c0,0.069,0.011,0.128,0.039,0.187
		c0.02,0.059,0.06,0.108,0.109,0.158c0.088,0.098,0.216,0.147,0.344,0.147c0.138,0,0.256-0.049,0.354-0.147
		c0.039-0.05,0.079-0.099,0.098-0.158c0.03-0.06,0.039-0.128,0.039-0.187c0-0.128-0.049-0.256-0.137-0.344
		C20.003,61.059,19.944,61.02,19.885,61z"/>
	<path class="st0" d="M22.128,61c-0.118-0.049-0.256-0.049-0.374,0c-0.06,0.02-0.118,0.06-0.167,0.109
		c-0.089,0.088-0.138,0.216-0.138,0.344c0,0.06,0.01,0.128,0.039,0.187c0.02,0.059,0.06,0.108,0.099,0.158
		c0.049,0.049,0.108,0.088,0.167,0.108c0.059,0.03,0.117,0.039,0.186,0.039c0.06,0,0.128-0.01,0.187-0.039
		c0.059-0.019,0.108-0.059,0.158-0.108c0.049-0.05,0.088-0.099,0.108-0.158c0.03-0.06,0.039-0.128,0.039-0.187
		c0-0.128-0.049-0.256-0.147-0.344C22.246,61.059,22.187,61.02,22.128,61z"/>
	<path class="st0" d="M26.77,61.099c-0.197-0.178-0.511-0.178-0.698,0c-0.049,0.049-0.079,0.108-0.109,0.167
		c-0.019,0.059-0.039,0.118-0.039,0.186c0,0.128,0.05,0.256,0.148,0.345c0.049,0.049,0.098,0.079,0.158,0.108
		c0.059,0.02,0.128,0.039,0.186,0.039c0.069,0,0.128-0.019,0.187-0.039c0.059-0.029,0.118-0.059,0.167-0.108
		c0.039-0.05,0.079-0.099,0.098-0.158c0.03-0.06,0.039-0.128,0.039-0.187c0-0.068-0.01-0.128-0.039-0.186
		C26.849,61.206,26.81,61.148,26.77,61.099z"/>
	<path class="st0" d="M31.088,61c-0.128-0.049-0.265-0.049-0.383,0c-0.059,0.02-0.109,0.06-0.158,0.109
		c-0.088,0.088-0.137,0.207-0.137,0.344c0,0.128,0.049,0.256,0.137,0.345c0.099,0.098,0.216,0.147,0.345,0.147
		c0.068,0,0.137-0.01,0.196-0.039c0.06-0.019,0.109-0.059,0.158-0.108c0.088-0.089,0.138-0.217,0.138-0.345
		c0-0.137-0.05-0.256-0.138-0.344C31.197,61.059,31.148,61.02,31.088,61z"/>
	<path class="st0" d="M28.846,61c-0.118-0.049-0.256-0.049-0.374,0c-0.06,0.02-0.118,0.06-0.158,0.109
		c-0.05,0.039-0.088,0.098-0.109,0.158c-0.03,0.059-0.039,0.118-0.039,0.186c0,0.128,0.049,0.256,0.148,0.345
		c0.088,0.098,0.207,0.147,0.344,0.147c0.06,0,0.128-0.01,0.187-0.039c0.059-0.019,0.108-0.059,0.157-0.108
		c0.05-0.05,0.089-0.099,0.109-0.158c0.03-0.06,0.039-0.128,0.039-0.187c0-0.128-0.049-0.256-0.148-0.344
		C28.954,61.059,28.905,61.02,28.846,61z"/>
	<path class="st0" d="M33.479,61.099C33.34,60.97,33.134,60.921,32.948,61c-0.06,0.02-0.118,0.06-0.158,0.099
		c-0.049,0.049-0.079,0.108-0.109,0.167c-0.029,0.059-0.039,0.118-0.039,0.186c0,0.069,0.011,0.128,0.039,0.187
		c0.02,0.059,0.06,0.118,0.109,0.158c0.088,0.098,0.216,0.147,0.344,0.147c0.069,0,0.128-0.01,0.187-0.039
		c0.059-0.029,0.118-0.059,0.158-0.108c0.098-0.089,0.147-0.217,0.147-0.345c0-0.068-0.01-0.128-0.039-0.186
		C33.567,61.206,33.528,61.148,33.479,61.099z"/>
	<path class="st0" d="M24.527,62.899c-0.049-0.05-0.098-0.079-0.158-0.109c-0.128-0.049-0.256-0.049-0.383,0
		c-0.059,0.03-0.109,0.059-0.158,0.109c-0.049,0.049-0.079,0.098-0.108,0.157c-0.02,0.06-0.039,0.128-0.039,0.187
		c0,0.069,0.019,0.128,0.039,0.197c0.029,0.059,0.059,0.108,0.108,0.158c0.049,0.039,0.099,0.078,0.158,0.108
		c0.06,0.02,0.128,0.03,0.187,0.03c0.068,0,0.137-0.01,0.196-0.03c0.06-0.03,0.109-0.068,0.158-0.108
		c0.039-0.05,0.079-0.099,0.109-0.158c0.019-0.069,0.039-0.128,0.039-0.197c0-0.06-0.02-0.128-0.039-0.187
		C24.606,62.997,24.567,62.948,24.527,62.899z"/>
	<path class="st0" d="M22.128,62.79c-0.118-0.049-0.256-0.049-0.374,0c-0.06,0.03-0.118,0.059-0.167,0.109
		c-0.089,0.088-0.138,0.216-0.138,0.344c0,0.137,0.049,0.256,0.138,0.354c0.049,0.039,0.108,0.078,0.167,0.108
		c0.059,0.02,0.117,0.03,0.186,0.03c0.06,0,0.128-0.01,0.187-0.03c0.059-0.03,0.108-0.068,0.158-0.108
		c0.098-0.099,0.147-0.217,0.147-0.354c0-0.128-0.049-0.256-0.147-0.344C22.236,62.849,22.187,62.82,22.128,62.79z"/>
	<path class="st0" d="M26.77,62.899c-0.197-0.187-0.511-0.187-0.698,0c-0.049,0.049-0.079,0.098-0.109,0.157
		c-0.019,0.06-0.039,0.128-0.039,0.187c0,0.069,0.02,0.128,0.039,0.197c0.03,0.059,0.06,0.108,0.109,0.158
		c0.049,0.039,0.098,0.078,0.158,0.108c0.059,0.02,0.128,0.03,0.186,0.03c0.069,0,0.128-0.01,0.187-0.03
		c0.059-0.03,0.118-0.068,0.167-0.108c0.039-0.05,0.079-0.099,0.098-0.158c0.03-0.069,0.039-0.128,0.039-0.197
		c0-0.06-0.01-0.128-0.039-0.187C26.849,62.997,26.81,62.948,26.77,62.899z"/>
	<path class="st0" d="M31.246,62.899c-0.186-0.187-0.511-0.187-0.698,0c-0.049,0.049-0.079,0.098-0.108,0.157
		c-0.02,0.06-0.03,0.128-0.03,0.187c0,0.069,0.01,0.128,0.03,0.186c0.029,0.069,0.059,0.118,0.108,0.168
		c0.049,0.039,0.099,0.078,0.158,0.108c0.059,0.02,0.128,0.03,0.187,0.03c0.068,0,0.137-0.01,0.196-0.03
		c0.06-0.03,0.109-0.068,0.158-0.108c0.049-0.05,0.079-0.099,0.109-0.168c0.019-0.059,0.03-0.117,0.03-0.186
		c0-0.06-0.011-0.128-0.03-0.187C31.324,62.997,31.295,62.948,31.246,62.899z"/>
	<path class="st0" d="M29.003,62.899c-0.137-0.138-0.353-0.178-0.53-0.109c-0.06,0.03-0.118,0.059-0.158,0.109
		c-0.05,0.049-0.088,0.098-0.109,0.157c-0.03,0.06-0.039,0.128-0.039,0.187c0,0.137,0.049,0.265,0.148,0.354
		c0.088,0.088,0.216,0.137,0.344,0.137c0.06,0,0.128-0.01,0.187-0.03c0.059-0.03,0.108-0.068,0.157-0.108
		c0.099-0.099,0.148-0.217,0.148-0.354c0-0.06-0.01-0.128-0.039-0.187C29.092,62.997,29.053,62.948,29.003,62.899z"/>
	<path class="st0" d="M24.37,64.59c-0.128-0.049-0.256-0.049-0.383,0c-0.059,0.019-0.109,0.059-0.158,0.108
		c-0.039,0.039-0.079,0.099-0.108,0.158c-0.02,0.06-0.039,0.128-0.039,0.187c0,0.069,0.019,0.128,0.039,0.186
		c0.029,0.06,0.059,0.118,0.108,0.158c0.049,0.049,0.099,0.088,0.158,0.109c0.06,0.03,0.128,0.039,0.187,0.039
		c0.068,0,0.137-0.01,0.196-0.039c0.06-0.02,0.109-0.06,0.158-0.109c0.088-0.088,0.148-0.216,0.148-0.344s-0.06-0.256-0.148-0.345
		C24.478,64.649,24.429,64.609,24.37,64.59z"/>
	<path class="st0" d="M26.77,64.698c-0.187-0.186-0.511-0.186-0.698,0c-0.049,0.039-0.079,0.099-0.109,0.158
		c-0.019,0.06-0.039,0.118-0.039,0.187c0,0.128,0.05,0.256,0.148,0.344c0.049,0.049,0.098,0.088,0.158,0.109
		c0.059,0.03,0.128,0.039,0.186,0.039c0.069,0,0.128-0.01,0.187-0.039c0.059-0.02,0.118-0.06,0.167-0.109
		c0.039-0.039,0.079-0.098,0.098-0.158c0.03-0.059,0.039-0.117,0.039-0.186s-0.01-0.128-0.039-0.187
		C26.849,64.797,26.81,64.737,26.77,64.698z"/>
	<path class="st0" d="M29.003,64.698c-0.049-0.049-0.098-0.088-0.157-0.108c-0.118-0.049-0.256-0.049-0.374,0
		c-0.06,0.019-0.118,0.059-0.158,0.108c-0.05,0.039-0.088,0.099-0.109,0.158c-0.03,0.06-0.039,0.128-0.039,0.187
		c0,0.137,0.049,0.256,0.148,0.344c0.088,0.099,0.216,0.148,0.344,0.148c0.06,0,0.128-0.01,0.187-0.039
		c0.059-0.02,0.108-0.06,0.157-0.109c0.099-0.088,0.148-0.216,0.148-0.344c0-0.06-0.01-0.128-0.039-0.187
		C29.092,64.797,29.053,64.737,29.003,64.698z"/>
	<path class="st0" d="M33.98,33.195V22.703c0-0.029-0.012-0.055-0.017-0.083c0.003-0.056,0.017-0.109,0.017-0.166
		c0-1.507-1.226-2.733-2.732-2.733c-1.507,0-2.733,1.226-2.733,2.733c0,0.057,0.013,0.11,0.017,0.166
		c-0.005,0.028-0.017,0.054-0.017,0.083v10.462h-3.497v-3.989c0-0.272-0.22-0.492-0.492-0.492h-4.482
		c-0.272,0-0.492,0.22-0.492,0.492v3.989h-0.055c-2.441,0-4.426,1.985-4.426,4.426v27.982c0,2.441,1.985,4.426,4.426,4.426h14.193
		c2.441,0,4.426-1.985,4.426-4.426V37.592C38.117,35.25,36.284,33.347,33.98,33.195z M29.499,24.537
		c0.475,0.4,1.081,0.651,1.749,0.651c0.668,0,1.273-0.251,1.748-0.651v8.629h-3.497V24.537z M20.536,29.668h3.498v3.497h-3.498
		V29.668z M37.134,65.574c0,1.898-1.545,3.443-3.443,3.443H19.498c-1.898,0-3.443-1.545-3.443-3.443V37.592
		c0-1.898,1.545-3.443,3.443-3.443h14.193c1.898,0,3.443,1.545,3.443,3.443V65.574z"/>
	<path class="st0" d="M22.285,46.61c-1.507,0-2.733,1.226-2.733,2.733c0,1.507,1.226,2.733,2.733,2.733
		c1.507,0,2.733-1.226,2.733-2.733C25.018,47.835,23.793,46.61,22.285,46.61z M22.285,51.092c-0.964,0-1.749-0.785-1.749-1.749
		c0-0.964,0.785-1.749,1.749-1.749s1.749,0.785,1.749,1.749C24.035,50.307,23.25,51.092,22.285,51.092z"/>
	<path class="st0" d="M31.248,46.61c-1.507,0-2.733,1.226-2.733,2.733c0,1.507,1.226,2.733,2.733,2.733
		c1.506,0,2.732-1.226,2.732-2.733C33.98,47.835,32.755,46.61,31.248,46.61z M31.248,51.092c-0.964,0-1.749-0.785-1.749-1.749
		c0-0.964,0.785-1.749,1.749-1.749s1.748,0.785,1.748,1.749C32.997,50.307,32.213,51.092,31.248,51.092z"/>
	<path class="st0" d="M33.488,37.648H20.045c-0.272,0-0.492,0.22-0.492,0.492v4.481c0,0.272,0.22,0.492,0.492,0.492h13.444
		c0.272,0,0.492-0.22,0.492-0.492v-4.481C33.98,37.868,33.76,37.648,33.488,37.648z M32.997,42.129h-12.46v-3.497h12.46V42.129z"/>
	<path class="st0" d="M50.996,55.718c-0.049-0.049-0.109-0.079-0.167-0.108c-0.177-0.069-0.403-0.03-0.531,0.108
		c-0.049,0.039-0.079,0.099-0.109,0.158c-0.019,0.06-0.039,0.128-0.039,0.187c0,0.137,0.05,0.256,0.148,0.353
		c0.049,0.039,0.098,0.079,0.158,0.099c0.059,0.029,0.128,0.039,0.186,0.039c0.069,0,0.129-0.011,0.187-0.039
		c0.059-0.02,0.118-0.06,0.167-0.099c0.039-0.049,0.079-0.108,0.099-0.167c0.029-0.059,0.038-0.118,0.038-0.186
		c0-0.06-0.01-0.128-0.038-0.187C51.075,55.816,51.036,55.757,50.996,55.718z"/>
	<path class="st0" d="M53.23,55.718c-0.138-0.137-0.354-0.186-0.531-0.108c-0.06,0.029-0.118,0.059-0.158,0.108
		c-0.049,0.039-0.088,0.099-0.109,0.158c-0.03,0.06-0.039,0.128-0.039,0.187c0,0.137,0.049,0.256,0.148,0.353
		c0.039,0.039,0.098,0.079,0.158,0.099c0.059,0.029,0.118,0.039,0.186,0.039c0.069,0,0.128-0.011,0.187-0.039
		c0.059-0.02,0.118-0.06,0.158-0.099c0.098-0.098,0.147-0.216,0.147-0.353c0-0.06-0.01-0.128-0.039-0.187
		C53.318,55.816,53.279,55.757,53.23,55.718z"/>
	<path class="st0" d="M55.314,55.61c-0.186-0.079-0.402-0.03-0.541,0.108c-0.088,0.088-0.147,0.217-0.147,0.345
		c0,0.137,0.059,0.256,0.147,0.353c0.049,0.039,0.099,0.079,0.158,0.099c0.06,0.029,0.128,0.039,0.197,0.039
		c0.128,0,0.256-0.049,0.344-0.138c0.05-0.049,0.079-0.108,0.109-0.167c0.019-0.059,0.039-0.118,0.039-0.186
		c0-0.128-0.06-0.256-0.148-0.345C55.423,55.669,55.374,55.639,55.314,55.61z"/>
	<path class="st0" d="M50.996,57.508c-0.049-0.039-0.109-0.079-0.167-0.109c-0.177-0.068-0.394-0.019-0.531,0.109
		c-0.049,0.049-0.079,0.098-0.109,0.167c-0.019,0.06-0.039,0.118-0.039,0.187c0,0.059,0.02,0.128,0.039,0.186
		c0.03,0.06,0.06,0.109,0.109,0.158s0.098,0.079,0.158,0.109c0.059,0.019,0.128,0.039,0.186,0.039c0.138,0,0.256-0.06,0.354-0.148
		c0.039-0.049,0.079-0.098,0.099-0.158c0.029-0.059,0.038-0.128,0.038-0.186c0-0.069-0.01-0.128-0.038-0.187
		C51.075,57.606,51.036,57.557,50.996,57.508z"/>
	<path class="st0" d="M48.754,57.508c-0.049-0.039-0.098-0.079-0.157-0.109c-0.187-0.068-0.403-0.029-0.542,0.109
		c-0.039,0.049-0.079,0.098-0.098,0.167c-0.03,0.06-0.039,0.118-0.039,0.187c0,0.128,0.049,0.256,0.137,0.344
		c0.05,0.049,0.109,0.079,0.158,0.109c0.069,0.019,0.128,0.039,0.197,0.039c0.059,0,0.128-0.02,0.187-0.039
		c0.059-0.03,0.108-0.06,0.157-0.109c0.05-0.049,0.079-0.098,0.109-0.158c0.02-0.059,0.039-0.128,0.039-0.186
		c0-0.069-0.019-0.128-0.039-0.187C48.832,57.606,48.803,57.557,48.754,57.508z"/>
	<path class="st0" d="M53.23,57.508c-0.138-0.137-0.354-0.177-0.531-0.109c-0.06,0.03-0.118,0.069-0.158,0.109
		c-0.049,0.049-0.088,0.098-0.109,0.167c-0.03,0.06-0.039,0.118-0.039,0.187c0,0.059,0.01,0.128,0.039,0.186
		c0.02,0.06,0.06,0.109,0.109,0.158c0.039,0.049,0.098,0.079,0.158,0.109c0.059,0.019,0.118,0.039,0.186,0.039
		c0.069,0,0.128-0.02,0.187-0.039c0.059-0.03,0.118-0.06,0.158-0.109c0.049-0.049,0.088-0.098,0.108-0.158
		c0.03-0.059,0.039-0.128,0.039-0.186c0-0.069-0.01-0.128-0.039-0.187C53.318,57.606,53.279,57.557,53.23,57.508z"/>
	<path class="st0" d="M57.547,57.41c-0.118-0.05-0.256-0.05-0.374,0c-0.06,0.019-0.118,0.059-0.158,0.098
		c-0.088,0.098-0.148,0.216-0.148,0.354c0,0.059,0.011,0.128,0.039,0.186c0.03,0.06,0.06,0.109,0.109,0.158
		c0.088,0.088,0.216,0.148,0.344,0.148c0.138,0,0.256-0.06,0.345-0.148c0.049-0.049,0.088-0.098,0.108-0.158
		c0.03-0.059,0.039-0.128,0.039-0.186c0-0.138-0.049-0.256-0.147-0.354C57.666,57.469,57.606,57.429,57.547,57.41z"/>
	<path class="st0" d="M55.472,57.508c-0.049-0.039-0.098-0.079-0.158-0.098c-0.186-0.079-0.402-0.039-0.541,0.098
		c-0.039,0.049-0.079,0.098-0.108,0.167c-0.02,0.06-0.039,0.118-0.039,0.187c0,0.128,0.059,0.256,0.147,0.344
		c0.049,0.049,0.099,0.079,0.158,0.109c0.06,0.019,0.128,0.039,0.197,0.039c0.128,0,0.256-0.06,0.344-0.148
		c0.05-0.049,0.079-0.098,0.109-0.158c0.019-0.059,0.039-0.128,0.039-0.186c0-0.069-0.02-0.128-0.039-0.187
		C55.55,57.606,55.511,57.557,55.472,57.508z"/>
	<path class="st0" d="M50.829,59.2c-0.177-0.079-0.394-0.029-0.531,0.109c-0.088,0.088-0.148,0.216-0.148,0.344
		c0,0.138,0.05,0.256,0.148,0.354c0.049,0.039,0.098,0.079,0.158,0.098c0.059,0.03,0.128,0.039,0.186,0.039
		c0.069,0,0.129-0.01,0.187-0.039c0.059-0.019,0.118-0.059,0.167-0.098c0.039-0.049,0.079-0.109,0.099-0.167
		c0.029-0.06,0.038-0.118,0.038-0.187c0-0.128-0.049-0.256-0.137-0.344C50.947,59.259,50.888,59.229,50.829,59.2z"/>
	<path class="st0" d="M46.512,59.308c-0.138-0.137-0.354-0.177-0.531-0.109c-0.06,0.03-0.118,0.06-0.158,0.109
		c-0.049,0.049-0.088,0.098-0.109,0.158c-0.029,0.059-0.039,0.128-0.039,0.186c0,0.138,0.049,0.256,0.148,0.354
		c0.039,0.039,0.098,0.079,0.158,0.098c0.059,0.03,0.118,0.039,0.186,0.039c0.128,0,0.256-0.049,0.345-0.137
		c0.098-0.098,0.147-0.216,0.147-0.354c0-0.059-0.01-0.128-0.039-0.186C46.6,59.406,46.561,59.357,46.512,59.308z"/>
	<path class="st0" d="M48.754,59.308c-0.049-0.049-0.098-0.079-0.157-0.109c-0.178-0.068-0.403-0.029-0.542,0.109
		c-0.039,0.049-0.079,0.098-0.098,0.158c-0.03,0.059-0.039,0.128-0.039,0.186c0,0.138,0.049,0.256,0.137,0.354
		c0.05,0.039,0.109,0.079,0.158,0.098c0.069,0.03,0.128,0.039,0.197,0.039c0.059,0,0.128-0.01,0.187-0.039
		c0.059-0.019,0.108-0.059,0.157-0.098c0.05-0.049,0.079-0.109,0.109-0.167c0.02-0.06,0.039-0.118,0.039-0.187
		c0-0.059-0.019-0.128-0.039-0.186C48.832,59.406,48.803,59.357,48.754,59.308z"/>
	<path class="st0" d="M53.23,59.308c-0.039-0.049-0.099-0.079-0.158-0.109c-0.187-0.079-0.394-0.029-0.531,0.109
		c-0.049,0.039-0.088,0.098-0.109,0.158c-0.03,0.059-0.039,0.128-0.039,0.186c0,0.138,0.049,0.256,0.148,0.345
		c0.039,0.049,0.098,0.088,0.158,0.108c0.059,0.03,0.118,0.039,0.186,0.039c0.069,0,0.128-0.01,0.187-0.039
		c0.059-0.019,0.118-0.059,0.158-0.108c0.098-0.088,0.147-0.207,0.147-0.345c0-0.059-0.01-0.128-0.039-0.186
		C53.318,59.406,53.279,59.347,53.23,59.308z"/>
	<path class="st0" d="M57.705,59.308c-0.039-0.049-0.099-0.079-0.158-0.109c-0.118-0.049-0.256-0.049-0.374,0
		c-0.06,0.03-0.118,0.06-0.158,0.109c-0.049,0.049-0.079,0.098-0.109,0.158c-0.029,0.059-0.039,0.128-0.039,0.186
		c0,0.069,0.011,0.128,0.039,0.197c0.03,0.06,0.06,0.109,0.109,0.158c0.088,0.088,0.216,0.137,0.344,0.137
		c0.138,0,0.256-0.049,0.345-0.137c0.049-0.049,0.088-0.098,0.108-0.158c0.03-0.069,0.039-0.128,0.039-0.197
		c0-0.059-0.01-0.128-0.039-0.186C57.793,59.406,57.754,59.357,57.705,59.308z"/>
	<path class="st0" d="M55.472,59.308c-0.049-0.049-0.098-0.079-0.158-0.109c-0.186-0.068-0.402-0.029-0.541,0.109
		c-0.039,0.049-0.079,0.098-0.108,0.158c-0.02,0.059-0.039,0.128-0.039,0.186c0,0.138,0.059,0.256,0.147,0.354
		c0.049,0.039,0.099,0.079,0.158,0.098c0.06,0.03,0.128,0.039,0.197,0.039c0.128,0,0.246-0.049,0.344-0.137
		c0.05-0.049,0.079-0.098,0.109-0.158c0.019-0.069,0.039-0.128,0.039-0.197c0-0.059-0.02-0.128-0.039-0.186
		C55.55,59.406,55.522,59.357,55.472,59.308z"/>
	<path class="st0" d="M59.948,59.308c-0.039-0.049-0.099-0.079-0.158-0.109c-0.178-0.079-0.403-0.029-0.531,0.109
		c-0.049,0.049-0.088,0.098-0.109,0.158c-0.03,0.059-0.039,0.128-0.039,0.186c0,0.138,0.049,0.256,0.148,0.354
		c0.039,0.039,0.098,0.079,0.158,0.098c0.059,0.03,0.117,0.039,0.186,0.039c0.128,0,0.256-0.049,0.345-0.137
		c0.098-0.098,0.147-0.216,0.147-0.354c0-0.059-0.01-0.128-0.039-0.186C60.026,59.406,59.997,59.357,59.948,59.308z"/>
	<path class="st0" d="M50.996,61.099c-0.049-0.039-0.109-0.079-0.167-0.099c-0.118-0.049-0.256-0.049-0.374,0
		c-0.06,0.02-0.109,0.06-0.158,0.099c-0.049,0.049-0.079,0.108-0.109,0.167c-0.019,0.059-0.039,0.118-0.039,0.186
		c0,0.128,0.05,0.256,0.148,0.345c0.049,0.049,0.098,0.088,0.158,0.108c0.059,0.03,0.128,0.039,0.186,0.039
		c0.138,0,0.256-0.049,0.354-0.147c0.088-0.089,0.137-0.217,0.137-0.345c0-0.068-0.01-0.128-0.038-0.186
		C51.075,61.206,51.036,61.148,50.996,61.099z"/>
	<path class="st0" d="M45.98,61c-0.06,0.02-0.118,0.06-0.158,0.109c-0.099,0.088-0.148,0.216-0.148,0.344
		c0,0.069,0.011,0.128,0.039,0.187c0.02,0.059,0.06,0.118,0.109,0.158c0.039,0.049,0.098,0.088,0.158,0.108
		c0.059,0.03,0.118,0.039,0.186,0.039c0.128,0,0.256-0.049,0.345-0.147c0.049-0.039,0.088-0.099,0.108-0.158
		c0.03-0.06,0.039-0.118,0.039-0.187c0-0.137-0.049-0.256-0.147-0.344C46.373,60.96,46.157,60.921,45.98,61z"/>
	<path class="st0" d="M48.754,61.099c-0.049-0.039-0.098-0.079-0.157-0.099c-0.178-0.079-0.403-0.03-0.542,0.099
		c-0.039,0.049-0.079,0.108-0.098,0.167c-0.03,0.059-0.039,0.118-0.039,0.186c0,0.128,0.049,0.256,0.137,0.345
		c0.05,0.049,0.109,0.088,0.158,0.108c0.069,0.03,0.128,0.039,0.197,0.039c0.128,0,0.256-0.049,0.344-0.147
		c0.05-0.05,0.079-0.099,0.109-0.158c0.02-0.06,0.039-0.128,0.039-0.187c0-0.068-0.019-0.128-0.039-0.186
		C48.832,61.206,48.803,61.148,48.754,61.099z"/>
	<path class="st0" d="M53.23,61.099c-0.138-0.138-0.354-0.178-0.531-0.099c-0.06,0.02-0.118,0.06-0.158,0.099
		c-0.099,0.098-0.148,0.226-0.148,0.353c0,0.128,0.049,0.256,0.148,0.345c0.039,0.049,0.098,0.088,0.158,0.108
		c0.059,0.03,0.118,0.039,0.186,0.039c0.069,0,0.128-0.01,0.187-0.039c0.059-0.019,0.118-0.059,0.158-0.108
		c0.098-0.089,0.147-0.217,0.147-0.345c0-0.068-0.01-0.128-0.039-0.186C53.318,61.206,53.279,61.148,53.23,61.099z"/>
	<path class="st0" d="M57.705,61.099c-0.039-0.039-0.099-0.079-0.158-0.099c-0.118-0.049-0.256-0.049-0.374,0
		c-0.06,0.02-0.118,0.06-0.158,0.099c-0.049,0.049-0.079,0.108-0.109,0.167c-0.029,0.059-0.039,0.118-0.039,0.186
		c0,0.06,0.011,0.128,0.039,0.187c0.02,0.059,0.06,0.108,0.109,0.158c0.088,0.098,0.216,0.147,0.344,0.147
		c0.138,0,0.256-0.049,0.345-0.147c0.049-0.05,0.088-0.099,0.108-0.158c0.03-0.06,0.039-0.128,0.039-0.187
		c0-0.068-0.01-0.128-0.039-0.186C57.793,61.206,57.754,61.148,57.705,61.099z"/>
	<path class="st0" d="M55.472,61.099c-0.049-0.039-0.098-0.079-0.158-0.099c-0.186-0.079-0.402-0.03-0.541,0.099
		c-0.039,0.049-0.079,0.108-0.108,0.167c-0.02,0.059-0.039,0.118-0.039,0.186c0,0.128,0.059,0.256,0.147,0.345
		c0.049,0.049,0.099,0.088,0.158,0.108c0.06,0.03,0.128,0.039,0.197,0.039c0.128,0,0.246-0.049,0.344-0.147
		c0.05-0.05,0.079-0.099,0.109-0.158c0.019-0.06,0.039-0.128,0.039-0.187c0-0.068-0.02-0.128-0.039-0.186
		C55.55,61.206,55.522,61.148,55.472,61.099z"/>
	<path class="st0" d="M59.79,61c-0.187-0.079-0.403-0.03-0.531,0.099c-0.049,0.049-0.088,0.108-0.109,0.167
		c-0.03,0.059-0.039,0.118-0.039,0.186c0,0.128,0.049,0.256,0.148,0.345c0.039,0.049,0.098,0.079,0.158,0.108
		c0.059,0.03,0.117,0.039,0.186,0.039c0.128,0,0.256-0.049,0.345-0.147c0.098-0.089,0.147-0.217,0.147-0.345
		c0-0.128-0.059-0.256-0.147-0.353C59.908,61.059,59.849,61.02,59.79,61z"/>
	<path class="st0" d="M50.996,62.899c-0.049-0.05-0.109-0.079-0.167-0.109c-0.177-0.079-0.394-0.03-0.531,0.109
		c-0.049,0.049-0.079,0.098-0.109,0.157c-0.019,0.06-0.039,0.128-0.039,0.187c0,0.069,0.02,0.128,0.039,0.186
		c0.03,0.069,0.06,0.118,0.109,0.168c0.049,0.039,0.098,0.078,0.158,0.108c0.059,0.02,0.128,0.03,0.186,0.03
		c0.138,0,0.256-0.049,0.354-0.137c0.039-0.05,0.079-0.099,0.099-0.168c0.029-0.059,0.038-0.117,0.038-0.186
		c0-0.06-0.01-0.128-0.038-0.187C51.075,62.997,51.036,62.948,50.996,62.899z"/>
	<path class="st0" d="M48.597,62.79c-0.187-0.079-0.403-0.03-0.542,0.109c-0.039,0.049-0.079,0.098-0.098,0.157
		c-0.03,0.06-0.039,0.128-0.039,0.187c0,0.137,0.049,0.256,0.137,0.354c0.05,0.039,0.109,0.078,0.158,0.108
		c0.069,0.02,0.128,0.03,0.197,0.03c0.128,0,0.256-0.049,0.344-0.137c0.05-0.05,0.079-0.099,0.109-0.168
		c0.02-0.059,0.039-0.117,0.039-0.186c0-0.128-0.059-0.256-0.148-0.344C48.705,62.849,48.656,62.82,48.597,62.79z"/>
	<path class="st0" d="M53.23,62.899c-0.138-0.138-0.354-0.178-0.531-0.109c-0.06,0.03-0.118,0.059-0.158,0.109
		c-0.049,0.049-0.088,0.098-0.109,0.157c-0.03,0.06-0.039,0.128-0.039,0.187c0,0.137,0.049,0.256,0.148,0.354
		c0.039,0.039,0.098,0.078,0.158,0.108c0.059,0.02,0.118,0.03,0.186,0.03c0.069,0,0.128-0.01,0.187-0.03
		c0.059-0.03,0.118-0.068,0.158-0.108c0.098-0.099,0.147-0.217,0.147-0.354c0-0.06-0.01-0.128-0.039-0.187
		C53.318,62.997,53.279,62.948,53.23,62.899z"/>
	<path class="st0" d="M57.547,62.79c-0.118-0.049-0.256-0.049-0.374,0c-0.06,0.03-0.118,0.059-0.158,0.109
		c-0.088,0.088-0.148,0.216-0.148,0.344c0,0.137,0.05,0.256,0.148,0.354c0.088,0.088,0.216,0.137,0.344,0.137
		c0.138,0,0.256-0.049,0.345-0.137c0.098-0.099,0.147-0.217,0.147-0.354c0-0.128-0.049-0.256-0.147-0.344
		C57.666,62.849,57.606,62.82,57.547,62.79z"/>
	<path class="st0" d="M55.314,62.79c-0.186-0.079-0.402-0.03-0.541,0.109c-0.088,0.088-0.147,0.216-0.147,0.344
		c0,0.137,0.059,0.256,0.147,0.354c0.049,0.039,0.099,0.078,0.158,0.108c0.06,0.02,0.128,0.03,0.197,0.03
		c0.128,0,0.256-0.049,0.344-0.137c0.05-0.05,0.079-0.099,0.109-0.158c0.019-0.069,0.039-0.128,0.039-0.197
		c0-0.128-0.06-0.256-0.148-0.344C55.423,62.849,55.374,62.82,55.314,62.79z"/>
	<path class="st0" d="M50.829,64.59c-0.177-0.079-0.394-0.03-0.531,0.108c-0.088,0.089-0.148,0.217-0.148,0.345
		c0,0.137,0.05,0.256,0.148,0.344c0.049,0.049,0.098,0.088,0.158,0.109c0.059,0.03,0.128,0.039,0.186,0.039
		c0.138,0,0.256-0.049,0.354-0.148c0.039-0.039,0.079-0.098,0.099-0.158c0.029-0.059,0.038-0.117,0.038-0.186
		c0-0.128-0.049-0.256-0.137-0.345C50.947,64.649,50.888,64.609,50.829,64.59z"/>
	<path class="st0" d="M53.072,64.59c-0.187-0.079-0.394-0.03-0.531,0.108c-0.049,0.039-0.088,0.099-0.109,0.158
		c-0.03,0.06-0.039,0.128-0.039,0.187c0,0.069,0.01,0.128,0.039,0.186c0.02,0.06,0.06,0.118,0.109,0.158
		c0.039,0.049,0.098,0.088,0.158,0.109c0.059,0.03,0.118,0.039,0.186,0.039c0.069,0,0.128-0.01,0.187-0.039
		c0.059-0.02,0.118-0.06,0.158-0.109c0.049-0.039,0.088-0.098,0.108-0.158c0.03-0.059,0.039-0.117,0.039-0.186
		c0-0.128-0.049-0.256-0.147-0.345C53.19,64.649,53.131,64.609,53.072,64.59z"/>
	<path class="st0" d="M55.314,64.59c-0.186-0.079-0.402-0.03-0.541,0.108c-0.088,0.089-0.147,0.217-0.147,0.345
		s0.059,0.256,0.147,0.344c0.049,0.049,0.099,0.088,0.158,0.109c0.06,0.03,0.128,0.039,0.197,0.039c0.059,0,0.128-0.01,0.186-0.039
		c0.06-0.02,0.109-0.06,0.158-0.109c0.05-0.039,0.079-0.098,0.109-0.158c0.019-0.059,0.039-0.128,0.039-0.186
		c0-0.128-0.06-0.256-0.148-0.345C55.423,64.649,55.374,64.609,55.314,64.59z"/>
	<path class="st0" d="M60.447,33.195V22.703c0-0.029-0.012-0.055-0.017-0.083c0.003-0.056,0.017-0.109,0.017-0.166
		c0-1.507-1.226-2.733-2.733-2.733c-1.507,0-2.733,1.226-2.733,2.733c0,0.057,0.013,0.11,0.017,0.166
		c-0.005,0.028-0.017,0.054-0.017,0.083v10.462h-3.497v-3.989c0-0.272-0.22-0.492-0.492-0.492h-4.481
		c-0.272,0-0.492,0.22-0.492,0.492v3.989h-0.056c-2.441,0-4.426,1.985-4.426,4.426v27.982c0,2.441,1.985,4.426,4.426,4.426h14.193
		c2.441,0,4.426-1.985,4.426-4.426V37.592C64.583,35.25,62.751,33.348,60.447,33.195z M55.965,24.537
		c0.475,0.4,1.081,0.651,1.749,0.651s1.274-0.251,1.749-0.651v8.629h-3.498V24.537z M47.003,29.668h3.497v3.497h-3.497V29.668z
		 M63.6,65.574c0,1.898-1.545,3.443-3.443,3.443H45.964c-1.898,0-3.443-1.545-3.443-3.443V37.592c0-1.898,1.545-3.443,3.443-3.443
		h14.193c1.898,0,3.443,1.545,3.443,3.443V65.574z"/>
	<path class="st0" d="M48.752,46.61c-1.506,0-2.732,1.226-2.732,2.733c0,1.507,1.226,2.733,2.732,2.733
		c1.507,0,2.733-1.226,2.733-2.733C51.484,47.835,50.259,46.61,48.752,46.61z M48.752,51.092c-0.964,0-1.748-0.785-1.748-1.749
		c0-0.964,0.784-1.749,1.748-1.749c0.964,0,1.749,0.785,1.749,1.749C50.501,50.307,49.716,51.092,48.752,51.092z"/>
	<path class="st0" d="M57.715,46.61c-1.507,0-2.733,1.226-2.733,2.733c0,1.507,1.226,2.733,2.733,2.733
		c1.507,0,2.733-1.226,2.733-2.733C60.447,47.835,59.222,46.61,57.715,46.61z M57.715,51.092c-0.964,0-1.749-0.785-1.749-1.749
		c0-0.964,0.785-1.749,1.749-1.749c0.964,0,1.749,0.785,1.749,1.749C59.464,50.307,58.679,51.092,57.715,51.092z"/>
	<path class="st0" d="M64.762,12.664C62.816,10.946,60.313,10,57.715,10s-5.101,0.946-7.048,2.664
		c-0.204,0.18-0.223,0.491-0.043,0.694c0.181,0.203,0.49,0.223,0.694,0.043c1.766-1.559,4.038-2.418,6.396-2.418
		s4.63,0.859,6.396,2.418c0.094,0.083,0.209,0.123,0.326,0.123c0.136,0,0.272-0.057,0.369-0.166
		C64.985,13.154,64.966,12.843,64.762,12.664z"/>
	<path class="st0" d="M62.796,15.755c0.136,0,0.272-0.057,0.369-0.166c0.18-0.204,0.16-0.515-0.043-0.694
		c-1.494-1.318-3.414-2.043-5.407-2.043c-1.993,0-3.913,0.725-5.407,2.043c-0.204,0.18-0.223,0.491-0.043,0.694
		c0.18,0.203,0.49,0.223,0.694,0.043c1.313-1.159,3.003-1.797,4.756-1.797s3.443,0.638,4.756,1.797
		C62.564,15.714,62.68,15.755,62.796,15.755z"/>
	<path class="st0" d="M54.848,16.954c-0.204,0.18-0.223,0.491-0.043,0.694c0.18,0.203,0.49,0.223,0.694,0.043
		c1.222-1.08,3.208-1.08,4.43,0c0.094,0.083,0.209,0.123,0.326,0.123c0.136,0,0.272-0.057,0.369-0.166
		c0.18-0.204,0.16-0.515-0.043-0.694C58.998,15.558,56.431,15.558,54.848,16.954z"/>
	<path class="st0" d="M59.955,37.648H46.512c-0.272,0-0.492,0.22-0.492,0.492v4.481c0,0.272,0.22,0.492,0.492,0.492h13.444
		c0.272,0,0.492-0.22,0.492-0.492v-4.481C60.447,37.868,60.227,37.648,59.955,37.648z M59.464,42.129h-12.46v-3.497h12.46V42.129z"
		/>
</g>
</svg>
