<?xml version="1.0" encoding="utf-8"?>
<!-- Generator: Adobe Illustrator 23.0.4, SVG Export Plug-In . SVG Version: 6.00 Build 0)  -->
<svg version="1.1" id="Calque_1" xmlns="http://www.w3.org/2000/svg" xmlns:xlink="http://www.w3.org/1999/xlink" x="0px" y="0px"
	 viewBox="0 0 80 80" style="enable-background:new 0 0 80 80;" xml:space="preserve">
<style type="text/css">
	.st0{fill:#FFFFFF;}
	.st1{opacity:0.3;fill:none;stroke:#231F20;stroke-miterlimit:10;}
</style>
<path class="st0" d="M64.144,50.238c-0.387,0-0.764,0.04-1.13,0.112l-9.127-31.945c-0.061-0.21-0.253-0.356-0.473-0.356h-5.366
	c-0.272,0-0.492,0.22-0.492,0.492s0.22,0.492,0.492,0.492h4.995l6.673,23.357L53.11,55.604H37.784
	c-0.26-5.959-5.175-10.73-11.197-10.73h-10.73c-0.199,0-4.873-0.056-4.873-4.873c0-4.8,4.675-4.873,4.873-4.874h10.291
	c0.262,2.091,2.103,2.683,3.122,2.683h2.683c0.272,0,0.492-0.22,0.492-0.492v-0.85h2.191c0.272,0,0.492-0.22,0.492-0.492
	s-0.22-0.492-0.492-0.492h-2.191v-1.698h2.191c0.272,0,0.492-0.22,0.492-0.492c0-0.272-0.22-0.492-0.492-0.492h-2.191v-0.85
	c0-0.272-0.22-0.492-0.492-0.492H29.27c-1.019,0-2.86,0.592-3.122,2.683H15.856C15.798,34.143,10,34.21,10,40
	c0,5.789,5.798,5.856,5.856,5.856h10.73c5.479,0,9.954,4.331,10.214,9.747h-4.381c-0.251-3-2.769-5.366-5.833-5.366
	c-3.229,0-5.856,2.628-5.856,5.857c0,3.229,2.627,5.856,5.856,5.856c3.063,0,5.581-2.365,5.833-5.365h20.994
	c0.186,0,0.356-0.106,0.44-0.272l6.263-12.527l1.953,6.836c-2.207,0.84-3.783,2.973-3.783,5.471c0,3.229,2.628,5.856,5.857,5.856
	c3.229,0,5.856-2.627,5.856-5.856C70,52.866,67.373,50.238,64.144,50.238z M26.587,60.968c-2.687,0-4.873-2.186-4.873-4.873
	c0-2.688,2.186-4.874,4.873-4.874c2.519,0,4.573,1.928,4.824,4.382h-4.824c-0.272,0-0.492,0.22-0.492,0.492
	c0,0.272,0.22,0.492,0.492,0.492h4.824C31.16,59.041,29.106,60.968,26.587,60.968z M64.144,60.968c-2.688,0-4.874-2.186-4.874-4.873
	c0-2.05,1.275-3.8,3.071-4.519l1.33,4.655c0.061,0.216,0.258,0.356,0.473,0.356c0.044,0,0.09-0.006,0.135-0.019
	c0.261-0.074,0.412-0.347,0.337-0.608l-1.329-4.652c0.279-0.05,0.563-0.087,0.857-0.087c2.687,0,4.873,2.186,4.873,4.874
	C69.016,58.782,66.83,60.968,64.144,60.968z"/>
</svg>
