<?xml version="1.0" encoding="utf-8"?>
<!-- Generator: Adobe Illustrator 23.0.4, SVG Export Plug-In . SVG Version: 6.00 Build 0)  -->
<svg version="1.1" id="Calque_1" xmlns="http://www.w3.org/2000/svg" xmlns:xlink="http://www.w3.org/1999/xlink" x="0px" y="0px"
	 viewBox="0 0 80 80" style="enable-background:new 0 0 80 80;" xml:space="preserve">
<style type="text/css">
	.st0{fill:#FFFFFF;}
	.st1{opacity:0.3;fill:none;stroke:#231F20;stroke-miterlimit:10;}
</style>
<path class="st0" d="M66.134,32.762c-2.13,0-3.864,1.734-3.864,3.865v1.551c-1.809-1.322-3.993-2.043-6.255-2.043
	c-1.31,0-2.559,0.25-3.718,0.686l-2.763-6.448h6.482c0.272,0,0.492-0.22,0.492-0.492v-6.747c0-0.272-0.22-0.492-0.492-0.492H45.896
	h-0.004c0,0,0,0-0.001,0h-3.369c-0.272,0-0.492,0.22-0.492,0.492s0.22,0.492,0.492,0.492h3.049l2.678,6.249l-5.959,13.056h-3.4
	l-8.529-12.65h1.667c1.201,0,2.179-0.977,2.179-2.179c0-1.201-0.977-2.178-2.179-2.178h-5.06c-1.201,0-2.178,0.977-2.178,2.178
	c0,1.202,0.977,2.179,2.178,2.179h2.206l2.733,4.054l-2.619,2.955c-2.065-1.933-4.768-3.162-7.733-3.262
	c-4.918-0.171-9.438,2.624-11.486,7.106c-0.125,0.272-0.082,0.583,0.111,0.811c0.192,0.227,0.49,0.32,0.775,0.241l0.735-0.198
	c-0.728,1.435-1.164,3.042-1.164,4.758c0,5.851,4.76,10.611,10.612,10.611c3.876,0,7.251-2.103,9.103-5.214l1.741,0.423
	c0.785,0.197,1.572,0.295,2.347,0.295c0.945,0,1.87-0.146,2.743-0.437c0.249-0.083,0.472-0.186,0.701-0.286l0.949,1.197
	l-1.012,0.508c-0.243,0.122-0.341,0.418-0.219,0.661c0.086,0.172,0.26,0.271,0.44,0.271c0.074,0,0.149-0.016,0.22-0.052l3.105-1.56
	c0.243-0.122,0.34-0.418,0.219-0.661c-0.123-0.243-0.419-0.341-0.661-0.219l-1.195,0.601l-0.952-1.2
	c4.025-2.375,4.396-7.345,4.427-8.146l5.679-12.441l2.62,6.113c-3.538,1.722-5.989,5.344-5.989,9.536
	c0,5.851,4.76,10.611,10.611,10.611c2.262,0,4.446-0.721,6.255-2.043v1.551c0,0.272,0.22,0.492,0.492,0.492h6.746
	c0.272,0,0.492-0.22,0.492-0.492V36.627C70,34.495,68.266,32.762,66.134,32.762z M25.774,28.102c0-0.658,0.536-1.194,1.194-1.194
	h5.06c0.659,0,1.195,0.536,1.195,1.194c0,0.659-0.536,1.195-1.195,1.195h-5.06C26.31,29.297,25.774,28.761,25.774,28.102z
	 M49.761,26.999h2.432v2.39h-2.432V26.999z M48.777,28.608l-0.69-1.609h0.69V28.608z M49.761,26.016v-2.39h2.432v2.39H49.761z
	 M48.777,26.016h-1.111l-1.024-2.39h2.135V26.016z M53.177,29.389v-2.39h2.347v2.39H53.177z M55.523,26.016h-2.347v-2.39h2.347
	V26.016z M37.704,42.931H32.77c-0.549-1.86-1.513-3.546-2.787-4.94l2.494-2.814L37.704,42.931z M21.524,35.011
	c4.759,0.16,8.792,3.478,10.223,7.92H21.612c-0.438-1.161-1.012-1.962-1.791-2.452c-1.285-0.81-3.115-0.841-5.933-0.099
	l-2.713,0.729C13.143,37.243,17.148,34.847,21.524,35.011z M21.138,56.374c-5.309,0-9.628-4.319-9.628-9.628
	c0-1.878,0.547-3.627,1.482-5.108l1.147-0.308c2.532-0.664,4.121-0.67,5.157-0.018c0.545,0.343,0.967,0.921,1.31,1.747
	c-1.19,0.299-2.584,1.211-2.584,3.377c0,2.568,1.948,3.246,2.768,3.415l8.446,2.05C27.526,54.579,24.546,56.374,21.138,56.374z
	 M38.055,50.912l-1.342-1.692c0.297-0.372,0.482-0.837,0.482-1.349c0-1.202-0.977-2.179-2.179-2.179s-2.179,0.977-2.179,2.179
	c0,1.201,0.977,2.178,2.179,2.178c0.333,0,0.646-0.081,0.928-0.216l1.196,1.508c-0.127,0.05-0.246,0.105-0.379,0.15
	c-1.41,0.47-2.981,0.513-4.542,0.121c-0.001,0-0.002,0-0.003-0.001l-11.209-2.72c-0.913-0.188-2-0.767-2-2.455
	c0-2.432,2.263-2.519,2.52-2.52H42.09C41.981,45.276,41.37,49.059,38.055,50.912z M35.401,47.566
	c-0.169-0.214-0.479-0.25-0.691-0.08c-0.213,0.169-0.249,0.478-0.08,0.691l0.66,0.833c-0.091,0.022-0.178,0.056-0.275,0.056
	c-0.659,0-1.195-0.536-1.195-1.194c0-0.659,0.536-1.195,1.195-1.195c0.659,0,1.195,0.536,1.195,1.195
	c0,0.196-0.059,0.373-0.143,0.536L35.401,47.566z M56.015,56.374c-5.309,0-9.628-4.319-9.628-9.628c0-3.788,2.204-7.062,5.392-8.633
	l2.95,6.883c-0.539,0.397-0.893,1.03-0.893,1.75c0,1.202,0.977,2.179,2.179,2.179s2.179-0.977,2.179-2.179s-0.977-2.179-2.179-2.179
	c-0.131,0-0.257,0.016-0.382,0.039l-2.949-6.881c1.04-0.385,2.159-0.606,3.331-0.606c2.303,0,4.513,0.825,6.255,2.318v14.619
	C60.528,55.549,58.318,56.374,56.015,56.374z M55.138,45.95l0.425,0.991c0.081,0.186,0.262,0.298,0.452,0.298
	c0.065,0,0.131-0.012,0.194-0.039c0.25-0.108,0.365-0.397,0.258-0.646l-0.427-0.996c0.646,0.015,1.169,0.54,1.169,1.19
	c0,0.659-0.536,1.195-1.195,1.195c-0.659,0-1.195-0.536-1.195-1.195C54.82,46.438,54.945,46.162,55.138,45.95z"/>
</svg>
