<?xml version="1.0" encoding="utf-8"?>
<!-- Generator: Adobe Illustrator 23.0.4, SVG Export Plug-In . SVG Version: 6.00 Build 0)  -->
<svg version="1.1" id="Calque_1" xmlns="http://www.w3.org/2000/svg" xmlns:xlink="http://www.w3.org/1999/xlink" x="0px" y="0px"
	 viewBox="0 0 80 80" style="enable-background:new 0 0 80 80;" xml:space="preserve">
<style type="text/css">
	.st0{fill:#FFFFFF;}
	.st1{opacity:0.3;fill:none;stroke:#231F20;stroke-miterlimit:10;}
</style>
<g>
	<path class="st0" d="M43.229,26.862h-8.566c-4.882,0-8.855,3.973-8.855,8.855v8.566c0,4.882,3.973,8.854,8.855,8.854h8.566
		c4.882,0,8.855-3.972,8.855-8.854v-8.566C52.085,30.835,48.112,26.862,43.229,26.862z M51.101,44.283
		c0,4.34-3.531,7.871-7.872,7.871h-8.566c-4.341,0-7.872-3.531-7.872-7.871v-8.566c0-4.341,3.531-7.872,7.872-7.872h8.566
		c4.341,0,7.872,3.531,7.872,7.872V44.283z"/>
	<path class="st0" d="M57.915,36.276c0.272,0,0.492-0.22,0.492-0.492V31.57c0-0.272-0.22-0.492-0.492-0.492H56.3v-4.006
		c0-2.414-1.945-4.376-4.349-4.418l-3.804-11.41C47.899,10.501,47.205,10,46.42,10H31.472c-0.785,0-1.478,0.5-1.726,1.244
		l-3.804,11.41c-2.405,0.042-4.349,2.004-4.349,4.418v25.855c0,2.414,1.945,4.376,4.349,4.418l3.804,11.41
		C29.994,69.501,30.688,70,31.472,70H46.42c0.784,0,1.478-0.499,1.726-1.244l3.804-11.41c2.405-0.042,4.349-2.004,4.349-4.418v-8.22
		h1.616c0.272,0,0.492-0.22,0.492-0.492V40c0-0.272-0.22-0.492-0.492-0.492H56.3v-3.232H57.915z M57.423,32.061v3.231H56.3v-3.231
		H57.423z M30.68,11.555c0.113-0.342,0.432-0.572,0.792-0.572H46.42c0.36,0,0.679,0.23,0.792,0.572l3.698,11.091H26.982
		L30.68,11.555z M47.213,68.445c-0.113,0.342-0.432,0.572-0.792,0.572H31.472c-0.36,0-0.679-0.23-0.792-0.572l-3.698-11.092h23.929
		L47.213,68.445z M55.316,52.927c0,1.898-1.545,3.443-3.443,3.443h-0.28H26.3h-0.28c-1.898,0-3.443-1.545-3.443-3.443V27.072
		c0-1.898,1.545-3.443,3.443-3.443h0.28h25.293h0.28c1.898,0,3.443,1.545,3.443,3.443v4.497v4.215V40v4.215V52.927z M57.423,40.492
		v3.231H56.3v-3.231H57.423z"/>
	<circle class="st0" cx="38.946" cy="44.573" r="2.599"/>
	<path class="st0" d="M38.946,32.828c-2.452,0-4.814,0.892-6.649,2.513c-0.204,0.18-0.223,0.491-0.043,0.694
		c0.18,0.205,0.492,0.223,0.694,0.043c1.655-1.462,3.786-2.267,5.998-2.267c2.211,0,4.342,0.805,5.998,2.267
		c0.094,0.083,0.209,0.123,0.326,0.123c0.136,0,0.272-0.057,0.369-0.166c0.18-0.204,0.16-0.515-0.043-0.694
		C43.759,33.72,41.398,32.828,38.946,32.828z"/>
	<path class="st0" d="M38.946,35.51c-1.883,0-3.695,0.685-5.105,1.929c-0.204,0.18-0.223,0.491-0.043,0.694
		c0.181,0.203,0.49,0.223,0.694,0.043c1.23-1.085,2.812-1.683,4.454-1.683c1.643,0,3.225,0.597,4.454,1.683
		c0.094,0.083,0.209,0.123,0.326,0.123c0.136,0,0.272-0.057,0.369-0.166c0.18-0.204,0.16-0.515-0.043-0.694
		C42.642,36.195,40.829,35.51,38.946,35.51z"/>
	<path class="st0" d="M36.231,39.377c-0.204,0.18-0.223,0.491-0.043,0.694c0.18,0.203,0.49,0.223,0.694,0.043
		c1.139-1.007,2.989-1.007,4.128,0c0.094,0.083,0.209,0.123,0.326,0.123c0.136,0,0.272-0.057,0.369-0.166
		c0.18-0.204,0.16-0.515-0.043-0.694C40.161,38.053,37.731,38.053,36.231,39.377z"/>
</g>
</svg>
