<?xml version="1.0" encoding="utf-8"?>
<!-- Generator: Adobe Illustrator 23.0.4, SVG Export Plug-In . SVG Version: 6.00 Build 0)  -->
<svg version="1.1" id="Calque_1" xmlns="http://www.w3.org/2000/svg" xmlns:xlink="http://www.w3.org/1999/xlink" x="0px" y="0px"
	 viewBox="0 0 80 80" style="enable-background:new 0 0 80 80;" xml:space="preserve">
<style type="text/css">
	.st0{fill:#FFFFFF;}
	.st1{opacity:0.3;fill:none;stroke:#231F20;stroke-miterlimit:10;}
</style>
<g>
	<path class="st0" d="M67.5,12h-55c-0.276,0-0.5,0.224-0.5,0.5v55c0,0.276,0.224,0.5,0.5,0.5h55c0.276,0,0.5-0.224,0.5-0.5v-55
		C68,12.223,67.776,12,67.5,12z M67,67H13V13h54V67z"/>
	<path class="st0" d="M18.3,63.201c1.239,0,2.247-1.008,2.247-2.246s-1.008-2.246-2.247-2.246c-1.238,0-2.246,1.008-2.246,2.246
		S17.062,63.201,18.3,63.201z M18.3,59.709c0.688,0,1.247,0.559,1.247,1.246s-0.56,1.246-1.247,1.246s-1.246-0.559-1.246-1.246
		S17.612,59.709,18.3,59.709z"/>
	<path class="st0" d="M25.285,58.709c-1.238,0-2.246,1.008-2.246,2.246s1.008,2.246,2.246,2.246s2.246-1.008,2.246-2.246
		S26.523,58.709,25.285,58.709z M25.285,62.201c-0.688,0-1.246-0.559-1.246-1.246s0.559-1.246,1.246-1.246s1.246,0.559,1.246,1.246
		S25.973,62.201,25.285,62.201z"/>
	<path class="st0" d="M32.271,58.709c-1.238,0-2.246,1.008-2.246,2.246s1.008,2.246,2.246,2.246s2.246-1.008,2.246-2.246
		S33.509,58.709,32.271,58.709z M32.271,62.201c-0.688,0-1.246-0.559-1.246-1.246s0.559-1.246,1.246-1.246s1.246,0.559,1.246,1.246
		S32.958,62.201,32.271,62.201z"/>
	<path class="st0" d="M52.611,35.261c4.127,0,7.485-3.358,7.485-7.485s-3.358-7.484-7.485-7.484s-7.484,3.357-7.484,7.484
		S48.484,35.261,52.611,35.261z M52.611,21.292c3.576,0,6.485,2.909,6.485,6.484c0,3.576-2.909,6.485-6.485,6.485
		c-3.575,0-6.484-2.909-6.484-6.485C46.127,24.201,49.036,21.292,52.611,21.292z"/>
	<path class="st0" d="M52.611,59.709c5.09,0,9.231-4.142,9.231-9.231s-4.142-9.231-9.231-9.231s-9.23,4.142-9.23,9.231
		S47.521,59.709,52.611,59.709z M52.611,42.246c4.539,0,8.231,3.692,8.231,8.231s-3.692,8.231-8.231,8.231
		c-4.538,0-8.23-3.692-8.23-8.231S48.073,42.246,52.611,42.246z"/>
	<path class="st0" d="M29.91,49.231c6.053,0,10.978-4.925,10.978-10.978S35.963,27.276,29.91,27.276s-10.978,4.925-10.978,10.978
		S23.857,49.231,29.91,49.231z M29.91,28.276c5.502,0,9.978,4.476,9.978,9.978s-4.476,9.978-9.978,9.978s-9.978-4.476-9.978-9.978
		S24.408,28.276,29.91,28.276z"/>
	<path class="st0" d="M29.91,47.235c4.952,0,8.981-4.029,8.981-8.981s-4.029-8.981-8.981-8.981s-8.98,4.029-8.98,8.981
		S24.958,47.235,29.91,47.235z M29.91,29.772c4.677,0,8.481,3.805,8.481,8.481s-3.805,8.481-8.481,8.481
		c-4.676,0-8.48-3.805-8.48-8.481S25.234,29.772,29.91,29.772z"/>
	<path class="st0" d="M29.91,45.857c4.192,0,7.604-3.411,7.604-7.604s-3.411-7.603-7.604-7.603s-7.603,3.41-7.603,7.603
		S25.718,45.857,29.91,45.857z M29.91,31.151c3.917,0,7.104,3.187,7.104,7.103c0,3.917-3.187,7.104-7.104,7.104
		c-3.916,0-7.103-3.187-7.103-7.104C22.808,34.338,25.994,31.151,29.91,31.151z"/>
	<path class="st0" d="M29.91,44.475c3.431,0,6.222-2.791,6.222-6.222s-2.791-6.222-6.222-6.222s-6.222,2.791-6.222,6.222
		S26.479,44.475,29.91,44.475z M29.91,32.532c3.155,0,5.722,2.566,5.722,5.722s-2.566,5.722-5.722,5.722s-5.722-2.566-5.722-5.722
		S26.755,32.532,29.91,32.532z"/>
	<path class="st0" d="M29.91,43.129c2.688,0,4.876-2.187,4.876-4.875s-2.188-4.875-4.876-4.875s-4.875,2.187-4.875,4.875
		S27.222,43.129,29.91,43.129z M29.91,33.879c2.413,0,4.376,1.963,4.376,4.375s-1.963,4.375-4.376,4.375
		c-2.412,0-4.375-1.963-4.375-4.375S27.498,33.879,29.91,33.879z"/>
	<path class="st0" d="M29.91,41.774c1.941,0,3.521-1.579,3.521-3.521s-1.579-3.521-3.521-3.521s-3.521,1.579-3.521,3.521
		S27.969,41.774,29.91,41.774z M29.91,35.233c1.665,0,3.021,1.355,3.021,3.021s-1.355,3.021-3.021,3.021s-3.021-1.355-3.021-3.021
		S28.245,35.233,29.91,35.233z"/>
	<path class="st0" d="M29.91,40.476c1.227,0,2.224-0.997,2.224-2.223s-0.997-2.223-2.224-2.223c-1.226,0-2.223,0.997-2.223,2.223
		S28.685,40.476,29.91,40.476z"/>
	<path class="st0" d="M52.611,57.713c3.989,0,7.235-3.246,7.235-7.235s-3.246-7.234-7.235-7.234s-7.234,3.245-7.234,7.234
		S48.622,57.713,52.611,57.713z M52.611,43.743c3.714,0,6.735,3.021,6.735,6.734c0,3.714-3.021,6.735-6.735,6.735
		c-3.713,0-6.734-3.021-6.734-6.735C45.877,46.764,48.898,43.743,52.611,43.743z"/>
	<path class="st0" d="M52.611,56.4c3.266,0,5.923-2.657,5.923-5.923s-2.657-5.923-5.923-5.923s-5.922,2.657-5.922,5.923
		S49.346,56.4,52.611,56.4z M52.611,45.054c2.99,0,5.423,2.433,5.423,5.423S55.602,55.9,52.611,55.9
		c-2.989,0-5.422-2.433-5.422-5.423S49.622,45.054,52.611,45.054z"/>
	<path class="st0" d="M52.611,55.121c2.561,0,4.645-2.083,4.645-4.644s-2.084-4.644-4.645-4.644s-4.644,2.083-4.644,4.644
		S50.051,55.121,52.611,55.121z M52.611,46.334c2.285,0,4.145,1.858,4.145,4.144s-1.859,4.144-4.145,4.144s-4.144-1.858-4.144-4.144
		S50.326,46.334,52.611,46.334z"/>
	<path class="st0" d="M52.611,53.835c1.852,0,3.357-1.506,3.357-3.357c0-1.851-1.506-3.356-3.357-3.356
		c-1.851,0-3.356,1.506-3.356,3.356C49.255,52.329,50.761,53.835,52.611,53.835z M52.611,47.621c1.575,0,2.857,1.281,2.857,2.856
		s-1.282,2.857-2.857,2.857s-2.856-1.282-2.856-2.857S51.036,47.621,52.611,47.621z"/>
	<path class="st0" d="M52.611,52.601c1.172,0,2.125-0.953,2.125-2.124s-0.953-2.124-2.125-2.124c-1.171,0-2.124,0.953-2.124,2.124
		S51.44,52.601,52.611,52.601z"/>
	<path class="st0" d="M52.611,33.487c3.149,0,5.711-2.562,5.711-5.711s-2.562-5.711-5.711-5.711S46.9,24.627,46.9,27.776
		S49.462,33.487,52.611,33.487z M52.611,22.565c2.873,0,5.211,2.338,5.211,5.211s-2.338,5.211-5.211,5.211S47.4,30.649,47.4,27.776
		S49.738,22.565,52.611,22.565z"/>
	<path class="st0" d="M52.611,32.256c2.471,0,4.48-2.01,4.48-4.479s-2.01-4.479-4.48-4.479c-2.47,0-4.479,2.01-4.479,4.479
		S50.142,32.256,52.611,32.256z M52.611,23.797c2.195,0,3.98,1.785,3.98,3.979s-1.785,3.979-3.98,3.979
		c-2.194,0-3.979-1.785-3.979-3.979S50.417,23.797,52.611,23.797z"/>
	<path class="st0" d="M52.611,31.017c1.787,0,3.241-1.454,3.241-3.241s-1.454-3.24-3.241-3.24s-3.24,1.453-3.24,3.24
		S50.824,31.017,52.611,31.017z M52.611,25.036c1.512,0,2.741,1.229,2.741,2.74c0,1.512-1.229,2.741-2.741,2.741
		c-1.511,0-2.74-1.229-2.74-2.741C49.871,26.265,51.101,25.036,52.611,25.036z"/>
	<path class="st0" d="M52.611,29.831c1.133,0,2.055-0.922,2.055-2.055s-0.922-2.054-2.055-2.054s-2.054,0.921-2.054,2.054
		S51.479,29.831,52.611,29.831z"/>
</g>
</svg>
