<svg width="26" height="26" viewBox="0 0 26 26" fill="none" xmlns="http://www.w3.org/2000/svg">
<mask id="mask0" mask-type="alpha" maskUnits="userSpaceOnUse" x="3" y="3" width="20" height="20">
<path fill-rule="evenodd" clip-rule="evenodd" d="M3 3H23V23H3V3Z" fill="white"/>
</mask>
<g mask="url(#mask0)">
<path fill-rule="evenodd" clip-rule="evenodd" d="M22.6429 16.3411H21.5968V15.1164V15.115V13.7136V13.7121V11.1764C22.1718 11.2629 22.6429 11.7557 22.6429 12.3107V16.3411ZM18.7907 17.7443H19.8368V16.6982H18.7907V17.7443ZM6.16321 17.7443H7.20929V16.6982H6.16321V17.7443ZM4.76036 15.295H13H21.2396V16.3411H4.76036V15.295ZM3.35714 12.3107C3.35714 11.7557 3.82821 11.2629 4.40321 11.1764V13.7121V13.7136V15.1164V16.3411H3.35714V12.3107ZM4.76036 9.6075C4.76036 8.91821 5.32107 8.35714 6.01036 8.35714H12.8214V13.5336H4.76036V10.9846V9.6075ZM21.2396 9.6075V10.9846V13.5336H13.1786V8.35714H19.9896C20.6789 8.35714 21.2396 8.91821 21.2396 9.6075ZM4.76036 14.9382H12.8214V13.8921H4.76036V14.9382ZM13.1786 14.9364H21.2396V13.8918H13.1786V14.9364ZM21.5968 10.8239V9.6075C21.5968 8.72107 20.8761 8 19.9896 8H13H6.01036C5.12393 8 4.40321 8.72107 4.40321 9.6075V10.8239C3.62714 10.9121 3 11.5532 3 12.3107V16.5196C3 16.6182 3.08 16.6982 3.17857 16.6982H4.58179H5.80607V17.9229C5.80607 18.0214 5.88607 18.1014 5.98464 18.1014H7.38786C7.48643 18.1014 7.56643 18.0214 7.56643 17.9229V16.6982H18.4336V17.9229C18.4336 18.0214 18.5136 18.1014 18.6121 18.1014H20.0154C20.1139 18.1014 20.1939 18.0214 20.1939 17.9229V16.6982H21.4182H22.8214C22.92 16.6982 23 16.6182 23 16.5196V12.3107C23 11.5532 22.3729 10.9121 21.5968 10.8239Z" fill="black"/>
<path fill-rule="evenodd" clip-rule="evenodd" d="M7.38769 11.2731C7.56805 11.2731 7.71483 11.1266 7.71483 10.9463C7.71483 10.7656 7.56805 10.6191 7.38769 10.6191C7.20733 10.6191 7.06055 10.7656 7.06055 10.9463C7.06055 11.1266 7.20733 11.2731 7.38769 11.2731Z" fill="black"/>
<path fill-rule="evenodd" clip-rule="evenodd" d="M10.1943 11.2731C10.3747 11.2731 10.5211 11.1266 10.5211 10.9463C10.5211 10.7656 10.3747 10.6191 10.1943 10.6191C10.0136 10.6191 9.86719 10.7656 9.86719 10.9463C9.86719 11.1266 10.0136 11.2731 10.1943 11.2731Z" fill="black"/>
<path fill-rule="evenodd" clip-rule="evenodd" d="M15.8057 11.2731C15.986 11.2731 16.1324 11.1266 16.1324 10.9463C16.1324 10.7656 15.986 10.6191 15.8057 10.6191C15.6249 10.6191 15.4785 10.7656 15.4785 10.9463C15.4785 11.1266 15.6249 11.2731 15.8057 11.2731Z" fill="black"/>
<path fill-rule="evenodd" clip-rule="evenodd" d="M18.6123 11.2731C18.7927 11.2731 18.9394 11.1266 18.9394 10.9463C18.9394 10.7656 18.7927 10.6191 18.6123 10.6191C18.4319 10.6191 18.2852 10.7656 18.2852 10.9463C18.2852 11.1266 18.4319 11.2731 18.6123 11.2731Z" fill="black"/>
</g>
</svg>
