<svg width="80" height="80" viewBox="0 0 80 80" fill="none" xmlns="http://www.w3.org/2000/svg">
<path fill-rule="evenodd" clip-rule="evenodd" d="M37.7693 36.9092H42.4193C42.6923 36.9092 42.9123 36.6892 42.9123 36.4172C42.9123 36.1462 42.6923 35.9262 42.4193 35.9262H37.7693C37.4973 35.9262 37.2773 36.1462 37.2773 36.4172C37.2773 36.6892 37.4973 36.9092 37.7693 36.9092Z" fill="white"/>
<path fill-rule="evenodd" clip-rule="evenodd" d="M40.0944 64.6035C39.5024 64.6035 39.0234 65.0835 39.0234 65.6755C39.0234 66.2675 39.5024 66.7475 40.0944 66.7475C40.6864 66.7475 41.1654 66.2675 41.1654 65.6755C41.1654 65.0835 40.6864 64.6035 40.0944 64.6035Z" fill="white"/>
<mask id="mask0" mask-type="alpha" maskUnits="userSpaceOnUse" x="32" y="10" width="16" height="4">
<path fill-rule="evenodd" clip-rule="evenodd" d="M32.627 10H47.564V13.6206H32.627V10Z" fill="white"/>
</mask>
<g mask="url(#mask0)">
<path fill-rule="evenodd" clip-rule="evenodd" d="M33.445 13.4976C35.281 11.8766 37.643 10.9836 40.095 10.9836C42.548 10.9836 44.91 11.8766 46.746 13.4976C46.841 13.5806 46.956 13.6206 47.072 13.6206C47.209 13.6206 47.343 13.5636 47.441 13.4546C47.621 13.2506 47.601 12.9396 47.397 12.7596C45.381 10.9806 42.788 9.99963 40.095 9.99963C37.403 9.99963 34.81 10.9806 32.794 12.7596C32.59 12.9396 32.57 13.2506 32.75 13.4546C32.929 13.6586 33.24 13.6766 33.445 13.4976Z" fill="white"/>
</g>
<path fill-rule="evenodd" clip-rule="evenodd" d="M45.3671 15.9351C45.5041 15.9351 45.6381 15.8791 45.7361 15.7691C45.9161 15.5651 45.8961 15.2551 45.6921 15.0751C44.1461 13.7101 42.1581 12.9581 40.0941 12.9581C38.0291 12.9581 36.0411 13.7101 34.4951 15.0751C34.2911 15.2551 34.2711 15.5651 34.4511 15.7691C34.6311 15.9731 34.9411 15.9911 35.1451 15.8121C36.5121 14.6061 38.2681 13.9421 40.0941 13.9421C41.9191 13.9421 43.6761 14.6061 45.0421 15.8121C45.1361 15.8951 45.2511 15.9351 45.3671 15.9351Z" fill="white"/>
<path fill-rule="evenodd" clip-rule="evenodd" d="M37.1318 17.2134C36.9278 17.3934 36.9078 17.7044 37.0878 17.9074C37.2678 18.1114 37.5788 18.1304 37.7818 17.9514C39.0588 16.8244 41.1288 16.8244 42.4048 17.9514C42.4988 18.0334 42.6138 18.0734 42.7308 18.0734C42.8668 18.0734 43.0018 18.0174 43.0998 17.9074C43.2788 17.7044 43.2598 17.3934 43.0558 17.2134C41.4188 15.7694 38.7688 15.7694 37.1318 17.2134Z" fill="white"/>
<path fill-rule="evenodd" clip-rule="evenodd" d="M58.206 46.2538C58.206 50.3468 54.216 50.4118 54.047 50.4128H49.889V35.0898C49.889 33.2808 48.417 31.8108 46.608 31.8108H33.581C31.772 31.8108 30.301 33.2808 30.301 35.0898V50.4128H26.143C25.973 50.4128 21.983 50.3658 21.983 46.2538V27.6508C21.983 27.4808 22.03 23.4918 26.143 23.4918H37.34C37.61 24.7658 38.742 25.7238 40.095 25.7238C41.447 25.7238 42.579 24.7658 42.85 23.4918H54.047C58.14 23.4918 58.205 27.4828 58.206 27.6508V46.2538ZM48.905 66.7198C48.905 67.9848 47.874 69.0168 46.608 69.0168H33.581C32.315 69.0168 31.284 67.9848 31.284 66.7198V35.0898C31.284 33.8238 32.315 32.7938 33.581 32.7938H46.608C47.874 32.7938 48.905 33.8238 48.905 35.0898V66.7198ZM54.047 22.5078H42.872C42.676 21.1448 41.512 20.0898 40.095 20.0898C38.678 20.0898 37.514 21.1448 37.317 22.5078H26.143C21.059 22.5078 21 27.5998 21 27.6508V46.2538C21 51.3378 26.091 51.3968 26.143 51.3968H30.301V66.7198C30.301 68.5278 31.772 69.9998 33.581 69.9998H46.608C48.417 69.9998 49.889 68.5278 49.889 66.7198V51.3968H54.047C54.099 51.3968 59.189 51.3378 59.189 46.2538V27.6508C59.189 27.5998 59.131 22.5078 54.047 22.5078Z" fill="white"/>
<path fill-rule="evenodd" clip-rule="evenodd" d="M43.1005 52.8213H42.1495C41.8775 52.8213 41.6575 53.0413 41.6575 53.3133V61.0853H40.5765V53.3133C40.5765 53.0413 40.3565 52.8213 40.0835 52.8213C39.8125 52.8213 39.5925 53.0413 39.5925 53.3133V61.0853H38.5095V53.3133C38.5095 53.0413 38.2895 52.8213 38.0175 52.8213H37.0885V45.5423H37.8145L39.7365 47.4643C39.9285 47.6553 40.2405 47.6553 40.4315 47.4643L42.3525 45.5423H43.1005V52.8213ZM43.5915 44.5583H42.1495C42.0185 44.5583 41.8935 44.6103 41.8015 44.7033L40.0835 46.4203L38.3665 44.7033C38.2735 44.6103 38.1485 44.5583 38.0175 44.5583H36.5975C36.3255 44.5583 36.1055 44.7783 36.1055 45.0503V53.3133C36.1055 53.5853 36.3255 53.8043 36.5975 53.8043H37.5265V61.5773C37.5265 61.8483 37.7465 62.0683 38.0175 62.0683H42.1495C42.4205 62.0683 42.6415 61.8483 42.6415 61.5773V53.8043H43.5915C43.8645 53.8043 44.0835 53.5853 44.0835 53.3133V45.0503C44.0835 44.7783 43.8645 44.5583 43.5915 44.5583Z" fill="white"/>
<path fill-rule="evenodd" clip-rule="evenodd" d="M40.0834 43.501C39.2154 43.501 38.5094 42.795 38.5094 41.928C38.5094 41.06 39.2154 40.354 40.0834 40.354C40.9504 40.354 41.6564 41.06 41.6564 41.928C41.6564 42.795 40.9504 43.501 40.0834 43.501ZM40.0834 39.37C38.6734 39.37 37.5254 40.517 37.5254 41.928C37.5254 43.338 38.6734 44.484 40.0834 44.484C41.4934 44.484 42.6414 43.338 42.6414 41.928C42.6414 40.517 41.4934 39.37 40.0834 39.37Z" fill="white"/>
</svg>
