<svg width="80" height="80" viewBox="0 0 80 80" fill="none" xmlns="http://www.w3.org/2000/svg">
<mask id="mask0" mask-type="alpha" maskUnits="userSpaceOnUse" x="15" y="10" width="51" height="60">
<path fill-rule="evenodd" clip-rule="evenodd" d="M15 10H65.4845V70H15V10Z" fill="white"/>
</mask>
<g mask="url(#mask0)">
<path fill-rule="evenodd" clip-rule="evenodd" d="M47.4068 42.2629H59.9238V38.7459H47.4068V42.2629ZM46.9148 43.2469H60.4158C60.6878 43.2469 60.9068 43.0259 60.9068 42.7549V38.2549C60.9068 37.9819 60.6878 37.7629 60.4158 37.7629H46.9148C46.6438 37.7629 46.4238 37.9819 46.4238 38.2549V42.7549C46.4238 43.0259 46.6438 43.2469 46.9148 43.2469Z" fill="white"/>
<path fill-rule="evenodd" clip-rule="evenodd" d="M64.155 65.5742C64.155 67.4712 62.61 69.0162 60.713 69.0162H46.426C44.528 69.0162 42.983 67.4712 42.983 65.5742V37.6882C42.983 35.7912 44.528 34.2462 46.426 34.2462H60.713C62.61 34.2462 64.155 35.7912 64.155 37.6882V65.5742ZM47.483 33.2632H51V29.7462H47.483V33.2632ZM56.484 24.5912C56.962 24.9942 57.57 25.2472 58.243 25.2472C58.915 25.2472 59.523 24.9942 60.001 24.5912V33.2622H56.484V24.5912ZM60.984 33.2902V22.7542C60.984 22.7242 60.972 22.6992 60.967 22.6712C60.97 22.6142 60.984 22.5612 60.984 22.5052C60.984 20.9922 59.755 19.7622 58.243 19.7622C56.731 19.7622 55.501 20.9922 55.501 22.5052C55.501 22.5612 55.513 22.6142 55.517 22.6712C55.512 22.6992 55.501 22.7242 55.501 22.7542V33.2622H51.984V29.2542C51.984 28.9822 51.763 28.7622 51.492 28.7622H46.992C46.719 28.7622 46.5 28.9822 46.5 29.2542V33.2622H46.426C43.985 33.2622 42 35.2482 42 37.6882V65.5742C42 68.0142 43.985 70.0002 46.426 70.0002H60.713C63.153 70.0002 65.138 68.0142 65.138 65.5742V37.6882C65.138 35.3412 63.297 33.4332 60.984 33.2902Z" fill="white"/>
<path fill-rule="evenodd" clip-rule="evenodd" d="M49.242 51.2637C48.272 51.2637 47.483 50.4747 47.483 49.5057C47.483 48.5347 48.272 47.7467 49.242 47.7467C50.212 47.7467 51 48.5347 51 49.5057C51 50.4747 50.212 51.2637 49.242 51.2637ZM51.984 49.5057C51.984 47.9937 50.755 46.7637 49.242 46.7637C47.73 46.7637 46.5 47.9937 46.5 49.5057C46.5 51.0177 47.73 52.2467 49.242 52.2467C50.755 52.2467 51.984 51.0177 51.984 49.5057Z" fill="white"/>
<path fill-rule="evenodd" clip-rule="evenodd" d="M58.244 51.2637C57.273 51.2637 56.485 50.4747 56.485 49.5057C56.485 48.5347 57.273 47.7467 58.244 47.7467C59.213 47.7467 60.002 48.5347 60.002 49.5057C60.002 50.4747 59.213 51.2637 58.244 51.2637ZM58.244 46.7637C56.732 46.7637 55.502 47.9937 55.502 49.5057C55.502 51.0177 56.732 52.2467 58.244 52.2467C59.756 52.2467 60.985 51.0177 60.985 49.5057C60.985 47.9937 59.756 46.7637 58.244 46.7637Z" fill="white"/>
<path fill-rule="evenodd" clip-rule="evenodd" d="M65.318 12.6738C63.363 10.9498 60.851 9.99976 58.243 9.99976C55.633 9.99976 53.121 10.9498 51.167 12.6738C50.963 12.8538 50.943 13.1648 51.123 13.3688C51.302 13.5708 51.613 13.5918 51.817 13.4118C53.591 11.8458 55.873 10.9838 58.243 10.9838C60.611 10.9838 62.892 11.8458 64.667 13.4118C64.761 13.4938 64.877 13.5348 64.993 13.5348C65.129 13.5348 65.264 13.4788 65.361 13.3688C65.541 13.1648 65.522 12.8538 65.318 12.6738Z" fill="white"/>
<path fill-rule="evenodd" clip-rule="evenodd" d="M63.3455 15.7744C63.4815 15.7744 63.6165 15.7174 63.7135 15.6084C63.8935 15.4054 63.8745 15.0934 63.6705 14.9144C62.1715 13.5914 60.2445 12.8624 58.2425 12.8624C56.2405 12.8624 54.3125 13.5914 52.8145 14.9144C52.6115 15.0934 52.5915 15.4054 52.7715 15.6084C52.9505 15.8134 53.2635 15.8314 53.4655 15.6524C54.7835 14.4874 56.4805 13.8454 58.2425 13.8454C60.0045 13.8454 61.7005 14.4874 63.0195 15.6524C63.1145 15.7344 63.2295 15.7744 63.3455 15.7744Z" fill="white"/>
<path fill-rule="evenodd" clip-rule="evenodd" d="M55.3657 16.9834C55.1617 17.1634 55.1427 17.4734 55.3227 17.6774C55.5027 17.8804 55.8117 17.9004 56.0167 17.7204C57.2467 16.6354 59.2387 16.6354 60.4687 17.7204C60.5617 17.8034 60.6777 17.8434 60.7937 17.8434C60.9297 17.8434 61.0657 17.7874 61.1627 17.6774C61.3427 17.4734 61.3227 17.1634 61.1197 16.9834C59.5307 15.5814 56.9547 15.5814 55.3657 16.9834Z" fill="white"/>
<path fill-rule="evenodd" clip-rule="evenodd" d="M55.0162 55.7637H52.3162C52.0442 55.7637 51.8242 55.9837 51.8242 56.2557C51.8242 56.5277 52.0442 56.7467 52.3162 56.7467H55.0162C55.2872 56.7467 55.5072 56.5277 55.5072 56.2557C55.5072 55.9837 55.2872 55.7637 55.0162 55.7637Z" fill="white"/>
<path fill-rule="evenodd" clip-rule="evenodd" d="M49.615 58.998H57.716C57.987 58.998 58.207 58.778 58.207 58.506C58.207 58.234 57.987 58.015 57.716 58.015H49.615C49.344 58.015 49.123 58.234 49.123 58.506C49.123 58.778 49.344 58.998 49.615 58.998Z" fill="white"/>
<path fill-rule="evenodd" clip-rule="evenodd" d="M60.4158 60.2637H46.9148C46.6438 60.2637 46.4238 60.4837 46.4238 60.7557C46.4238 61.0277 46.6438 61.2467 46.9148 61.2467H60.4158C60.6868 61.2467 60.9068 61.0277 60.9068 60.7557C60.9068 60.4837 60.6868 60.2637 60.4158 60.2637Z" fill="white"/>
<path fill-rule="evenodd" clip-rule="evenodd" d="M57.716 62.5137H49.615C49.344 62.5137 49.123 62.7337 49.123 63.0047C49.123 63.2777 49.344 63.4967 49.615 63.4967H57.716C57.987 63.4967 58.207 63.2777 58.207 63.0047C58.207 62.7337 57.987 62.5137 57.716 62.5137Z" fill="white"/>
<path fill-rule="evenodd" clip-rule="evenodd" d="M55.0162 64.7637H52.3162C52.0442 64.7637 51.8242 64.9847 51.8242 65.2557C51.8242 65.5277 52.0442 65.7477 52.3162 65.7477H55.0162C55.2872 65.7477 55.5072 65.5277 55.5072 65.2557C55.5072 64.9847 55.2872 64.7637 55.0162 64.7637Z" fill="white"/>
<path fill-rule="evenodd" clip-rule="evenodd" d="M20.4078 42.2629H32.9248V38.7459H20.4078V42.2629ZM19.9158 43.2469H33.4168C33.6888 43.2469 33.9078 43.0259 33.9078 42.7549V38.2549C33.9078 37.9819 33.6888 37.7629 33.4168 37.7629H19.9158C19.6448 37.7629 19.4238 37.9819 19.4238 38.2549V42.7549C19.4238 43.0259 19.6448 43.2469 19.9158 43.2469Z" fill="white"/>
<path fill-rule="evenodd" clip-rule="evenodd" d="M37.154 65.5742C37.154 67.4712 35.609 69.0162 33.711 69.0162H19.425C17.528 69.0162 15.983 67.4712 15.983 65.5742V37.6882C15.983 35.7912 17.528 34.2462 19.425 34.2462H33.711C35.609 34.2462 37.154 35.7912 37.154 37.6882V65.5742ZM20.483 33.2632H24V29.7462H20.483V33.2632ZM29.484 24.5912C29.961 24.9942 30.569 25.2472 31.242 25.2472C31.914 25.2472 32.522 24.9942 33.001 24.5912V33.2622H29.484V24.5912ZM33.984 33.2902V22.7542C33.984 22.7242 33.972 22.6992 33.967 22.6712C33.97 22.6142 33.984 22.5612 33.984 22.5052C33.984 20.9922 32.754 19.7622 31.242 19.7622C29.729 19.7622 28.5 20.9922 28.5 22.5052C28.5 22.5612 28.513 22.6142 28.517 22.6712C28.512 22.6992 28.5 22.7242 28.5 22.7542V33.2622H24.983V29.2542C24.983 28.9822 24.763 28.7622 24.492 28.7622H19.992C19.719 28.7622 19.5 28.9822 19.5 29.2542V33.2622H19.425C16.985 33.2622 15 35.2482 15 37.6882V65.5742C15 68.0142 16.985 70.0002 19.425 70.0002H33.711C36.152 70.0002 38.137 68.0142 38.137 65.5742V37.6882C38.137 35.3422 36.296 33.4342 33.984 33.2902Z" fill="white"/>
<path fill-rule="evenodd" clip-rule="evenodd" d="M22.241 51.2637C21.272 51.2637 20.483 50.4747 20.483 49.5057C20.483 48.5347 21.272 47.7467 22.241 47.7467C23.212 47.7467 24 48.5347 24 49.5057C24 50.4747 23.212 51.2637 22.241 51.2637ZM24.983 49.5057C24.983 47.9937 23.753 46.7637 22.241 46.7637C20.729 46.7637 19.5 47.9937 19.5 49.5057C19.5 51.0177 20.729 52.2467 22.241 52.2467C23.753 52.2467 24.983 51.0177 24.983 49.5057Z" fill="white"/>
<path fill-rule="evenodd" clip-rule="evenodd" d="M31.242 51.2637C30.272 51.2637 29.484 50.4747 29.484 49.5057C29.484 48.5347 30.272 47.7467 31.242 47.7467C32.212 47.7467 33.001 48.5347 33.001 49.5057C33.001 50.4747 32.212 51.2637 31.242 51.2637ZM31.242 46.7637C29.729 46.7637 28.5 47.9937 28.5 49.5057C28.5 51.0177 29.729 52.2467 31.242 52.2467C32.754 52.2467 33.984 51.0177 33.984 49.5057C33.984 47.9937 32.754 46.7637 31.242 46.7637Z" fill="white"/>
<path fill-rule="evenodd" clip-rule="evenodd" d="M28.0162 55.7637H25.3162C25.0432 55.7637 24.8242 55.9837 24.8242 56.2557C24.8242 56.5277 25.0432 56.7467 25.3162 56.7467H28.0162C28.2872 56.7467 28.5072 56.5277 28.5072 56.2557C28.5072 55.9837 28.2872 55.7637 28.0162 55.7637Z" fill="white"/>
<path fill-rule="evenodd" clip-rule="evenodd" d="M22.615 58.998H30.716C30.987 58.998 31.207 58.778 31.207 58.506C31.207 58.234 30.987 58.015 30.716 58.015H22.615C22.343 58.015 22.123 58.234 22.123 58.506C22.123 58.778 22.343 58.998 22.615 58.998Z" fill="white"/>
<path fill-rule="evenodd" clip-rule="evenodd" d="M33.4168 60.2637H19.9158C19.6448 60.2637 19.4238 60.4837 19.4238 60.7557C19.4238 61.0277 19.6448 61.2467 19.9158 61.2467H33.4168C33.6878 61.2467 33.9078 61.0277 33.9078 60.7557C33.9078 60.4837 33.6878 60.2637 33.4168 60.2637Z" fill="white"/>
<path fill-rule="evenodd" clip-rule="evenodd" d="M30.716 62.5137H22.615C22.343 62.5137 22.123 62.7337 22.123 63.0047C22.123 63.2777 22.343 63.4967 22.615 63.4967H30.716C30.987 63.4967 31.207 63.2777 31.207 63.0047C31.207 62.7337 30.987 62.5137 30.716 62.5137Z" fill="white"/>
<path fill-rule="evenodd" clip-rule="evenodd" d="M28.0162 64.7637H25.3162C25.0432 64.7637 24.8242 64.9847 24.8242 65.2557C24.8242 65.5277 25.0432 65.7477 25.3162 65.7477H28.0162C28.2872 65.7477 28.5072 65.5277 28.5072 65.2557C28.5072 64.9847 28.2872 64.7637 28.0162 64.7637Z" fill="white"/>
</g>
</svg>
